<?xml version="1.0" encoding="utf-8"?><svg viewBox="0 0 702 573" xmlns="http://www.w3.org/2000/svg" xmlns:xlink="http://www.w3.org/1999/xlink"><style>:root>svg{display:none}:root>svg:target{display:block}</style><svg fill="none" viewBox="0 0 288 573" id="advantages-line-1" xmlns="http://www.w3.org/2000/svg"><path d="M284 573V385.496c0-46.992-38.933-91.493-106.029-121.199l-7.354-3.254C65.177 214.36 4 144.43 4 70.588V0" stroke="url(#aa)" stroke-width="8"/><defs><linearGradient id="aa" x1="237.989" y1="563.606" x2="177.124" y2="175.777" gradientUnits="userSpaceOnUse"><stop offset=".022" stop-color="#DD475E"/><stop offset="1" stop-color="#E8B24F"/></linearGradient></defs></svg><svg fill="none" viewBox="0 0 87 510" id="advantages-line-2" xmlns="http://www.w3.org/2000/svg"><path d="M4 510v-84.255c0-65.234 12.847-128.598 36.496-180.008l10.007-21.75C71.56 178.212 83 121.793 83 63.707V0" stroke="url(#ba)" stroke-width="8"/><defs><linearGradient id="ba" x1="46.124" y1="501.946" x2="-70.167" y2="207.093" gradientUnits="userSpaceOnUse"><stop offset=".151" stop-color="#DD475E"/><stop offset="1" stop-color="#E8B24F"/></linearGradient></defs></svg><svg fill="none" viewBox="0 0 376 250" id="advantages-line-3" xmlns="http://www.w3.org/2000/svg"><path d="M372 250v-33.7c0-46.032-64.615-84.668-149.856-89.605l-6.929-.402C95.069 119.336 4 64.883 4 0" stroke="url(#ca)" stroke-width="8"/><defs><linearGradient id="ca" x1="321.646" y1="243.762" x2="308.257" y2="-19.489" gradientUnits="userSpaceOnUse"><stop offset=".151" stop-color="#DD475E"/><stop offset="1" stop-color="#E8B24F"/></linearGradient></defs></svg><svg fill="none" viewBox="0 0 270 352" id="advantages-line-4" xmlns="http://www.w3.org/2000/svg"><path d="M266 0c0 65.363-39.882 123.877-100.102 146.867L126.4 161.948C52.766 190.06 4 261.609 4 341.53V352" stroke="url(#da)" stroke-width="8"/><defs><linearGradient id="da" x1="152.175" y1="-260.929" x2="24.642" y2="293.41" gradientUnits="userSpaceOnUse"><stop stop-color="#E8B24F"/><stop offset="1" stop-color="#DD475E"/></linearGradient></defs></svg><svg fill="none" viewBox="0 0 446 196" id="advantages-line-5" xmlns="http://www.w3.org/2000/svg"><path d="M442 0c0 36.395-66.673 68.977-167.345 81.778l-66.032 8.397C85.525 105.83 4 145.668 4 190.17V196" stroke="url(#ea)" stroke-width="8"/><path d="M442 0c0 36.395-66.673 68.977-167.345 81.778l-66.032 8.397C85.525 105.83 4 145.668 4 190.17V196" stroke="url(#eb)" stroke-width="8"/><defs><linearGradient id="ea" x1="631.245" y1="-329" x2="536.057" y2="193.979" gradientUnits="userSpaceOnUse"><stop stop-color="#E8B24F"/><stop offset="1" stop-color="#DD475E"/></linearGradient><linearGradient id="eb" x1="456" y1="47.5" x2="-50.306" y2="275.636" gradientUnits="userSpaceOnUse"><stop stop-color="#2A282D"/><stop offset=".339" stop-color="#433F49"/><stop offset="1" stop-color="#606168"/></linearGradient></defs></svg><svg fill="none" viewBox="0 0 15 18" id="arrow" xmlns="http://www.w3.org/2000/svg"><path d="m0 10.328 2.081-2.034 3.948 3.912V.184H8.97v12.022l3.924-3.912L15 10.328l-7.5 7.488L0 10.328Z" fill="#fff"/><path d="m0 10.328 2.081-2.034 3.948 3.912V.184H8.97v12.022l3.924-3.912L15 10.328l-7.5 7.488L0 10.328Z" fill="#FFC266"/></svg><svg fill="none" viewBox="0 0 539 145" id="automated-line-1" xmlns="http://www.w3.org/2000/svg"><path d="M0 4h214.276a192.32 192.32 0 0 1 150.828 72.997A168.625 168.625 0 0 0 497.35 141H539" stroke="url(#ga)" stroke-width="8"/><defs><linearGradient id="ga" x1="11.865" y1="3.502" x2="482.789" y2="124.433" gradientUnits="userSpaceOnUse"><stop stop-color="#E8B24F"/><stop offset="1" stop-color="#DD475E"/></linearGradient></defs></svg><svg fill="none" viewBox="0 0 310 85" id="automated-line-2" xmlns="http://www.w3.org/2000/svg"><path d="M310 81h-88.208a207.746 207.746 0 0 1-123.55-40.732l-9.46-6.999A149.282 149.282 0 0 0 0 4" stroke="url(#ha)" stroke-width="8"/><defs><linearGradient id="ha" x1="303.176" y1="3.72" x2="33.117" y2="74.686" gradientUnits="userSpaceOnUse"><stop offset=".151" stop-color="#DD475E"/><stop offset="1" stop-color="#E8B24F"/></linearGradient></defs></svg><svg fill="none" viewBox="0 0 487 8" id="automated-line-3" xmlns="http://www.w3.org/2000/svg"><path d="M487 4H0" stroke="url(#ia)" stroke-width="8"/><defs><linearGradient id="ia" x1="469.506" y1="7" x2="105.527" y2="8.274" gradientUnits="userSpaceOnUse"><stop stop-color="#DD475E"/><stop offset="1" stop-color="#E8B24F"/></linearGradient></defs></svg><svg fill="none" viewBox="0 0 536 98" id="automated-line-4" xmlns="http://www.w3.org/2000/svg"><path d="M536 4H403.653a147.005 147.005 0 0 0-65.307 15.303l-102.138 50.65A231.001 231.001 0 0 1 133.583 94H0" stroke="url(#ja)" stroke-width="8"/><defs><linearGradient id="ja" x1="526.018" y1="3.673" x2="144.926" y2="128.998" gradientUnits="userSpaceOnUse"><stop offset=".022" stop-color="#DD475E"/><stop offset="1" stop-color="#E8B24F"/></linearGradient></defs></svg><svg fill="none" viewBox="0 0 278 177" id="automated-line-5" xmlns="http://www.w3.org/2000/svg"><path d="M278 4h-43.099c-39.603 0-72.995 29.516-77.858 68.82C149.966 130.033 101.356 173 43.706 173H0" stroke="url(#ka)" stroke-width="8"/><defs><linearGradient id="ka" x1="271.881" y1="3.385" x2="15.926" y2="30.867" gradientUnits="userSpaceOnUse"><stop offset=".151" stop-color="#DD475E"/><stop offset="1" stop-color="#E8B24F"/></linearGradient></defs></svg><svg fill="none" viewBox="0 0 17 24" id="bitcoin" xmlns="http://www.w3.org/2000/svg"><path fill-rule="evenodd" clip-rule="evenodd" d="M17 15.907c0-.801-.185-1.527-.556-2.179a4.044 4.044 0 0 0-1.502-1.525c-.44-.26-1.069-.498-1.897-.712.77-.268 1.389-.606 1.856-1.017.468-.41.828-.883 1.077-1.417.248-.535.372-1.1.372-1.696 0-.82-.235-1.573-.702-2.26-.473-.684-1.146-1.212-2.022-1.577a6.38 6.38 0 0 0-1.184-.337V0H9.457v2.972H7.539V0H4.553v2.972H0v2.497h.696c.463 0 .777.045.942.13.165.086.28.204.347.349.069.147.103.49.103 1.023v10.071c0 .53-.033.866-.103 1.017a.69.69 0 0 1-.347.349c-.165.082-.477.124-.942.124H0v2.498h4.553V24H7.54v-2.97h1.697l.222-.002V24h2.986v-3.227a6.81 6.81 0 0 0 1.315-.38c1.03-.42 1.825-1.034 2.393-1.841A4.496 4.496 0 0 0 17 15.907Zm-8.269-2.964c.999 0 1.744.096 2.231.286.488.19.853.47 1.094.834.242.374.364.827.364 1.361 0 .631-.175 1.168-.516 1.618-.342.45-.76.747-1.254.887-.49.145-1.11.219-1.857.219H7.508c-.428 0-.69-.029-.787-.074a.418.418 0 0 1-.209-.25c-.033-.095-.054-.418-.062-.972v-3.909H8.73Zm2.986-3.693c-.245.346-.607.608-1.094.78-.484.173-1.23.26-2.24.261H6.45V5.89h1.932c1.126 0 1.91.071 2.35.215.434.142.772.381 1.004.718.23.336.346.742.346 1.216 0 .458-.121.863-.365 1.211Z" fill="#fff"/></svg><svg fill="none" viewBox="0 0 28 28" id="bnb" xmlns="http://www.w3.org/2000/svg"><path d="M8.562 11.766 14 6.328l5.44 5.44 3.164-3.163L14 0 5.398 8.602l3.164 3.164ZM0 13.999l3.164-3.164L6.328 14l-3.164 3.164L0 14Zm8.562 2.235L14 21.672l5.44-5.44 3.166 3.162-.002.001L14 28l-8.602-8.602-.004-.004 3.168-3.16Zm13.11-2.233 3.164-3.164L28 14.001l-3.164 3.164-3.164-3.164Z" fill="#fff"/><path d="M17.209 13.998h.001L14 10.788l-2.373 2.372-.273.273-.562.563-.004.004.004.004L14 17.212l3.21-3.21.002-.002-.003-.002" fill="#fff"/></svg><svg fill="none" viewBox="0 0 28 28" id="boge" xmlns="http://www.w3.org/2000/svg"><path fill-rule="evenodd" clip-rule="evenodd" d="M14.755 3.51h-8.15v8.555H3.92v3.462h2.683v8.963h8.152c1.383 0 2.646-.266 3.79-.797a8.777 8.777 0 0 0 2.947-2.211c.822-.942 1.459-2.055 1.91-3.339.451-1.283.677-2.677.677-4.18 0-1.444-.216-2.798-.647-4.061-.431-1.273-1.053-2.381-1.865-3.324a8.514 8.514 0 0 0-2.932-2.24c-1.143-.552-2.437-.828-3.88-.828Zm-4.602 12.017v5.925h3.76a7.14 7.14 0 0 0 2.647-.481 5.755 5.755 0 0 0 2.09-1.444c.592-.632 1.053-1.409 1.384-2.331.331-.933.497-2 .497-3.204 0-1.293-.17-2.41-.512-3.353-.33-.943-.792-1.72-1.383-2.331a5.312 5.312 0 0 0-2.09-1.354 7.518 7.518 0 0 0-2.633-.451h-3.76v5.562h6.865v3.462h-6.865Z" fill="#fff"/></svg><svg fill="none" viewBox="0 0 28 28" id="busd" xmlns="http://www.w3.org/2000/svg"><g clip-path="url(#oa)" fill="#fff" stroke="#fff"><path d="m14 .059 3.454 3.527-8.698 8.671-3.454-3.443L13.999.059ZM19.243 5.287l3.454 3.527-13.941 13.9-3.454-3.445L19.243 5.287ZM3.512 10.515l3.454 3.526-3.454 3.444-3.454-3.444 3.454-3.526ZM24.487 10.515l3.454 3.526L14 27.941l-3.455-3.444 13.942-13.982Z"/></g><defs><clipPath id="oa"><path fill="#fff" d="M0 0h28v28H0z"/></clipPath></defs></svg><svg fill="none" viewBox="0 0 28 28" id="ethereum" xmlns="http://www.w3.org/2000/svg"><path fill-rule="evenodd" clip-rule="evenodd" d="m14 0 9.978 13.303L14 16.63l-9.977-3.326L14 0ZM6.744 12.447 14 11.64V2.77l-7.256 9.676ZM14 28 4.022 15.528 14 19.685l9.978-4.157L14 28Zm-.64-6.78L9.38 19.561 14 25.338v-3.851l-.64-.267Z" fill="#fff"/></svg><svg fill="none" viewBox="0 0 702 567" id="hero-bg" xmlns="http://www.w3.org/2000/svg"><g filter="url(#qa)"><path d="M516.145.405c-77.221 2.552-371.786 76.19-423.415 120.53-214.546 184.252-21.185 501.929 222.32 436.964 77.152-20.584 299.971-207.674 358.179-270.232C748.17 207.125 668.837-4.64 516.145.405Z" fill="url(#qb)"/></g><defs><radialGradient id="qb" cx="0" cy="0" r="1" gradientUnits="userSpaceOnUse" gradientTransform="rotate(127.046 216.953 240.357) scale(551.903 488.298)"><stop stop-color="#EB5323"/><stop offset=".75" stop-color="#811C5E"/><stop offset="1" stop-color="#300947"/></radialGradient><filter id="qa" x="-43.897" y="-15.683" width="745.715" height="634.201" filterUnits="userSpaceOnUse" color-interpolation-filters="sRGB"><feFlood flood-opacity="0" result="BackgroundImageFix"/><feBlend in="SourceGraphic" in2="BackgroundImageFix" result="shape"/><feColorMatrix in="SourceAlpha" values="0 0 0 0 0 0 0 0 0 0 0 0 0 0 0 0 0 0 127 0" result="hardAlpha"/><feOffset dy="-16"/><feGaussianBlur stdDeviation="30"/><feComposite in2="hardAlpha" operator="arithmetic" k2="-1" k3="1"/><feColorMatrix values="0 0 0 0 0.756863 0 0 0 0 0.243137 0 0 0 0 0.211765 0 0 0 0.25 0"/><feBlend in2="shape" result="effect1_innerShadow_865_22"/><feColorMatrix in="SourceAlpha" values="0 0 0 0 0 0 0 0 0 0 0 0 0 0 0 0 0 0 127 0" result="hardAlpha"/><feOffset dx="-44" dy="52"/><feGaussianBlur stdDeviation="46"/><feComposite in2="hardAlpha" operator="arithmetic" k2="-1" k3="1"/><feColorMatrix values="0 0 0 0 0.960784 0 0 0 0 0.698039 0 0 0 0 0.235294 0 0 0 0.5 0"/><feBlend in2="effect1_innerShadow_865_22" result="effect2_innerShadow_865_22"/></filter></defs></svg><svg fill="none" viewBox="0 0 71 85" id="logo" xmlns="http://www.w3.org/2000/svg"><circle cx="28.13" cy="15.65" r="6.405" transform="rotate(-50.642 28.13 15.65)" fill="#C4C4C4"/><circle cx="28.13" cy="15.65" r="6.405" transform="rotate(-50.642 28.13 15.65)" fill="url(#ra)"/><circle cx="40.627" cy="36.199" r="6.132" transform="rotate(-50.642 40.627 36.199)" fill="#C4C4C4"/><circle cx="40.627" cy="36.199" r="6.132" transform="rotate(-50.642 40.627 36.199)" fill="url(#rb)"/><circle cx="53.736" cy="31.595" r="10.467" fill="#C4C4C4"/><circle cx="53.736" cy="31.595" r="10.467" fill="url(#rc)"/><path d="M1 72.656V29.984m0 42.672 49.112 10.869M1 72.655l18.92-28.581M1 29.984 19.92 1.403l49.113 10.869v43.074l-18.92 28.179M1 29.985l49.112 10.868 18.92-28.179m-18.92 70.85V40.452M19.92 44.074l49.113 10.87M19.92 44.073V1" stroke="#fff" stroke-width="2"/><circle cx="14.717" cy="52.961" r="7.173" transform="rotate(-50.642 14.717 52.96)" fill="#C4C4C4"/><circle cx="14.717" cy="52.961" r="7.173" transform="rotate(-50.642 14.717 52.96)" fill="url(#rd)"/><circle cx="36.828" cy="62.994" r="4.026" fill="#C4C4C4"/><circle cx="36.828" cy="62.994" r="4.026" fill="url(#re)"/><defs><radialGradient id="ra" cx="0" cy="0" r="1" gradientUnits="userSpaceOnUse" gradientTransform="matrix(-4.39886 9.8076 -12.44715 -5.58275 31.872 11.784)"><stop stop-color="#E9B652"/><stop offset=".625" stop-color="#E29735"/><stop offset="1" stop-color="#E45B62"/></radialGradient><radialGradient id="rb" cx="0" cy="0" r="1" gradientUnits="userSpaceOnUse" gradientTransform="matrix(-4.21102 9.38879 -11.91557 -5.34433 44.21 32.497)"><stop stop-color="#D7325B"/><stop offset=".625" stop-color="#E35861"/><stop offset="1" stop-color="#E68851"/></radialGradient><radialGradient id="rc" cx="0" cy="0" r="1" gradientUnits="userSpaceOnUse" gradientTransform="matrix(-7.1879 16.02597 -20.3391 -9.12241 59.85 25.276)"><stop stop-color="#EB5323"/><stop offset=".625" stop-color="#811C5E"/><stop offset="1" stop-color="#300947"/></radialGradient><radialGradient id="rd" cx="0" cy="0" r="1" gradientUnits="userSpaceOnUse" gradientTransform="matrix(-4.92572 10.98225 -13.93797 -6.2514 18.908 48.63)"><stop stop-color="#3AACB4"/><stop offset=".625" stop-color="#804889"/><stop offset="1" stop-color="#A22451"/></radialGradient><radialGradient id="re" cx="0" cy="0" r="1" gradientUnits="userSpaceOnUse" gradientTransform="rotate(114.157 -.017 42.966) scale(6.75543 8.57354)"><stop stop-color="#EF8634"/><stop offset=".625" stop-color="#8E9128"/><stop offset="1" stop-color="#467D57"/></radialGradient></defs></svg><svg fill="none" viewBox="0 0 102 44" id="security" xmlns="http://www.w3.org/2000/svg"><path fill-rule="evenodd" clip-rule="evenodd" d="M98.983 18.167H72.316v19.666h26.667V18.167Zm-29.667-3v25.666h32.667V15.167H69.316Z" fill="#fff"/><path fill-rule="evenodd" clip-rule="evenodd" d="M91.983 14.5V9.333a6.333 6.333 0 1 0-12.667 0V14.5h12.667ZM85.65 0a9.333 9.333 0 0 0-9.334 9.333V17.5h18.667V9.333A9.333 9.333 0 0 0 85.65 0Z" fill="#fff"/><path d="M88.65 26a3 3 0 1 1-6 0 3 3 0 0 1 6 0Z" fill="#fff"/><path fill-rule="evenodd" clip-rule="evenodd" d="M85.65 24c.552 0 1 .396 1 .885v7.23c0 .489-.448.885-1 .885-.553 0-1-.396-1-.885v-7.23c0-.489.447-.885 1-.885ZM17.15 26a3.5 3.5 0 1 0 0-7 3.5 3.5 0 0 0 0 7Zm0 3a6.5 6.5 0 1 0 0-13 6.5 6.5 0 0 0 0 13ZM62.528 22l-4.94-4.94 2.122-2.12L66.77 22l-7.06 7.06-2.121-2.12 4.94-4.94Z" fill="#fff"/><path d="m20.17 3.072-2.187-1.326-2.187 1.326a29.5 29.5 0 0 1-11.078 3.97L0 7.722 1.91 25.09a19.5 19.5 0 0 0 9.276 14.544l6.797 4.12 6.797-4.12a19.5 19.5 0 0 0 9.203-13.967H30.95a16.5 16.5 0 0 1-7.724 11.402l-5.242 3.177-5.242-3.177a16.5 16.5 0 0 1-7.849-12.307L3.3 10.278l1.848-.267A32.5 32.5 0 0 0 17.35 5.637l.632-.383.632.383a32.501 32.501 0 0 0 12.204 4.374l1.848.267-.923 8.389h3.018l1.204-10.944-4.718-.681a29.5 29.5 0 0 1-11.078-3.97Z" fill="#fff"/><path fill-rule="evenodd" clip-rule="evenodd" d="M62.9 23.667H22.65v-3H62.9v3Z" fill="#fff"/></svg><svg fill="none" viewBox="0 0 28 28" id="usdc" xmlns="http://www.w3.org/2000/svg"><g clip-path="url(#ta)"><path fill-rule="evenodd" clip-rule="evenodd" d="M14 28c7.758 0 14-6.242 14-14S21.758 0 14 0 0 6.242 0 14s6.242 14 14 14Zm3.85-11.783c0-2.042-1.225-2.742-3.675-3.034-1.75-.233-2.1-.7-2.1-1.516 0-.817.583-1.342 1.75-1.342 1.05 0 1.633.35 1.925 1.225a.439.439 0 0 0 .408.292h.934a.399.399 0 0 0 .408-.409v-.058a2.914 2.914 0 0 0-2.625-2.392v-1.4c0-.233-.175-.408-.467-.466h-.875c-.233 0-.408.175-.466.466v1.342c-1.75.233-2.859 1.4-2.859 2.858 0 1.925 1.167 2.684 3.617 2.975 1.633.292 2.158.642 2.158 1.575 0 .934-.816 1.575-1.925 1.575-1.516 0-2.041-.641-2.216-1.516-.059-.234-.234-.35-.409-.35h-.991a.399.399 0 0 0-.409.408v.058c.234 1.459 1.167 2.509 3.092 2.8v1.4c0 .234.175.409.467.467h.875c.233 0 .408-.175.466-.467v-1.4c1.75-.291 2.917-1.516 2.917-3.091ZM5.833 11.142c-1.691 4.491.642 9.566 5.192 11.2.175.116.35.35.35.525v.816c0 .117 0 .175-.058.234-.059.233-.292.35-.525.233a10.494 10.494 0 0 1-6.825-6.825C2.217 11.783 5.25 5.892 10.792 4.142c.058-.059.175-.059.233-.059.233.059.35.234.35.467v.817c0 .291-.117.466-.35.583-2.392.875-4.317 2.742-5.192 5.192Zm10.85-6.767c.059-.233.292-.35.525-.233a10.58 10.58 0 0 1 6.825 6.883c1.75 5.542-1.283 11.433-6.825 13.183-.058.059-.175.059-.233.059-.233-.059-.35-.234-.35-.467v-.817c0-.291.117-.466.35-.583 2.392-.875 4.317-2.742 5.192-5.192 1.691-4.491-.642-9.566-5.192-11.2-.175-.116-.35-.35-.35-.583v-.817c0-.116 0-.175.058-.233Z" fill="#fff"/></g><defs><clipPath id="ta"><path fill="#fff" d="M0 0h28v28H0z"/></clipPath></defs></svg><svg fill="none" viewBox="0 0 28 28" id="usdt" xmlns="http://www.w3.org/2000/svg"><path d="M16.45 10.126V7.147h7.014V2.513H4.301v4.634h7.014v2.99c-5.666.29-9.91 1.478-9.91 2.898 0 1.421 4.244 2.608 9.91 2.898v9.284a13.4 13.4 0 0 0 2.685.27c.837 0 1.656-.077 2.45-.225v-9.318c5.783-.268 10.145-1.468 10.145-2.909 0-1.44-4.362-2.64-10.145-2.909ZM14 14.866c-6.32 0-11.443-.952-11.443-2.126 0-1.003 3.734-1.844 8.758-2.068v3.406a17.994 17.994 0 0 0 5.135 0v-3.416c5.142.208 8.992 1.059 8.992 2.078 0 1.174-5.123 2.127-11.442 2.127Z" fill="#fff"/></svg></svg>