<svg width="106" height="106" fill="none" xmlns="http://www.w3.org/2000/svg"><path d="M33.258 17.714a2457.855 2457.855 0 01-11.97 3.806l-2.258.73v15.686c0 9.39.071 16.469.178 17.643.783 8.217 4.34 16.007 10.28 22.48 1.352 1.477 22.8 20.169 23.406 20.4.248.089 19.1-15.989 22.195-18.941 5.371-5.105 9.569-12.574 11.063-19.724.782-3.77.836-5.176.782-21.894l-.053-15.722-12.076-3.806c-6.634-2.08-12.094-3.77-12.13-3.753-.017.036.979 2.01 2.241 4.411l2.294 4.358 3.433 1.102c1.885.605 4.73 1.512 6.332 2.01l2.899.907-.072 14.442c-.053 13.872-.07 14.513-.426 16.13-1.352 6.101-4.144 11.277-8.43 15.652-.819.836-4.98 4.517-9.231 8.163-4.25 3.664-7.95 6.848-8.217 7.097l-.462.426-8.164-7.025c-9.977-8.608-11.471-10.066-13.854-13.73-1.832-2.828-3.184-5.87-4.002-9.017-.8-3.201-.872-4.393-.872-18.657V27.425l2.544-.8c1.387-.445 4.232-1.352 6.314-2.01 2.063-.658 3.77-1.263 3.77-1.316 0-.054.996-2.01 2.223-4.34 1.227-2.348 2.223-4.286 2.223-4.322 0-.107-.213-.035-9.96 3.077z" fill="#fff"/><path d="M52.538 15.153c-.16.32-4.642 8.875-9.942 18.995l-9.64 18.407.143 1.494c.32 3.06 1.458 6.296 3.308 9.23.658 1.068.854 1.264 1.031 1.068.107-.125 3.629-6.776 7.826-14.78 4.18-7.985 7.647-14.53 7.719-14.53.053 0 3.574 6.474 7.807 14.37 4.233 7.897 7.772 14.495 7.88 14.673.177.302.212.285.497-.089 1.832-2.4 3.344-6.367 3.77-9.87l.214-1.78L63.05 33.508C57.5 23.157 52.93 14.637 52.894 14.62c-.018-.036-.178.195-.356.533z" fill="#fff"/><path d="M48.02 60.452l-4.89 9.764 2.756 2.402a397.816 397.816 0 004.926 4.215L53 78.647l.48-.392c.285-.213 2.472-2.116 4.873-4.233l4.393-3.841-4.873-9.746c-2.685-5.354-4.89-9.747-4.926-9.747-.018 0-2.241 4.393-4.927 9.764z" fill="#fff"/></svg>