<svg width="84" height="84" fill="none" xmlns="http://www.w3.org/2000/svg"><path d="M.523 42.086l9.635-9.635 9.636 9.636-9.635 9.635-9.636-9.636zm31.951.024l9.635-9.636 9.636 9.636-9.635 9.636-9.636-9.637zm51.003-.196l-9.635 9.635-9.636-9.636 9.635-9.635 9.636 9.636z" fill="#fff"/><path d="M25.927 48.218l-9.636 9.636L32.28 73.842l-.023.023L41.89 83.5l25.622-25.622-9.635-9.636-15.963 15.964-15.988-15.988zm32.147-12.437l9.635-9.635L51.72 10.158l.023-.023L42.109.5 16.486 26.123l9.635 9.635 15.965-15.965 15.988 15.988z" fill="#fff"/></svg>