<svg width="17" height="24" fill="none" xmlns="http://www.w3.org/2000/svg"><path fill-rule="evenodd" clip-rule="evenodd" d="M17 15.907c0-.801-.185-1.527-.556-2.179a4.044 4.044 0 00-1.502-1.525c-.44-.26-1.069-.498-1.897-.712.77-.268 1.389-.606 1.856-1.017a4.28 4.28 0 001.077-1.417c.248-.535.372-1.1.372-1.696 0-.82-.235-1.573-.702-2.26-.473-.684-1.146-1.212-2.022-1.577a6.38 6.38 0 00-1.184-.337V0H9.457v2.972H7.539V0H4.553v2.972H0v2.497h.696c.463 0 .777.045.942.13.165.086.28.204.347.349.069.147.103.49.103 1.023v10.071c0 .53-.033.866-.103 1.017a.69.69 0 01-.347.349c-.165.082-.477.124-.942.124H0v2.498h4.553V24H7.54v-2.97h1.697l.222-.002V24h2.986v-3.227a6.81 6.81 0 001.315-.38c1.03-.42 1.825-1.034 2.393-1.841A4.496 4.496 0 0017 15.907zm-8.269-2.964c.999 0 1.744.096 2.231.286.488.19.853.47 1.094.834.242.374.364.827.364 1.361 0 .631-.175 1.168-.516 1.618-.342.45-.76.747-1.254.887-.49.145-1.11.219-1.857.219H7.508c-.428 0-.69-.029-.787-.074a.418.418 0 01-.209-.25c-.033-.095-.054-.418-.062-.972v-3.909h2.28zm2.986-3.693c-.245.346-.607.608-1.094.78-.484.173-1.23.26-2.24.261H6.45V5.89h1.932c1.126 0 1.91.071 2.35.215.434.142.772.381 1.004.718.23.336.346.742.346 1.216 0 .458-.121.863-.365 1.211z" fill="#fff"/></svg>