<svg width="86" height="94" fill="none" xmlns="http://www.w3.org/2000/svg"><g filter="url(#filter0_d_865_255)" fill="#fff"><path fill-rule="evenodd" clip-rule="evenodd" d="M13.135 31.626l13.02-12.486c8.62-8.264 18.099-7.54 25.269-.036.91.952 2.032 2.616 2.702 3.685.075.112.142.214.204.31.17.261.304.467.47.641.456.477.924.599 1.937.31 6.259-1.664 11.62.27 16.629 5.51 7 7.325 7.418 17.08-2.118 26.224L52.97 73.311c-.978.938-1.744.872-2.654-.08L13.099 34.285c-.91-.952-.942-1.721.036-2.659zm28.67 3.89l-3.118 2.99c-.978.938-1.743.873-2.653-.08l-2.732-2.858c-.91-.953-.942-1.722.036-2.66l3.118-2.989c1.59-1.524 3.78-1.684 5.486.102 1.764 1.846 1.452 3.972-.137 5.496zm10.768 17.52l8.191-7.855c2.384-2.286 2.932-4.409 1.054-6.374-1.82-1.906-4.02-1.51-6.403.777l-8.192 7.854c-.978.938-.946 1.707-.036 2.66l2.732 2.858c.91.953 1.675 1.018 2.654.08z"/><path d="M13.499 55.951a.965.965 0 00-.03 1.362l26.27 27.491a.96.96 0 001.36.03l5.212-4.997a.964.964 0 00.03-1.362L20.07 50.985a.96.96 0 00-1.36-.03l-5.211 4.996z"/></g><defs><filter id="filter0_d_865_255" x="-3.5" y=".5" width="93" height="93" filterUnits="userSpaceOnUse" color-interpolation-filters="sRGB"><feFlood flood-opacity="0" result="BackgroundImageFix"/><feColorMatrix in="SourceAlpha" values="0 0 0 0 0 0 0 0 0 0 0 0 0 0 0 0 0 0 127 0" result="hardAlpha"/><feOffset dy="4"/><feGaussianBlur stdDeviation="2"/><feColorMatrix values="0 0 0 0 0 0 0 0 0 0 0 0 0 0 0 0 0 0 0.25 0"/><feBlend in2="BackgroundImageFix" result="effect1_dropShadow_865_255"/><feBlend in="SourceGraphic" in2="effect1_dropShadow_865_255" result="shape"/></filter></defs></svg>