<svg width="28" height="28" fill="none" xmlns="http://www.w3.org/2000/svg"><path d="M8.562 11.766L14 6.328l5.44 5.44 3.164-3.163L14 0 5.398 8.602l3.164 3.164zM0 13.999l3.164-3.164L6.328 14l-3.164 3.164L0 14zm8.562 2.235L14 21.672l5.44-5.44 3.166 3.162-.002.001L14 28l-8.602-8.602-.004-.004 3.168-3.16zm13.11-2.233l3.164-3.164L28 14.001l-3.164 3.164-3.164-3.164z" fill="#fff"/><path d="M17.209 13.998h.001L14 10.788l-2.373 2.372-.273.273-.562.563-.004.004.004.004L14 17.212l3.21-3.21.002-.002-.003-.002" fill="#fff"/></svg>