<svg width="28" height="28" fill="none" xmlns="http://www.w3.org/2000/svg"><path fill-rule="evenodd" clip-rule="evenodd" d="M14.755 3.51h-8.15v8.555H3.92v3.462h2.683v8.963h8.152c1.383 0 2.646-.266 3.79-.797a8.777 8.777 0 002.947-2.211c.822-.942 1.459-2.055 1.91-3.339.451-1.283.677-2.677.677-4.18 0-1.444-.216-2.798-.647-4.061-.431-1.273-1.053-2.381-1.865-3.324a8.514 8.514 0 00-2.932-2.24c-1.143-.552-2.437-.828-3.88-.828zm-4.602 12.017v5.925h3.76a7.14 7.14 0 002.647-.481 5.755 5.755 0 002.09-1.444c.592-.632 1.053-1.409 1.384-2.331.331-.933.497-2 .497-3.204 0-1.293-.17-2.41-.512-3.353-.33-.943-.792-1.72-1.383-2.331a5.312 5.312 0 00-2.09-1.354 7.518 7.518 0 00-2.633-.451h-3.76v5.562h6.865v3.462h-6.865z" fill="#fff"/></svg>