<svg width="43" height="42" fill="none" xmlns="http://www.w3.org/2000/svg"><path fill="#2D2D2D" d="M0 0h43v42H0z"/><g clip-path="url(#clip0_702_870)" filter="url(#filter0_d_702_870)"><path fill="#191A1F" d="M-263-7635h1440V124H-263z"/><path fill="#071216" d="M-263-7635h1440V124H-263z"/><g opacity=".7" filter="url(#filter2_i_702_870)"><path d="M-53.864-719.78c-84.935-11.356-420.631 15.224-485.228 54.266-268.434 162.233-115.131 545.144 163.125 518.696 88.162-8.38 366.165-172.202 441.296-229.966 96.73-74.369 48.75-320.539-119.193-342.996z" fill="url(#paint0_radial_702_870)"/></g><path fill="#fff" d="M-263-414h1440v538H-263z"/><path fill-rule="evenodd" clip-rule="evenodd" d="M.286 6.563A6.563 6.563 0 016.848 0h28.875a6.562 6.562 0 016.563 6.563v28.875A6.562 6.562 0 0135.723 42H6.848a6.562 6.562 0 01-6.562-6.563V6.564zm21 3.937c5.775 0 10.5 4.725 10.5 10.5 0 5.25-3.807 9.712-9.057 10.5v-7.481h2.494L25.748 21h-2.887v-1.969c0-.787.393-1.575 1.706-1.575h1.312v-2.625s-1.18-.262-2.362-.262c-2.363 0-3.938 1.443-3.938 4.068V21h-2.625v3.019h2.625v7.35C14.592 30.58 10.786 26.25 10.786 21c0-5.775 4.725-10.5 10.5-10.5z" fill="#000"/></g><defs><filter id="filter0_d_702_870" x="-267" y="-7635" width="1448" height="7767" filterUnits="userSpaceOnUse" color-interpolation-filters="sRGB"><feFlood flood-opacity="0" result="BackgroundImageFix"/><feColorMatrix in="SourceAlpha" values="0 0 0 0 0 0 0 0 0 0 0 0 0 0 0 0 0 0 127 0" result="hardAlpha"/><feOffset dy="4"/><feGaussianBlur stdDeviation="2"/><feComposite in2="hardAlpha" operator="out"/><feColorMatrix values="0 0 0 0 0 0 0 0 0 0 0 0 0 0 0 0 0 0 0.25 0"/><feBlend in2="BackgroundImageFix" result="effect1_dropShadow_702_870"/><feBlend in="SourceGraphic" in2="effect1_dropShadow_702_870" result="shape"/></filter><filter id="filter2_i_702_870" x="-756.785" y="-722.422" width="871.573" height="668.952" filterUnits="userSpaceOnUse" color-interpolation-filters="sRGB"><feFlood flood-opacity="0" result="BackgroundImageFix"/><feBlend in="SourceGraphic" in2="BackgroundImageFix" result="shape"/><feColorMatrix in="SourceAlpha" values="0 0 0 0 0 0 0 0 0 0 0 0 0 0 0 0 0 0 127 0" result="hardAlpha"/><feOffset dx="-77.884" dy="92.044"/><feGaussianBlur stdDeviation="81.424"/><feComposite in2="hardAlpha" operator="arithmetic" k2="-1" k3="1"/><feColorMatrix values="0 0 0 0 0.960784 0 0 0 0 0.698039 0 0 0 0 0.235294 0 0 0 0.85 0"/><feBlend in2="shape" result="effect1_innerShadow_702_870"/></filter><radialGradient id="paint0_radial_702_870" cx="0" cy="0" r="1" gradientUnits="userSpaceOnUse" gradientTransform="rotate(136.554 62.884 -255.39) scale(612.099 541.556)"><stop stop-color="#EB5323"/><stop offset=".75" stop-color="#811C5E"/><stop offset="1" stop-color="#300947"/></radialGradient><clipPath id="clip0_702_870"><path fill="#fff" transform="translate(-263 -7635)" d="M0 0h1440v7759H0z"/></clipPath></defs></svg>