<svg width="46" height="331" fill="none" xmlns="http://www.w3.org/2000/svg"><path d="M36.972 7.946a.98.98 0 000-1.386L30.735.323A.98.98 0 0029.35 1.71l5.544 5.544-5.544 5.543a.98.98 0 001.386 1.386l6.237-6.236zm8.765 320.735c-7.345.108-18.354-1.443-27.488-6.398-9.085-4.929-16.269-13.184-16.269-26.594H.02c0 14.29 7.733 23.13 17.295 28.317 9.512 5.16 20.879 6.746 28.451 6.635l-.029-1.96zM1.98 295.689V38.285H.02v257.404h1.96zm0-257.404c0-12.59 5.454-20.038 12.402-24.387 7.013-4.39 15.627-5.665 21.897-5.665v-1.96c-6.47 0-15.496 1.305-22.937 5.963C5.836 16.936.02 25.005.02 38.285h1.96z" fill="#E2AD5D"/></svg>