<svg width="67" height="157" fill="none" xmlns="http://www.w3.org/2000/svg"><path d="M64.68 92.992h-1.299v-.005l1.3.005zM.874 148.01a1.3 1.3 0 010-1.838l8.27-8.269a1.3 1.3 0 011.837 1.838l-7.35 7.35 7.35 7.35a1.3 1.3 0 01-1.838 1.838L.874 148.01zM66.357.303l-.377 92.695-2.599-.011.377-92.694 2.598.01zm-.377 92.69c0 10.488-2.896 24.344-12.434 35.6-9.575 11.299-25.69 19.797-51.753 19.797v-2.599c25.453 0 40.78-8.27 49.77-18.878 9.028-10.653 11.818-23.846 11.818-33.92h2.599z" fill="url(#paint0_linear_865_1933)"/><defs><linearGradient id="paint0_linear_865_1933" x1="65.066" y1=".298" x2="1.793" y2="147.09" gradientUnits="userSpaceOnUse"><stop stop-color="#E0615A"/><stop offset="1" stop-color="#DD475E"/></linearGradient></defs></svg>