<svg width="39" height="158" fill="none" xmlns="http://www.w3.org/2000/svg"><path d="M2.084 121.516l1.3.031v-.031h-1.3zm36.352 27.177a1.3 1.3 0 000-1.838l-8.27-8.269a1.3 1.3 0 00-1.837 1.838l7.35 7.35-7.35 7.35a1.3 1.3 0 001.838 1.838l8.269-8.269zM.785.981v120.535h2.599V.981H.785zm0 120.503c-.113 4.688 1.639 11.6 7.182 17.345 5.572 5.775 14.849 10.244 29.55 10.244v-2.598c-14.151 0-22.696-4.284-27.68-9.45-5.013-5.196-6.552-11.413-6.454-15.478l-2.598-.063z" fill="url(#paint0_linear_865_1932)"/><defs><linearGradient id="paint0_linear_865_1932" x1="1.768" y1="1.298" x2="37.833" y2="148.09" gradientUnits="userSpaceOnUse"><stop stop-color="#E27957"/><stop offset="1" stop-color="#DD475E"/></linearGradient></defs></svg>