<svg width="43" height="42" fill="none" xmlns="http://www.w3.org/2000/svg"><g fill="#000"><path d="M21.286 24.675c-1.97 0-3.675-1.575-3.675-3.675 0-1.969 1.575-3.675 3.675-3.675 1.968 0 3.675 1.575 3.675 3.675 0 1.969-1.707 3.675-3.675 3.675z"/><path fill-rule="evenodd" clip-rule="evenodd" d="M25.748 12.075h-8.925c-1.05.131-1.575.263-1.969.394-.525.131-.918.394-1.312.787-.312.312-.459.623-.637 1-.047.1-.096.203-.15.313-.02.06-.044.125-.07.193a4.645 4.645 0 00-.324 1.776v8.924c.13 1.05.262 1.576.393 1.97.132.524.394.918.788 1.312.312.311.623.459 1 .637.099.046.203.096.312.15.061.02.125.044.194.07.375.136.888.324 1.775.324h8.925c1.05-.131 1.575-.262 1.969-.394.525-.131.919-.393 1.312-.787.312-.312.46-.623.637-1 .047-.1.096-.203.15-.313l.07-.193c.137-.375.325-.888.325-1.776v-8.924c-.132-1.05-.263-1.575-.394-1.97-.131-.524-.394-.918-.788-1.312-.311-.311-.623-.459-1-.636a14.95 14.95 0 01-.312-.151 7.23 7.23 0 01-.194-.07c-.375-.136-.887-.324-1.775-.324zm-4.462 3.281A5.602 5.602 0 0015.642 21a5.602 5.602 0 005.644 5.644A5.602 5.602 0 0026.929 21a5.602 5.602 0 00-5.643-5.644zm7.087-.131a1.312 1.312 0 11-2.625 0 1.312 1.312 0 012.625 0z"/><path fill-rule="evenodd" clip-rule="evenodd" d="M.286 6.563A6.563 6.563 0 016.848 0h28.875a6.562 6.562 0 016.563 6.563v28.875A6.562 6.562 0 0135.723 42H6.848a6.562 6.562 0 01-6.562-6.563V6.564zm16.537 3.543h8.925c1.181.132 1.969.263 2.625.525.788.394 1.313.656 1.969 1.313a5.732 5.732 0 011.312 1.968c.263.657.525 1.444.525 2.626v8.924c-.13 1.182-.262 1.97-.525 2.625-.393.788-.656 1.313-1.312 1.97a5.73 5.73 0 01-1.969 1.312c-.656.262-1.444.525-2.625.525h-8.925c-1.181-.131-1.969-.263-2.625-.525-.787-.394-1.312-.657-1.969-1.313a5.73 5.73 0 01-1.312-1.969c-.263-.656-.525-1.443-.525-2.625v-8.924c.131-1.182.262-1.97.525-2.626.394-.787.656-1.312 1.312-1.968a5.732 5.732 0 011.97-1.313c.655-.262 1.443-.525 2.624-.525z"/></g></svg>