<svg width="66" height="66" fill="none" xmlns="http://www.w3.org/2000/svg"><path d="M55.182.137H25.178v40.53h40.51V10.624a10.499 10.499 0 00-3.08-7.427 10.472 10.472 0 00-7.426-3.06zm-39.357 0h-5.171A10.466 10.466 0 003.248 3.21a10.494 10.494 0 00-3.067 7.415v5.178h15.644V.137zM.18 25.168h15.645v15.664H.18V25.168zM50.175 65.73h5.171a10.461 10.461 0 007.417-3.083 10.488 10.488 0 003.056-7.436v-5.013H50.175v15.533zM25.178 50.198h15.644v15.665H25.178V50.198zm-24.998 0v5.178c0 2.78 1.104 5.448 3.068 7.415a10.466 10.466 0 007.406 3.072h5.17V50.198H.182z" fill="#fff"/></svg>