<svg width="43" height="42" fill="none" xmlns="http://www.w3.org/2000/svg"><g clip-path="url(#clip0_865_769)"><path d="M.286 3.008C.286 1.347 1.666 0 3.37 0h35.831c1.704 0 3.085 1.347 3.085 3.008v35.984c0 1.661-1.381 3.008-3.085 3.008H3.37C1.666 42 .286 40.653.286 38.992V3.008zM13.26 35.16V16.194H6.958v18.965h6.303zm-3.15-21.556c2.197 0 3.565-1.454 3.565-3.276-.04-1.861-1.365-3.276-3.523-3.276-2.158 0-3.567 1.417-3.567 3.276 0 1.822 1.367 3.276 3.483 3.276h.042zM22.993 35.16V24.567c0-.567.043-1.134.21-1.538.455-1.131 1.491-2.305 3.235-2.305 2.28 0 3.192 1.738 3.192 4.29v10.145h6.302V24.281c0-5.827-3.108-8.536-7.255-8.536-3.345 0-4.844 1.837-5.684 3.131v.066h-.041l.041-.066v-2.682h-6.3c.08 1.78 0 18.965 0 18.965h6.3z" fill="#000"/></g><defs><clipPath id="clip0_865_769"><path fill="#fff" d="M.286 0h42v42h-42z"/></clipPath></defs></svg>