<svg width="71" height="85" fill="none" xmlns="http://www.w3.org/2000/svg"><circle cx="28.13" cy="15.65" r="6.405" transform="rotate(-50.642 28.13 15.65)" fill="#C4C4C4"/><circle cx="28.13" cy="15.65" r="6.405" transform="rotate(-50.642 28.13 15.65)" fill="url(#paint0_radial_865_841)"/><circle cx="40.627" cy="36.199" r="6.132" transform="rotate(-50.642 40.627 36.199)" fill="#C4C4C4"/><circle cx="40.627" cy="36.199" r="6.132" transform="rotate(-50.642 40.627 36.199)" fill="url(#paint1_radial_865_841)"/><circle cx="53.736" cy="31.595" r="10.467" fill="#C4C4C4"/><circle cx="53.736" cy="31.595" r="10.467" fill="url(#paint2_radial_865_841)"/><path d="M1 72.656V29.984m0 42.672l49.112 10.869M1 72.655l18.92-28.581M1 29.984L19.92 1.403l49.113 10.869v43.074l-18.92 28.179M1 29.985l49.112 10.868 18.92-28.179m-18.92 70.85V40.452M19.92 44.074l49.113 10.87M19.92 44.073V1" stroke="#fff" stroke-width="2"/><circle cx="14.717" cy="52.961" r="7.173" transform="rotate(-50.642 14.717 52.96)" fill="#C4C4C4"/><circle cx="14.717" cy="52.961" r="7.173" transform="rotate(-50.642 14.717 52.96)" fill="url(#paint3_radial_865_841)"/><circle cx="36.828" cy="62.994" r="4.026" fill="#C4C4C4"/><circle cx="36.828" cy="62.994" r="4.026" fill="url(#paint4_radial_865_841)"/><defs><radialGradient id="paint0_radial_865_841" cx="0" cy="0" r="1" gradientUnits="userSpaceOnUse" gradientTransform="matrix(-4.39886 9.8076 -12.44715 -5.58275 31.872 11.784)"><stop stop-color="#E9B652"/><stop offset=".625" stop-color="#E29735"/><stop offset="1" stop-color="#E45B62"/></radialGradient><radialGradient id="paint1_radial_865_841" cx="0" cy="0" r="1" gradientUnits="userSpaceOnUse" gradientTransform="matrix(-4.21102 9.38879 -11.91557 -5.34433 44.21 32.497)"><stop stop-color="#D7325B"/><stop offset=".625" stop-color="#E35861"/><stop offset="1" stop-color="#E68851"/></radialGradient><radialGradient id="paint2_radial_865_841" cx="0" cy="0" r="1" gradientUnits="userSpaceOnUse" gradientTransform="matrix(-7.1879 16.02597 -20.3391 -9.12241 59.85 25.276)"><stop stop-color="#EB5323"/><stop offset=".625" stop-color="#811C5E"/><stop offset="1" stop-color="#300947"/></radialGradient><radialGradient id="paint3_radial_865_841" cx="0" cy="0" r="1" gradientUnits="userSpaceOnUse" gradientTransform="matrix(-4.92572 10.98225 -13.93797 -6.2514 18.908 48.63)"><stop stop-color="#3AACB4"/><stop offset=".625" stop-color="#804889"/><stop offset="1" stop-color="#A22451"/></radialGradient><radialGradient id="paint4_radial_865_841" cx="0" cy="0" r="1" gradientUnits="userSpaceOnUse" gradientTransform="rotate(114.157 -.017 42.966) scale(6.75543 8.57354)"><stop stop-color="#EF8634"/><stop offset=".625" stop-color="#8E9128"/><stop offset="1" stop-color="#467D57"/></radialGradient></defs></svg>