<svg width="74" height="70" fill="none" xmlns="http://www.w3.org/2000/svg"><g clip-path="url(#clip0_865_195)" stroke-width=".25" stroke-linecap="round" stroke-linejoin="round"><path d="M69.986.929L41.398 22.291l5.317-12.59L69.986.93zm-65.942 0l28.333 21.562L27.316 9.7 4.044.93zM59.692 50.46l-7.606 11.735 16.287 4.53 4.666-16.008-13.347-.257zm-58.673.257l4.637 16.007 16.26-4.529-7.579-11.735-13.318.257z" fill="#D8D9E0" stroke="#D8D9E0"/><path d="M21.039 30.636l-4.524 6.893 16.117.74-.537-17.516-11.056 9.883zm31.952.001L41.766 20.554l-.368 17.716 16.118-.74-4.525-6.893zM21.916 62.195l9.755-4.756-8.398-6.608-1.357 11.364zm20.444-4.756l9.727 4.756-1.33-11.364-8.397 6.608z" fill="#D8D9E0" stroke="#D8D9E0"/><path d="M52.087 62.196l-9.727-4.757.791 6.38-.084 2.706 9.02-4.33zm-30.171 0l9.049 4.33-.057-2.707.763-6.38-9.755 4.757z" fill="#707176" stroke="#707176"/><path d="M21.916 62.195l1.413-11.735-8.992.257 7.579 11.478zM50.701 50.46l1.386 11.735 7.606-11.478-8.992-.257zm6.815-12.93l-16.118.74 1.499 8.345 2.375-5.041 5.74 2.649 6.504-6.694zm-34.469 6.693l5.712-2.65 2.375 5.042 1.498-8.345-16.117-.74 6.532 6.693z" fill="#9CA2AF" stroke="#9CA2AF"/><path d="M16.515 37.53l6.758 13.3-.226-6.607-6.532-6.694zm34.498 6.693l-.255 6.608 6.758-13.302-6.503 6.694zm-18.38-5.953l-1.5 8.345 1.895 9.855.425-12.988-.82-5.212zm8.765 0l-.792 5.184.396 13.016 1.895-9.855-1.499-8.345z" fill="#D8D9E0" stroke="#D8D9E0"/><path d="M42.897 46.616l-1.895 9.855 1.357.968 8.399-6.608.254-6.608-8.115 2.393zm-19.851-2.393l.226 6.608 8.398 6.608 1.358-.968-1.895-9.855-8.087-2.393z" fill="#fff" stroke="#fff"/><path d="M43.067 66.525l.085-2.706-.735-.627H31.615l-.707.627.057 2.706-9.049-4.33 3.167 2.62 6.419 4.473h11l6.447-4.472 3.138-2.62-9.02 4.329z" fill="#4E4F57" stroke="#4E4F57"/><path d="M71.202 23.687l2.404-11.792L69.986.929 42.36 21.579l10.632 9.058 15.015 4.414 3.308-3.902-1.442-1.054 2.29-2.107-1.753-1.367 2.29-1.766-1.498-1.168zM.425 11.895l2.432 11.792-1.555 1.168L3.62 26.62l-1.754 1.368 2.29 2.107-1.441 1.054 3.308 3.902 15.015-4.415 10.632-9.057L4.045.93.425 11.895z" fill="#60626D" stroke="#60626D"/><path d="M68.007 35.051l-15.015-4.415 4.525 6.893-6.759 13.302 8.936-.114H73.04L68.007 35.05zm-46.968-4.414L6.024 35.05 1.019 50.717h13.318l8.936.114-6.758-13.302 4.524-6.893zm20.359 7.633l.962-16.691 4.354-11.877H27.316l4.355 11.877.961 16.69.368 5.242.028 12.96h7.974l.029-12.96.367-5.241z" fill="#fff" stroke="#fff"/></g><defs><clipPath id="clip0_865_195"><path fill="#fff" transform="translate(0 .5)" d="M0 0h74v69H0z"/></clipPath></defs></svg>