<svg width="62" height="94" fill="none" xmlns="http://www.w3.org/2000/svg"><path d="M1.436 53.901l2.232-.956L31 41.055l29.564 12.846L49.449 76.86l-27.15 3.826L1.892 58.64l-.456-4.74z" fill="#555762"/><path d="M54.414 39.78a30.353 30.353 0 00-19.36-10.705c-.182 0-.319-.046-.501-.046a30.899 30.899 0 00-7.106 0c-.182 0-.32.046-.501.046A30.353 30.353 0 007.586 39.78l-1.23 2.05-2.05 3.416-1.503 2.506c0 .09-.046.136-.092.182v.045l3.28 1.96 20.955 12.39L31 64.697v-29.61l-4.054 1.823v-4.419L31 30.67l4.054 1.822 20.59 9.339-1.23-2.05z" fill="#C42370"/><path d="M61.475 61.28A32.491 32.491 0 0149.54 86.29c-2.87 2.323-6.104 4.145-9.612 5.33a28.138 28.138 0 01-8.883 1.457C14.191 93.077.57 78.09.57 61.28c0-2.506.32-4.965.911-7.38l29.564 17.493L60.61 53.9c.547 2.415.866 4.874.866 7.38z" fill="#1C4D6B"/><path d="M27.447 28.984L31 30.624l-4.054 1.822v-3.644l.5.182zm-.501 7.926L31 35.042v29.61l-4.054-2.369V36.91z" fill="#000"/><path d="M31 35.042v29.61l28.334-16.718L31 35.042z" fill="#70727A"/><path d="M31 .923v34.12l28.334 12.89L31 .924z" fill="#9DA0B1"/><path d="M31 35.042v29.61l-4.054-2.369L2.71 47.933c0-.09.046-.136.092-.181l3.553-5.877 20.59-9.338V37L31 35.042z" fill="#343535"/><path d="M31 35.042v29.61l-4.054-2.369-24.234-14.35h-.046l.046-.045L26.946 36.91 31 35.042z" fill="#9497A5"/><path d="M31 .923v34.12L2.666 47.932 31 .924zm-11.48 89.74c.41.182.866.364 1.276.546-.41-.182-.82-.364-1.276-.546zm1.276.501c.41.182.865.319 1.32.455a15.105 15.105 0 01-1.32-.455zm2.46.82c.364.09.683.182 1.002.273l-1.002-.273zM1.436 53.901L31 71.394c-.41 2.642-1.093 5.238-2.141 7.744-2.369 5.74-7.152 11.752-16.4 7.151A32.583 32.583 0 01.526 61.235c0-2.46.319-4.92.911-7.334z" fill="#fff"/><path d="M49.449 86.335c-.182.137 0 0-.592.501l-.273.182-.41.274-.502.364c.502-.364-.41.273-.592.41a3.057 3.057 0 00-.5.319l-.32.228a1.386 1.386 0 00-.319.228s-.136.136-.182.136c.182-.136-.227.091-.41.228-.227.091-.41.182-.592.319l-.638.319-.273.136c-.182.091-.091 0-.273.137-.182.137-.41.182-.638.319-.228.136 0 0-.775.364.775-.364 0 0-.41.182.41-.182-.728.274-1.23.456-.182.046-1.184.365-1.366.41-.182.046-.41.137-.592.182-.365.091-.683.182-1.002.273-.137.046-.274.046-.365.092l-.227.045-.547.137c-.182.045-.319.045-.501.091s-.32.046-.456.091c-.136.046-.364.046-.5.091-.092 0-.183 0-.229.046l-.364.045h-.182c-.137 0-.274.046-.41.046-.137 0-.365.045-.547.045h-4.646c-.182 0-.365-.045-.547-.045-.137 0-.273 0-.41-.046h-.182c-.137 0-.273-.045-.364-.045-.092 0-.183 0-.228-.046-.183 0-.32-.045-.501-.09a1.62 1.62 0 01-.456-.092c-.137-.046-.319-.046-.501-.091l-.547-.137-.227-.045a.858.858 0 01-.365-.092c-.364-.09-.683-.182-1.002-.273l-.592-.182a2.565 2.565 0 01-.547-.182c-.455-.137-.865-.32-1.32-.456-.456-.136-.866-.364-1.276-.546a8.921 8.921 0 00-.638-.274c-.228-.09-.456-.182-.638-.319a2.455 2.455 0 01-.592-.318c-.182-.091-.41-.228-.592-.32a4.001 4.001 0 01-.456-.273c-.455-.273-.729-.455-.455-.273l-.274-.182-.5-.319-.183-.091-.455-.319c-.183-.137-.365-.228-.547-.364-.182-.137-.41-.274-.592-.41-.182-.137-.365-.32-.501-.41l-.183-.137c-.182-.091-.318-.228-.455-.364 9.247 4.6 13.985-1.504 16.354-7.198a35.553 35.553 0 002.14-7.744c.41 2.688 1.094 5.33 2.142 7.835 2.46 5.649 7.106 11.707 16.353 7.152z" fill="#D5D7DF"/><path d="M37.742 92.257c.364-.091.683-.182 1.002-.273l-1.002.273zm2.141-.637zm1.23-.41c.41-.183.956-.365 1.366-.593-.455.228-.956.41-1.366.592z" fill="#fff"/><path d="M61.475 61.28A32.492 32.492 0 0149.54 86.29c-9.247 4.6-14.03-1.458-16.399-7.152A35.55 35.55 0 0131 71.394L60.564 53.9c.592 2.415.911 4.874.911 7.38z" fill="#9DA0B1"/></svg>