<svg width="102" height="44" fill="none" xmlns="http://www.w3.org/2000/svg"><path fill-rule="evenodd" clip-rule="evenodd" d="M98.983 18.167H72.316v19.666h26.667V18.167zm-29.667-3v25.666h32.667V15.167H69.316z" fill="#fff"/><path fill-rule="evenodd" clip-rule="evenodd" d="M91.983 14.5V9.333a6.333 6.333 0 10-12.667 0V14.5h12.667zM85.65 0a9.333 9.333 0 00-9.334 9.333V17.5h18.667V9.333A9.333 9.333 0 0085.65 0z" fill="#fff"/><path d="M88.65 26a3 3 0 11-6 0 3 3 0 016 0z" fill="#fff"/><path fill-rule="evenodd" clip-rule="evenodd" d="M85.65 24c.552 0 1 .396 1 .885v7.23c0 .489-.448.885-1 .885-.553 0-1-.396-1-.885v-7.23c0-.489.447-.885 1-.885zm-68.5 2a3.5 3.5 0 100-7 3.5 3.5 0 000 7zm0 3a6.5 6.5 0 100-13 6.5 6.5 0 000 13zm45.378-7l-4.94-4.94 2.122-2.12L66.77 22l-7.06 7.06-2.121-2.12 4.94-4.94z" fill="#fff"/><path d="M20.17 3.072l-2.187-1.326-2.187 1.326a29.5 29.5 0 01-11.078 3.97L0 7.722 1.91 25.09a19.5 19.5 0 009.276 14.544l6.797 4.12 6.797-4.12a19.5 19.5 0 009.203-13.967H30.95a16.5 16.5 0 01-7.724 11.402l-5.242 3.177-5.242-3.177a16.5 16.5 0 01-7.849-12.307L3.3 10.278l1.848-.267A32.5 32.5 0 0017.35 5.637l.632-.383.632.383a32.501 32.501 0 0012.204 4.374l1.848.267-.923 8.389h3.018l1.204-10.944-4.718-.681a29.5 29.5 0 01-11.078-3.97z" fill="#fff"/><path fill-rule="evenodd" clip-rule="evenodd" d="M62.9 23.667H22.65v-3H62.9v3z" fill="#fff"/></svg>