<svg width="346" height="326" fill="none" xmlns="http://www.w3.org/2000/svg"><path d="M120.234 247.402l-34.852-63.916 73.073 2.039 34.852 63.915-73.073-2.038z" fill="#E48655"/><path d="M125.652 238.521l-34.706-63.916 73.073 2.039 34.706 63.77-73.073-1.893z" fill="#E48655"/><path opacity=".9" d="M159.626 183.486l-26.798-49.21 56.379 1.456 26.798 49.356-56.379-1.602zm56.379 1.602l-29.58 47.9-56.379-1.601 29.58-47.901 56.379 1.602zm-83.177-50.812l-29.58 47.9 26.798 49.211 29.58-47.901-26.798-49.21z" fill="#E48655"/><path opacity=".7" d="M130.046 231.387l-26.798-49.211 56.378 1.456 26.799 49.356-56.379-1.601z" fill="#E48655"/><path d="M198.725 240.414l-5.418 9.027-73.073-2.039 5.418-8.881 73.073 1.893z" fill="#E48655"/><path d="M90.947 174.605l-5.565 8.881 34.852 63.916 5.418-8.881-34.706-63.916z" fill="#E48655"/><path opacity=".7" d="M90.947 174.605l-5.565 8.881 34.852 63.916 5.418-8.881-34.706-63.916z" fill="#E48655"/><path d="M166.216 173.004l-34.852-63.916 73.073 2.038 34.706 63.916-72.927-2.038z" fill="#E48655"/><path d="M171.634 164.122l-34.706-63.915 72.927 2.038 34.852 63.77-73.073-1.893z" fill="#E48655"/><path opacity=".7" d="M171.634 164.122l-34.706-63.915 72.927 2.038 34.852 63.77-73.073-1.893z" fill="#E48655"/><path d="M244.707 166.015l-5.565 9.027-72.926-2.038 5.418-8.881 73.073 1.892z" fill="#E48655"/><path d="M136.928 100.207l-5.564 8.881 34.852 63.916 5.418-8.882-34.706-63.915z" fill="#E48655"/><path opacity=".7" d="M136.928 100.207l-5.564 8.881 34.852 63.916 5.418-8.882-34.706-63.915z" fill="#E48655"/><path opacity=".3" d="M166.216 173.004l-40.564 65.517-34.706-63.916 40.417-65.517 34.853 63.916z" fill="#E48655"/><path opacity=".3" d="M139.271 123.647l-36.023 58.529 26.798 49.211 56.379 1.601 36.17-58.528-56.379-1.456-26.945-49.357z" fill="#E48655"/><path opacity=".3" d="M166.216 173.004l-36.17 58.383-26.798-49.211 36.023-58.529 26.945 49.357z" fill="#E48655"/><path opacity=".5" d="M131.363 109.088l-40.417 65.517 34.706 63.916 73.073 1.893 40.417-65.372-72.926-2.038-34.853-63.916z" fill="#E48655"/><path d="M138.246 100.935l72.048 2.038-.439-.728-72.927-2.038 34.706 63.915h.879l-34.267-63.187z" fill="#E48655"/><path opacity=".5" d="M131.363 109.088l-40.417 65.517.44.874 40.563-65.518-.586-.873zm107.779 65.954l-40.417 65.372H197.7l40.564-65.518.878.146zm-72.926-2.038l-.879-1.456-40.417 65.517.732 1.456h1.757l40.564-65.517h-1.757z" fill="#E48655"/><path d="M160.798 323.548l-34.853-63.77 73.073 1.892 34.852 63.916-73.072-2.038z" fill="#E48655"/><path d="M166.362 314.666l-34.852-63.915 73.073 2.038 34.706 63.916-72.927-2.039z" fill="#E48655"/><g opacity=".9" fill="#E48655"><path opacity=".9" d="M200.19 259.778l-26.798-49.357 56.378 1.456 26.799 49.357-56.379-1.456zm56.378 1.456l-29.58 47.9-56.379-1.456 29.58-47.9 56.379 1.456z"/><path opacity=".9" d="M173.392 210.421l-29.581 47.901 26.798 49.356 29.581-47.9-26.798-49.357z"/></g><path opacity=".7" d="M170.609 307.678l-26.798-49.356 56.379 1.601 26.798 49.211-56.379-1.456z" fill="#E48655"/><path d="M239.288 316.705l-5.418 8.881-73.073-2.038 5.565-8.881 72.926 2.038z" fill="#E48655"/><path d="M131.51 250.751l-5.565 9.027 34.853 63.77 5.564-8.882-34.852-63.915z" fill="#E48655"/><path opacity=".7" d="M131.51 250.751l-5.565 9.027 34.853 63.77 5.564-8.882-34.852-63.915z" fill="#E48655"/><path d="M206.78 249.149l-34.853-63.77L245 187.272l34.852 63.916-73.072-2.039z" fill="#E48655"/><path d="M212.198 240.268l-34.706-63.916 73.073 2.039 34.706 63.915-73.073-2.038z" fill="#E48655"/><path opacity=".7" d="M212.198 240.268l-34.706-63.916 73.073 2.039 34.706 63.915-73.073-2.038z" fill="#E48655"/><path d="M285.27 242.306l-5.418 8.882-73.073-2.039 5.419-8.881 73.072 2.038z" fill="#E48655"/><path d="M177.492 176.352l-5.565 9.027 34.853 63.77 5.418-8.881-34.706-63.916z" fill="#E48655"/><path opacity=".7" d="M177.492 176.352l-5.565 9.027 34.853 63.77 5.418-8.881-34.706-63.916z" fill="#E48655"/><path opacity=".3" d="M206.779 249.149l-40.417 65.518-34.852-63.916 40.417-65.372 34.852 63.77z" fill="#E48655"/><path opacity=".3" d="M179.981 199.938l-36.17 58.384 26.798 49.356 56.379 1.456 36.17-58.383-56.378-1.602-26.799-49.211z" fill="#E48655"/><path opacity=".3" d="M206.78 249.149l-36.171 58.529-26.798-49.356 36.17-58.384 26.799 49.211z" fill="#E48655"/><path opacity=".5" d="M171.927 185.379l-40.417 65.372 34.852 63.916 72.927 2.038 40.563-65.517-73.073-2.039-34.852-63.77z" fill="#E48655"/><path d="M178.81 177.226l72.047 1.893-.292-.728-73.073-2.039 34.706 63.916h.878l-34.266-63.042z" fill="#E48655"/><path opacity=".5" d="M171.927 185.379l-40.417 65.372.439 1.019 40.564-65.517-.586-.874zm107.925 65.809l-40.563 65.517h-1.025l40.563-65.517h1.025zm-73.073-2.039l-.879-1.456-40.417 65.518.879 1.456 1.611.145 40.563-65.517-1.757-.146z" fill="#E48655"/><path d="M35.154 245.218L.3 181.303l73.073 2.038 34.706 63.77-72.926-1.893z" fill="#E48655"/><path d="M40.572 236.192L5.866 172.421l72.926 1.893 34.852 63.916-73.072-2.038z" fill="#E48655"/><g opacity=".9" fill="#E48655"><path opacity=".9" d="M74.546 181.303l-26.798-49.357 56.378 1.602 26.799 49.211-56.38-1.456z"/><path opacity=".9" d="M130.925 182.759l-29.581 47.9-56.379-1.456 29.58-47.9 56.38 1.456zm-83.177-50.813l-29.581 47.901 26.798 49.356 29.58-47.9-26.797-49.357z"/></g><path opacity=".7" d="M44.965 229.203l-26.798-49.356 56.379 1.601 26.798 49.211-56.379-1.456z" fill="#E48655"/><path d="M113.645 238.23l-5.565 8.881-72.926-1.893 5.418-9.026 73.073 2.038zM5.866 172.421L.3 181.303l34.853 63.915 5.418-9.027-34.706-63.77z" fill="#E48655"/><path opacity=".7" d="M5.866 172.421L.3 181.303l34.853 63.915 5.418-9.027-34.706-63.77z" fill="#E48655"/><path d="M81.136 170.82l-34.853-63.916 73.073 1.893 34.706 63.915-72.926-1.892z" fill="#E48655"/><path d="M86.554 161.793l-34.706-63.77 72.926 1.893 34.852 63.915-73.072-2.038z" fill="#E48655"/><path opacity=".7" d="M86.554 161.793l-34.706-63.77 72.926 1.893 34.852 63.915-73.072-2.038z" fill="#E48655"/><path d="M159.626 163.832l-5.564 8.881-72.927-1.893 5.418-9.027 73.073 2.039z" fill="#E48655"/><path d="M51.848 98.023l-5.565 8.881 34.853 63.916 5.418-9.027-34.706-63.77z" fill="#E48655"/><path opacity=".7" d="M51.848 98.023l-5.565 8.881 34.853 63.916 5.418-9.027-34.706-63.77z" fill="#E48655"/><path opacity=".3" d="M81.135 170.82l-40.563 65.371-34.706-63.77 40.417-65.517 34.852 63.916z" fill="#E48655"/><path opacity=".3" d="M54.19 121.464l-36.023 58.383 26.798 49.356 56.379 1.456 36.17-58.383-56.378-1.456-26.945-49.356z" fill="#E48655"/><path opacity=".3" d="M81.136 170.82l-36.17 58.383-26.799-49.356 36.024-58.383 26.945 49.356z" fill="#E48655"/><path opacity=".5" d="M46.283 106.904L5.866 172.421l34.706 63.77 73.072 2.039 40.418-65.518-72.927-1.892-34.852-63.916z" fill="#E48655"/><path d="M53.02 98.75l72.193 2.039-.439-.873-72.926-1.893 34.706 63.77.878.146L53.02 98.751z" fill="#E48655"/><path opacity=".5" d="M46.283 106.904L5.866 172.421l.439.874 40.417-65.517-.44-.874zm107.779 65.809l-40.417 65.517h-1.025l40.417-65.517h1.025zm-72.927-1.893l-.878-1.602-40.417 65.517.732 1.456 1.757.146 40.417-65.517h-1.61z" fill="#E48655"/><path d="M75.717 321.364l-34.852-63.916 73.073 2.039 34.705 63.77-72.926-1.893z" fill="#E48655"/><path d="M81.135 312.483L46.43 248.567l72.927 2.038 34.852 63.77-73.073-1.892z" fill="#E48655"/><g opacity=".9" fill="#E48655"><path opacity=".9" d="M115.11 257.448l-26.799-49.211 56.379 1.456 26.799 49.357-56.379-1.602zm56.378 1.602l-29.58 47.9-56.38-1.602 29.581-47.9 56.379 1.602z"/><path opacity=".9" d="M88.311 208.237l-29.58 47.901 26.798 49.21 29.58-47.9-26.798-49.211z"/></g><path opacity=".7" d="M85.529 305.348l-26.798-49.21 56.378 1.456 26.799 49.356-56.38-1.602z" fill="#E48655"/><path d="M154.208 314.375l-5.565 8.882-72.926-1.893 5.418-8.881 73.073 1.892zM46.43 248.567l-5.565 8.881 34.852 63.916 5.418-8.881-34.706-63.916z" fill="#E48655"/><path opacity=".7" d="M46.43 248.567l-5.565 8.881 34.852 63.916 5.418-8.881-34.706-63.916z" fill="#E48655"/><path d="M121.699 246.965L86.847 183.05l73.072 2.038 34.706 63.77-72.926-1.893z" fill="#E48655"/><path d="M127.117 238.084l-34.706-63.916 72.926 2.039 34.853 63.77-73.073-1.893z" fill="#E48655"/><path opacity=".7" d="M127.117 238.084l-34.706-63.916 72.926 2.039 34.853 63.77-73.073-1.893z" fill="#E48655"/><path d="M200.19 239.977l-5.565 8.881-72.926-1.893 5.418-8.881 73.073 1.893z" fill="#E48655"/><path d="M92.411 174.168l-5.564 8.882 34.852 63.915 5.418-8.881-34.706-63.916z" fill="#E48655"/><path opacity=".7" d="M92.411 174.168l-5.564 8.882 34.852 63.915 5.418-8.881-34.706-63.916z" fill="#E48655"/><path opacity=".3" d="M121.699 246.965l-40.564 65.518-34.706-63.916 40.417-65.517 34.853 63.915z" fill="#E48655"/><path opacity=".3" d="M94.754 197.609L58.73 256.138l26.799 49.211 56.379 1.601 36.17-58.529-56.379-1.456-26.945-49.356z" fill="#E48655"/><path opacity=".3" d="M121.699 246.965l-36.17 58.384-26.798-49.211 36.023-58.529 26.945 49.356z" fill="#E48655"/><path opacity=".5" d="M86.846 183.05L46.43 248.567l34.706 63.916 73.073 1.892 40.417-65.517-72.926-1.893-34.853-63.915z" fill="#E48655"/><path d="M93.583 174.896l72.194 2.039-.44-.728-72.926-2.039 34.706 63.916h.879l-34.413-63.188z" fill="#E48655"/><path opacity=".5" d="M86.846 183.05L46.43 248.567l.44.873 40.563-65.517-.586-.873zm107.779 65.808l-40.417 65.517h-1.025l40.564-65.517h.878zm-72.926-1.893l-.879-1.601-40.417 65.517.732 1.602h1.758l40.563-65.518h-1.757z" fill="#E48655"/><path d="M180.567 149.709l-34.706-63.916 72.927 2.038 34.852 63.77-73.073-1.892z" fill="#E48655"/><path d="M186.132 140.682l-34.852-63.77 73.073 1.893 34.852 63.915-73.073-2.038z" fill="#E48655"/><g opacity=".9" fill="#E48655"><path opacity=".9" d="M220.105 85.793l-26.944-49.356 56.378 1.601 26.945 49.211-56.379-1.456zm56.379 1.457l-29.58 48.045-56.379-1.601 29.58-47.9 56.379 1.455z"/><path opacity=".9" d="M193.161 36.437l-29.581 47.9 26.945 49.356 29.58-47.9-26.944-49.356z"/></g><path opacity=".7" d="M190.525 133.694L163.58 84.337l56.379 1.602 26.945 49.356-56.379-1.601z" fill="#E48655"/><path d="M259.205 142.72l-5.565 8.882-73.073-1.893 5.565-9.027 73.073 2.038z" fill="#E48655"/><path d="M151.28 76.912l-5.419 8.881 34.706 63.916 5.565-9.027-34.852-63.77z" fill="#E48655"/><path opacity=".7" d="M151.28 76.912l-5.419 8.881 34.706 63.916 5.565-9.027-34.852-63.77z" fill="#E48655"/><path d="M226.549 75.31l-34.706-63.916 72.927 1.893 34.852 63.916-73.073-1.893z" fill="#E48655"/><path d="M232.114 66.284l-34.853-63.77 73.073 1.892 34.706 63.916-72.926-2.038z" fill="#E48655"/><path opacity=".7" d="M232.114 66.284l-34.853-63.77 73.073 1.892 34.706 63.916-72.926-2.038z" fill="#E48655"/><path d="M305.04 68.322l-5.418 8.881-73.073-1.892 5.564-9.027 72.927 2.038z" fill="#E48655"/><path d="M197.261 2.513l-5.418 8.882 34.706 63.915 5.565-9.026-34.853-63.77z" fill="#E48655"/><path opacity=".7" d="M197.261 2.513l-5.418 8.882 34.706 63.915 5.565-9.026-34.853-63.77z" fill="#E48655"/><path opacity=".3" d="M226.549 75.31l-40.417 65.372-34.852-63.77 40.563-65.518 34.706 63.916z" fill="#E48655"/><path opacity=".3" d="M199.75 25.954l-36.17 58.383 26.945 49.357 56.379 1.601 36.023-58.529-56.378-1.456-26.799-49.356z" fill="#E48655"/><path opacity=".3" d="M226.549 75.31l-36.024 58.384-26.945-49.357 36.17-58.383 26.799 49.356z" fill="#E48655"/><path opacity=".5" d="M191.843 11.395L151.28 76.911l34.852 63.77 73.073 2.038 40.417-65.517-73.073-1.893-34.706-63.916z" fill="#E48655"/><path d="M198.579 3.241l72.194 2.039-.439-.874-73.073-1.893 34.853 63.77.878.146-34.413-63.188z" fill="#E48655"/><path opacity=".5" d="M191.843 11.395L151.28 76.911l.586.873 40.417-65.517-.44-.873zm107.779 65.808l-40.417 65.517h-1.025l40.417-65.517h1.025zm-73.073-1.893l-.732-1.601-40.564 65.517.879 1.456 1.757.146 40.417-65.518h-1.757z" fill="#E48655"/><path d="M221.13 225.854l-34.706-63.915 73.073 2.038 34.706 63.77-73.073-1.893z" fill="#E48655"/><path d="M226.695 216.973l-34.852-63.916 73.073 2.039 34.852 63.77-73.073-1.893z" fill="#E48655"/><g opacity=".9" fill="#E48655"><path opacity=".9" d="M260.668 161.939l-26.798-49.211 56.233 1.456 26.944 49.356-56.379-1.601z"/><path opacity=".9" d="M317.047 163.54l-29.58 47.901-56.379-1.602 29.58-47.9 56.379 1.601zm-83.177-50.812l-29.727 47.9 26.945 49.211 29.58-47.9-26.798-49.211z"/></g><path opacity=".7" d="M231.088 209.839l-26.945-49.211 56.379 1.456 26.945 49.357-56.379-1.602z" fill="#E48655"/><path d="M299.768 218.866l-5.565 8.881-73.073-1.893 5.565-8.881 73.073 1.893zm-107.925-65.809l-5.419 8.882 34.706 63.915 5.565-8.881-34.852-63.916z" fill="#E48655"/><path opacity=".7" d="M191.843 153.057l-5.419 8.882 34.706 63.915 5.565-8.881-34.852-63.916z" fill="#E48655"/><path d="M267.112 151.456L232.406 87.54l72.927 2.039 34.852 63.77-73.073-1.893z" fill="#E48655"/><path d="M272.676 142.575l-34.852-63.916 73.073 2.038 34.852 63.77-73.073-1.892z" fill="#E48655"/><path opacity=".7" d="M272.676 142.575l-34.852-63.916 73.073 2.038 34.852 63.77-73.073-1.892z" fill="#E48655"/><path d="M345.749 144.467l-5.564 8.882-73.073-1.893 5.564-8.881 73.073 1.892z" fill="#E48655"/><path d="M237.825 78.659l-5.419 8.881 34.706 63.916 5.565-8.881-34.852-63.916z" fill="#E48655"/><path opacity=".7" d="M237.825 78.659l-5.419 8.881 34.706 63.916 5.565-8.881-34.852-63.916z" fill="#E48655"/><path opacity=".3" d="M267.112 151.456l-40.417 65.517-34.852-63.915 40.563-65.518 34.706 63.916z" fill="#E48655"/><path opacity=".3" d="M240.313 102.1l-36.17 58.528 26.945 49.211 56.379 1.602 36.023-58.529-56.378-1.456-26.799-49.356z" fill="#E48655"/><path opacity=".3" d="M267.112 151.456l-36.024 58.383-26.945-49.211 36.17-58.528 26.799 49.356z" fill="#E48655"/><path opacity=".5" d="M232.406 87.54l-40.563 65.518 34.852 63.915 73.073 1.893 40.417-65.517-73.073-1.893-34.706-63.916z" fill="#E48655"/><path d="M239.142 79.387l72.194 2.038-.439-.728-73.073-2.038 34.852 63.916h.879l-34.413-63.188z" fill="#E48655"/><path opacity=".5" d="M232.406 87.54l-40.563 65.518.586.873 40.417-65.517-.44-.874zm107.779 65.809l-40.417 65.517h-1.025l40.417-65.517h1.025zm-73.073-1.893l-.732-1.602-40.564 65.517.879 1.602h1.757l40.417-65.517h-1.757z" fill="#E48655"/><path d="M95.486 147.379L60.78 83.609l72.927 1.893 34.852 63.916-73.073-2.039z" fill="#E48655"/><path d="M101.051 138.498L66.199 74.582l73.073 2.039 34.705 63.915-72.926-2.038z" fill="#E48655"/><g opacity=".9" fill="#E48655"><path opacity=".9" d="M135.024 83.61L108.08 34.252l56.378 1.456 26.945 49.356-56.379-1.456zm56.379 1.455l-29.727 47.901-56.232-1.456 29.58-47.9 56.379 1.455z"/><path opacity=".9" d="M108.08 34.253l-29.581 47.9 26.945 49.357 29.58-47.9-26.944-49.357z"/></g><path opacity=".7" d="M105.444 131.51L78.499 82.153l56.379 1.456 26.798 49.357-56.232-1.456z" fill="#E48655"/><path d="M173.977 140.536l-5.418 8.882-73.073-2.039 5.565-8.881 72.926 2.038z" fill="#E48655"/><path d="M66.198 74.582L60.78 83.61l34.706 63.77 5.565-8.881-34.853-63.916z" fill="#E48655"/><path opacity=".7" d="M66.198 74.582L60.78 83.61l34.706 63.77 5.565-8.881-34.853-63.916z" fill="#E48655"/><path d="M141.468 72.98L106.762 9.066l72.927 2.038 34.852 63.916-73.073-2.038z" fill="#E48655"/><path d="M147.033 64.1L112.18.184l73.073 2.038 34.706 63.916-72.926-2.038z" fill="#E48655"/><path opacity=".7" d="M147.033 64.1L112.18.184l73.073 2.038 34.706 63.916-72.926-2.038z" fill="#E48655"/><path d="M219.959 66.138l-5.418 8.881-73.073-2.038 5.564-8.881 72.927 2.038z" fill="#E48655"/><path d="M112.18.184l-5.418 8.881 34.706 63.916 5.565-8.881L112.18.184z" fill="#E48655"/><path opacity=".7" d="M112.18.184l-5.418 8.881 34.706 63.916 5.565-8.881L112.18.184z" fill="#E48655"/><path opacity=".3" d="M141.468 72.98l-40.417 65.518-34.852-63.916 40.563-65.517 34.706 63.916z" fill="#E48655"/><path opacity=".3" d="M114.669 23.625l-36.17 58.528 26.945 49.357 56.232 1.455 36.17-58.383-56.378-1.601-26.799-49.356z" fill="#E48655"/><path opacity=".3" d="M141.468 72.98l-36.024 58.53-26.945-49.357 36.17-58.529 26.799 49.357z" fill="#E48655"/><path opacity=".5" d="M106.762 9.065L66.199 74.582l34.852 63.916 72.926 2.038 40.564-65.517-73.073-2.038-34.706-63.916z" fill="#E48655"/><path d="M113.498 1.057l72.194 1.893-.439-.728L112.18.184 147.033 64.1h.878L113.498 1.057z" fill="#E48655"/><path opacity=".5" d="M106.762 9.065L66.199 74.582l.439.874 40.564-65.372-.44-1.02zm107.779 65.954l-40.564 65.517-.878-.145 40.417-65.372h1.025zm-73.073-2.039l-.732-1.455-40.564 65.517.879 1.456h1.611l40.563-65.517h-1.757z" fill="#E48655"/><path d="M136.05 223.525l-34.706-63.77 72.926 1.892 34.852 63.916-73.072-2.038z" fill="#E48655"/><path d="M141.615 214.644l-34.853-63.77 73.073 1.892 34.706 63.916-72.926-2.038z" fill="#E48655"/><g opacity=".9" fill="#E48655"><path opacity=".9" d="M175.588 159.755l-26.945-49.357L205.022 112l26.945 49.211-56.379-1.456z"/><path opacity=".9" d="M231.967 161.211l-29.581 47.9-56.379-1.456 29.581-47.9 56.379 1.456zm-83.324-50.813l-29.581 47.901 26.945 49.356 29.581-47.9-26.945-49.357z"/></g><path opacity=".7" d="M146.007 207.655l-26.945-49.356 56.379 1.601 26.945 49.211-56.379-1.456z" fill="#E48655"/><path d="M214.541 216.682l-5.418 8.881-73.073-2.038 5.564-8.881 72.927 2.038z" fill="#E48655"/><path d="M106.762 150.874l-5.418 8.881 34.706 63.77 5.564-8.881-34.852-63.77z" fill="#E48655"/><path opacity=".7" d="M106.762 150.874l-5.418 8.881 34.706 63.77 5.564-8.881-34.852-63.77z" fill="#E48655"/><path d="M182.032 149.126l-34.706-63.77 72.926 1.893 34.852 63.916-73.072-2.039z" fill="#E48655"/><path d="M187.596 140.245l-34.852-63.77 73.072 1.893 34.706 63.915-72.926-2.038z" fill="#E48655"/><path opacity=".7" d="M187.596 140.245l-34.852-63.77 73.072 1.893 34.706 63.915-72.926-2.038z" fill="#E48655"/><path d="M260.522 142.283l-5.418 8.882-73.073-2.039 5.565-8.881 72.926 2.038z" fill="#E48655"/><path d="M152.744 76.475l-5.418 8.881 34.706 63.77 5.564-8.881-34.852-63.77z" fill="#E48655"/><path opacity=".7" d="M152.744 76.475l-5.418 8.881 34.706 63.77 5.564-8.881-34.852-63.77z" fill="#E48655"/><path opacity=".3" d="M182.032 149.126l-40.417 65.518-34.853-63.771 40.564-65.517 34.706 63.77z" fill="#E48655"/><path opacity=".3" d="M155.233 99.916l-36.171 58.383 26.945 49.356 56.379 1.456 36.024-58.383-56.379-1.602-26.798-49.21z" fill="#E48655"/><path opacity=".3" d="M182.031 149.126l-36.024 58.529-26.945-49.356 36.171-58.383 26.798 49.21z" fill="#E48655"/><path opacity=".5" d="M147.326 85.356l-40.564 65.517 34.853 63.771 72.926 2.038 40.563-65.517-73.072-2.039-34.706-63.77z" fill="#E48655"/><path d="M154.062 77.203l72.194 1.893-.44-.728-73.072-1.893 34.852 63.77h.879l-34.413-63.042z" fill="#E48655"/><path opacity=".5" d="M147.326 85.356l-40.564 65.517.586.874 40.417-65.517-.439-.874zm107.778 65.809l-40.563 65.517h-.879l40.417-65.517h1.025zm-73.072-2.039l-.733-1.456-40.563 65.518.878 1.456 1.758.145 40.417-65.517-1.757-.146z" fill="#E48655"/></svg>