<svg width="43" height="42" fill="none" xmlns="http://www.w3.org/2000/svg"><path fill-rule="evenodd" clip-rule="evenodd" d="M6.848 0h28.875a6.562 6.562 0 016.563 6.563v28.875A6.562 6.562 0 0135.723 42H6.848a6.562 6.562 0 01-6.562-6.563V6.564A6.563 6.563 0 016.848 0zm15.346 15.76c-1.881.782-5.64 2.401-11.277 4.857-.916.364-1.395.72-1.439 1.069-.074.588.663.82 1.667 1.135l.423.135c.987.32 2.315.696 3.006.711.626.014 1.325-.245 2.097-.775 5.267-3.555 7.986-5.352 8.156-5.39.12-.028.287-.062.4.038.114.1.102.291.09.342-.072.311-2.965 3-4.462 4.392-.467.434-.798.742-.866.812-.151.158-.306.307-.454.45-.918.884-1.605 1.547.038 2.63.79.52 1.421.95 2.052 1.38.688.469 1.375.936 2.263 1.519.227.148.443.302.653.452.802.572 1.521 1.085 2.41 1.003.517-.048 1.051-.534 1.322-1.983.64-3.424 1.9-10.844 2.19-13.902a3.414 3.414 0 00-.032-.761c-.025-.15-.08-.365-.275-.524-.231-.188-.59-.228-.749-.225-.727.013-1.843.401-7.213 2.635z" fill="#000"/></svg>