<svg width="48" height="44" fill="none" xmlns="http://www.w3.org/2000/svg"><path d="M47.286 7.008a19.757 19.757 0 01-5.569 1.565 9.817 9.817 0 004.252-5.479 19.025 19.025 0 01-6.129 2.4c-1.774-1.937-4.302-3.137-7.06-3.137-5.35 0-9.658 4.454-9.658 9.915 0 .786.065 1.541.224 2.26-8.035-.401-15.144-4.351-19.92-10.368a10.176 10.176 0 00-1.324 5.01c0 3.434 1.724 6.477 4.293 8.238-1.552-.03-3.076-.492-4.366-1.22v.108c0 4.817 3.35 8.819 7.743 9.74a9.419 9.419 0 01-2.534.326c-.619 0-1.243-.036-1.83-.169 1.253 3.926 4.806 6.812 9.031 6.905A19.113 19.113 0 012.456 37.33a17.66 17.66 0 01-2.313-.136 26.717 26.717 0 0014.826 4.449c17.785 0 27.508-15.11 27.508-28.208 0-.438-.014-.86-.035-1.28 1.918-1.397 3.53-3.14 4.844-5.147z" fill="#000"/></svg>