<svg width="28" height="28" fill="none" xmlns="http://www.w3.org/2000/svg"><g clip-path="url(#clip0_865_121)"><path fill-rule="evenodd" clip-rule="evenodd" d="M14 28c7.758 0 14-6.242 14-14S21.758 0 14 0 0 6.242 0 14s6.242 14 14 14zm3.85-11.783c0-2.042-1.225-2.742-3.675-3.034-1.75-.233-2.1-.7-2.1-1.516 0-.817.583-1.342 1.75-1.342 1.05 0 1.633.35 1.925 1.225a.439.439 0 00.408.292h.934a.399.399 0 00.408-.409v-.058a2.914 2.914 0 00-2.625-2.392v-1.4c0-.233-.175-.408-.467-.466h-.875c-.233 0-.408.175-.466.466v1.342c-1.75.233-2.859 1.4-2.859 2.858 0 1.925 1.167 2.684 3.617 2.975 1.633.292 2.158.642 2.158 1.575 0 .934-.816 1.575-1.925 1.575-1.516 0-2.041-.641-2.216-1.516-.059-.234-.234-.35-.409-.35h-.991a.399.399 0 00-.409.408v.058c.234 1.459 1.167 2.509 3.092 2.8v1.4c0 .234.175.409.467.467h.875c.233 0 .408-.175.466-.467v-1.4c1.75-.291 2.917-1.516 2.917-3.091zM5.833 11.142c-1.691 4.491.642 9.566 5.192 11.2.175.116.35.35.35.525v.816c0 .117 0 .175-.058.234-.059.233-.292.35-.525.233a10.494 10.494 0 01-6.825-6.825C2.217 11.783 5.25 5.892 10.792 4.142c.058-.059.175-.059.233-.059.233.059.35.234.35.467v.817c0 .291-.117.466-.35.583-2.392.875-4.317 2.742-5.192 5.192zm10.85-6.767c.059-.233.292-.35.525-.233a10.58 10.58 0 016.825 6.883c1.75 5.542-1.283 11.433-6.825 13.183-.058.059-.175.059-.233.059-.233-.059-.35-.234-.35-.467v-.817c0-.291.117-.466.35-.583 2.392-.875 4.317-2.742 5.192-5.192 1.691-4.491-.642-9.566-5.192-11.2-.175-.116-.35-.35-.35-.583v-.817c0-.116 0-.175.058-.233z" fill="#fff"/></g><defs><clipPath id="clip0_865_121"><path fill="#fff" d="M0 0h28v28H0z"/></clipPath></defs></svg>