<svg width="28" height="28" fill="none" xmlns="http://www.w3.org/2000/svg"><path d="M16.45 10.126V7.147h7.014V2.513H4.301v4.634h7.014v2.99c-5.666.29-9.91 1.478-9.91 2.898 0 1.421 4.244 2.608 9.91 2.898v9.284a13.4 13.4 0 002.685.27c.837 0 1.656-.077 2.45-.225v-9.318c5.783-.268 10.145-1.468 10.145-2.909 0-1.44-4.362-2.64-10.145-2.909zM14 14.866c-6.32 0-11.443-.952-11.443-2.126 0-1.003 3.734-1.844 8.758-2.068v3.406a17.994 17.994 0 005.135 0v-3.416c5.142.208 8.992 1.059 8.992 2.078 0 1.174-5.123 2.127-11.442 2.127z" fill="#fff"/></svg>