<svg width="43" height="42" fill="none" xmlns="http://www.w3.org/2000/svg"><g fill="#000"><path fill-rule="evenodd" clip-rule="evenodd" d="M.286 6.563A6.563 6.563 0 016.848 0h28.875a6.562 6.562 0 016.563 6.563v28.875A6.562 6.562 0 0135.723 42H6.848a6.562 6.562 0 01-6.562-6.563V6.564zm11.97 5.407c-1.47 1.484-1.47 3.857-1.47 8.61v.84c0 4.746 0 7.119 1.47 8.61 1.484 1.47 3.857 1.47 8.61 1.47h.84c4.746 0 7.119 0 8.61-1.47 1.47-1.484 1.47-3.857 1.47-8.61v-.84c0-4.746 0-7.119-1.47-8.61-1.484-1.47-3.857-1.47-8.61-1.47h-.84c-4.746 0-7.12 0-8.61 1.47z"/><path d="M21.958 25.627c-4.788 0-7.518-3.276-7.63-8.736h2.408c.077 4.004 1.84 5.698 3.24 6.048v-6.048h2.262v3.451c1.379-.147 2.835-1.722 3.325-3.458h2.254a6.67 6.67 0 01-3.066 4.361 6.908 6.908 0 013.59 4.382h-2.484c-.532-1.659-1.862-2.947-3.62-3.122v3.122h-.28z"/></g></svg>