<svg width="72" height="72" fill="none" xmlns="http://www.w3.org/2000/svg"><g filter="url(#filter0_dd_865_247)" clip-path="url(#clip0_865_247)"><path d="M.685.108H71.46v71.77H.685V.109z" fill="#60626D"/><path fill-rule="evenodd" clip-rule="evenodd" d="M11.457 36.014c0 13.797 11.03 24.982 24.636 24.982 13.605 0 24.635-11.185 24.635-24.983 0-13.797-11.03-24.981-24.635-24.981-13.606 0-24.636 11.184-24.636 24.982zm18.34-8.05c-.907 0-1.642.745-1.642 1.665v12.769c0 .92.735 1.665 1.642 1.665h12.591c.907 0 1.643-.745 1.643-1.665V29.629c0-.92-.736-1.665-1.643-1.665H29.797z" fill="#fff"/></g><defs><clipPath id="clip0_865_247"><rect x=".5" width="71" height="72" rx="21" fill="#fff"/></clipPath><filter id="filter0_dd_865_247" x="-23.315" y="-7.892" width="118.774" height="119.771" filterUnits="userSpaceOnUse" color-interpolation-filters="sRGB"><feFlood flood-opacity="0" result="BackgroundImageFix"/><feColorMatrix in="SourceAlpha" values="0 0 0 0 0 0 0 0 0 0 0 0 0 0 0 0 0 0 127 0" result="hardAlpha"/><feOffset dy="16"/><feGaussianBlur stdDeviation="12"/><feColorMatrix values="0 0 0 0 0 0 0 0 0 0 0 0 0 0 0 0 0 0 0.06 0"/><feBlend in2="BackgroundImageFix" result="effect1_dropShadow_865_247"/><feColorMatrix in="SourceAlpha" values="0 0 0 0 0 0 0 0 0 0 0 0 0 0 0 0 0 0 127 0" result="hardAlpha"/><feOffset/><feGaussianBlur stdDeviation="4"/><feColorMatrix values="0 0 0 0 0 0 0 0 0 0 0 0 0 0 0 0 0 0 0.04 0"/><feBlend in2="effect1_dropShadow_865_247" result="effect2_dropShadow_865_247"/><feBlend in="SourceGraphic" in2="effect2_dropShadow_865_247" result="shape"/></filter></defs></svg>