<svg width="84" height="52" fill="none" xmlns="http://www.w3.org/2000/svg"><g clip-path="url(#clip0_865_229)"><path d="M17.203 10.19c13.695-13.46 35.9-13.46 49.594 0l1.649 1.62a1.703 1.703 0 010 2.438l-5.639 5.542a.888.888 0 01-1.24 0L59.3 17.56c-9.554-9.39-25.044-9.39-34.598 0l-2.429 2.388a.888.888 0 01-1.24 0l-5.638-5.542a1.702 1.702 0 010-2.437l1.809-1.778zm61.255 11.462l5.018 4.932a1.702 1.702 0 010 2.437l-22.627 22.24a1.775 1.775 0 01-2.48 0L42.31 35.475a.444.444 0 00-.62 0L25.632 51.26a1.775 1.775 0 01-2.48 0L.524 29.02a1.703 1.703 0 010-2.436l5.018-4.933a1.775 1.775 0 012.48 0l16.06 15.785a.444.444 0 00.62 0L40.76 21.65a1.775 1.775 0 012.48 0L59.3 37.436a.444.444 0 00.62 0l16.058-15.784a1.775 1.775 0 012.48 0z" fill="#fff"/></g><defs><clipPath id="clip0_865_229"><path fill="#fff" d="M0 0h84v52H0z"/></clipPath></defs></svg>