<svg width="106" height="106" viewBox="0 0 106 106" fill="none" xmlns="http://www.w3.org/2000/svg">
<path d="M33.2584 17.7141C27.9228 19.4214 22.5518 21.1288 21.2889 21.5201L19.0303 22.2494V37.9359C19.0303 47.3265 19.1014 54.4049 19.2081 55.5788C19.9907 63.7957 23.5478 71.5856 29.488 78.0595C30.8397 79.5356 52.2886 98.2279 52.8935 98.4589C53.1423 98.548 71.9947 82.4701 75.0894 79.5178C80.4604 74.4135 84.6578 66.9437 86.1518 59.794C86.9343 56.0235 86.9877 54.6184 86.9343 37.9003L86.8809 22.1782L74.8047 18.3721C68.1708 16.2912 62.7108 14.6016 62.6751 14.6194C62.6575 14.655 63.6535 16.6292 64.9162 19.0302L67.2104 23.3876L70.6429 24.4902C72.5283 25.0949 75.3739 26.002 76.9745 26.5L79.8736 27.4069L79.8024 41.8486C79.749 55.721 79.7314 56.3615 79.3756 57.9799C78.0239 64.0802 75.2317 69.2557 70.9455 73.6308C70.1272 74.4667 65.9656 78.1483 61.7148 81.7943C57.4642 85.458 53.7648 88.6416 53.4981 88.8905L53.0357 89.3175L44.8722 82.2922C34.8947 73.6842 33.4007 72.2258 31.0176 68.5621C29.1857 65.7342 27.834 62.6928 27.0159 59.5449C26.2156 56.3437 26.1444 55.152 26.1444 40.8882V27.4247L28.6877 26.6244C30.0748 26.1799 32.9205 25.2727 35.0015 24.6147C37.0645 23.9566 38.7719 23.352 38.7719 23.2986C38.7719 23.2454 39.7679 21.2888 40.995 18.959C42.2222 16.6114 43.2182 14.6728 43.2182 14.6372C43.2182 14.5305 43.0047 14.6016 33.2584 17.7141Z" fill="white"/>
<path d="M52.5379 15.153C52.3779 15.4731 47.896 24.0279 42.596 34.1477L32.9565 52.5554L33.0988 54.0494C33.4189 57.1083 34.5571 60.3454 36.4068 63.2799C37.0649 64.3469 37.2606 64.5426 37.4384 64.3469C37.5451 64.2224 41.0666 57.5707 45.2638 49.5675C49.4434 41.5819 52.9115 35.0368 52.9827 35.0368C53.0359 35.0368 56.5574 41.5107 60.7902 49.4074C65.0232 57.304 68.5624 63.9023 68.6692 64.0802C68.8471 64.3825 68.8825 64.3647 69.1672 63.9914C70.9991 61.5902 72.5109 57.6241 72.9376 54.1204L73.1511 52.3419L63.0491 33.5074C57.5 23.1563 52.9293 14.6372 52.8937 14.6195C52.8759 14.5839 52.7158 14.8151 52.5379 15.153Z" fill="white"/>
<path d="M48.0202 60.4523L43.1294 70.2164L45.886 72.6175C47.3978 73.9336 49.6208 75.8365 50.8125 76.8325L53.0001 78.6466L53.4803 78.2552C53.7648 78.042 55.9524 76.1388 58.3535 74.0224L62.7464 70.1808L57.8734 60.4345C55.1877 55.0813 52.9823 50.6882 52.9467 50.6882C52.9291 50.6882 50.7058 55.0813 48.0202 60.4523Z" fill="white"/>
</svg>
