<svg width="39" height="158" viewBox="0 0 39 158" fill="none" xmlns="http://www.w3.org/2000/svg">
<path id="Vector 18" d="M2.0843 121.516L3.38327 121.547L3.38365 121.531V121.516H2.0843ZM38.4357 148.693C38.9432 148.185 38.9432 147.363 38.4357 146.855L30.1667 138.586C29.6593 138.079 28.8366 138.079 28.3292 138.586C27.8218 139.094 27.8218 139.916 28.3292 140.424L35.6794 147.774L28.3292 155.124C27.8218 155.632 27.8218 156.454 28.3292 156.962C28.8366 157.469 29.6593 157.469 30.1667 156.962L38.4357 148.693ZM0.784956 0.981445V121.516H3.38365V0.981445H0.784956ZM0.785333 121.484C0.672379 126.172 2.4237 133.084 7.96685 138.829C13.5388 144.604 22.8156 149.073 37.517 149.073V146.475C23.366 146.475 14.8211 142.191 9.837 137.025C4.82417 131.829 3.28532 125.612 3.38327 121.547L0.785333 121.484Z" fill="url(#paint0_linear_865_1932)"/>
<defs>
<linearGradient id="paint0_linear_865_1932" x1="1.76786" y1="1.29781" x2="37.8332" y2="148.09" gradientUnits="userSpaceOnUse">
<stop stop-color="#E27957"/>
<stop offset="1" stop-color="#DD475E"/>
</linearGradient>
</defs>
</svg>
