<svg width="46" height="331" viewBox="0 0 46 331" fill="none" xmlns="http://www.w3.org/2000/svg">
<path d="M36.9717 7.94563C37.3544 7.56293 37.3544 6.94245 36.9717 6.55975L30.7353 0.323283C30.3526 -0.0594168 29.7321 -0.0594172 29.3494 0.323283C28.9667 0.705983 28.9667 1.32646 29.3494 1.70916L34.8929 7.25269L29.3494 12.7962C28.9667 13.1789 28.9667 13.7994 29.3494 14.1821C29.7321 14.5648 30.3526 14.5648 30.7353 14.1821L36.9717 7.94563ZM45.7375 328.681C38.3925 328.789 27.3834 327.238 18.2492 322.283C9.164 317.354 1.98003 309.099 1.98003 295.689H0.0200958C0.0200958 309.979 7.75337 318.819 17.3147 324.006C26.8271 329.166 38.1939 330.752 45.7661 330.641L45.7375 328.681ZM1.98003 295.689C1.98003 295.541 1.98003 295.392 1.98003 295.243C1.98003 295.095 1.98003 294.946 1.98003 294.796C1.98003 294.647 1.98003 294.497 1.98003 294.347C1.98003 294.197 1.98003 294.047 1.98003 293.896C1.98003 293.745 1.98003 293.594 1.98003 293.443C1.98003 293.292 1.98003 293.14 1.98003 292.988C1.98003 292.837 1.98003 292.685 1.98003 292.532C1.98003 292.38 1.98003 292.227 1.98003 292.074C1.98003 291.921 1.98003 291.768 1.98003 291.614C1.98003 291.461 1.98003 291.307 1.98003 291.153C1.98003 290.998 1.98003 290.844 1.98003 290.689C1.98003 290.534 1.98003 290.379 1.98003 290.224C1.98003 290.069 1.98003 289.913 1.98003 289.757C1.98003 289.602 1.98003 289.445 1.98003 289.289C1.98003 289.132 1.98003 288.976 1.98003 288.819C1.98003 288.662 1.98003 288.504 1.98003 288.347C1.98003 288.189 1.98003 288.031 1.98003 287.873C1.98003 287.715 1.98003 287.557 1.98003 287.398C1.98003 287.24 1.98003 287.081 1.98003 286.921C1.98003 286.762 1.98003 286.603 1.98003 286.443C1.98003 286.283 1.98003 286.123 1.98003 285.963C1.98003 285.802 1.98003 285.642 1.98003 285.481C1.98003 285.32 1.98003 285.159 1.98003 284.998C1.98003 284.836 1.98003 284.674 1.98003 284.513C1.98003 284.351 1.98003 284.188 1.98003 284.026C1.98003 283.864 1.98003 283.701 1.98003 283.538C1.98003 283.375 1.98003 283.212 1.98003 283.048C1.98003 282.885 1.98003 282.721 1.98003 282.557C1.98003 282.393 1.98003 282.228 1.98003 282.064C1.98003 281.899 1.98003 281.734 1.98003 281.569C1.98003 281.404 1.98003 281.239 1.98003 281.073C1.98003 280.908 1.98003 280.742 1.98003 280.576C1.98003 280.41 1.98003 280.243 1.98003 280.077C1.98003 279.91 1.98003 279.743 1.98003 279.576C1.98003 279.409 1.98003 279.242 1.98003 279.074C1.98003 278.906 1.98003 278.739 1.98003 278.57C1.98003 278.402 1.98003 278.234 1.98003 278.065C1.98003 277.897 1.98003 277.728 1.98003 277.559C1.98003 277.39 1.98003 277.22 1.98003 277.051C1.98003 276.881 1.98003 276.711 1.98003 276.541C1.98003 276.371 1.98003 276.201 1.98003 276.03C1.98003 275.86 1.98003 275.689 1.98003 275.518C1.98003 275.347 1.98003 275.176 1.98003 275.004C1.98003 274.833 1.98003 274.661 1.98003 274.489C1.98003 274.317 1.98003 274.145 1.98003 273.972C1.98003 273.8 1.98003 273.627 1.98003 273.454C1.98003 273.281 1.98003 273.108 1.98003 272.935C1.98003 272.762 1.98003 272.588 1.98003 272.414C1.98003 272.24 1.98003 272.066 1.98003 271.892C1.98003 271.718 1.98003 271.543 1.98003 271.368C1.98003 271.194 1.98003 271.019 1.98003 270.843C1.98003 270.668 1.98003 270.493 1.98003 270.317C1.98003 270.142 1.98003 269.966 1.98003 269.79C1.98003 269.614 1.98003 269.437 1.98003 269.261C1.98003 269.084 1.98003 268.907 1.98003 268.73C1.98003 268.553 1.98003 268.376 1.98003 268.199C1.98003 268.021 1.98003 267.844 1.98003 267.666C1.98003 267.488 1.98003 267.31 1.98003 267.132C1.98003 266.954 1.98003 266.775 1.98003 266.596C1.98003 266.418 1.98003 266.239 1.98003 266.06C1.98003 265.881 1.98003 265.701 1.98003 265.522C1.98003 265.342 1.98003 265.162 1.98003 264.983C1.98003 264.803 1.98003 264.622 1.98003 264.442C1.98003 264.262 1.98003 264.081 1.98003 263.9C1.98003 263.72 1.98003 263.539 1.98003 263.357C1.98003 263.176 1.98003 262.995 1.98003 262.813C1.98003 262.632 1.98003 262.45 1.98003 262.268C1.98003 262.086 1.98003 261.904 1.98003 261.721C1.98003 261.539 1.98003 261.356 1.98003 261.174C1.98003 260.991 1.98003 260.808 1.98003 260.625C1.98003 260.442 1.98003 260.258 1.98003 260.075C1.98003 259.891 1.98003 259.707 1.98003 259.523C1.98003 259.339 1.98003 259.155 1.98003 258.971C1.98003 258.787 1.98003 258.602 1.98003 258.417C1.98003 258.233 1.98003 258.048 1.98003 257.863C1.98003 257.678 1.98003 257.492 1.98003 257.307C1.98003 257.121 1.98003 256.936 1.98003 256.75C1.98003 256.564 1.98003 256.378 1.98003 256.192C1.98003 256.006 1.98003 255.819 1.98003 255.633C1.98003 255.446 1.98003 255.26 1.98003 255.073C1.98003 254.886 1.98003 254.699 1.98003 254.511C1.98003 254.324 1.98003 254.137 1.98003 253.949C1.98003 253.761 1.98003 253.574 1.98003 253.386C1.98003 253.198 1.98003 253.01 1.98003 252.821C1.98003 252.633 1.98003 252.444 1.98003 252.256C1.98003 252.067 1.98003 251.878 1.98003 251.689C1.98003 251.5 1.98003 251.311 1.98003 251.122C1.98003 250.932 1.98003 250.743 1.98003 250.553C1.98003 250.363 1.98003 250.174 1.98003 249.984C1.98003 249.794 1.98003 249.603 1.98003 249.413C1.98003 249.223 1.98003 249.032 1.98003 248.842C1.98003 248.651 1.98003 248.46 1.98003 248.269C1.98003 248.078 1.98003 247.887 1.98003 247.696C1.98003 247.504 1.98003 247.313 1.98003 247.121C1.98003 246.93 1.98003 246.738 1.98003 246.546C1.98003 246.354 1.98003 246.162 1.98003 245.97C1.98003 245.777 1.98003 245.585 1.98003 245.392C1.98003 245.2 1.98003 245.007 1.98003 244.814C1.98003 244.621 1.98003 244.428 1.98003 244.235C1.98003 244.042 1.98003 243.849 1.98003 243.655C1.98003 243.462 1.98003 243.268 1.98003 243.074C1.98003 242.881 1.98003 242.687 1.98003 242.493C1.98003 242.299 1.98003 242.105 1.98003 241.91C1.98003 241.716 1.98003 241.521 1.98003 241.327C1.98003 241.132 1.98003 240.937 1.98003 240.742C1.98003 240.548 1.98003 240.353 1.98003 240.157C1.98003 239.962 1.98003 239.767 1.98003 239.571C1.98003 239.376 1.98003 239.18 1.98003 238.985C1.98003 238.789 1.98003 238.593 1.98003 238.397C1.98003 238.201 1.98003 238.005 1.98003 237.809C1.98003 237.612 1.98003 237.416 1.98003 237.219C1.98003 237.023 1.98003 236.826 1.98003 236.629C1.98003 236.433 1.98003 236.236 1.98003 236.039C1.98003 235.842 1.98003 235.644 1.98003 235.447C1.98003 235.25 1.98003 235.052 1.98003 234.855C1.98003 234.657 1.98003 234.46 1.98003 234.262C1.98003 234.064 1.98003 233.866 1.98003 233.668C1.98003 233.47 1.98003 233.272 1.98003 233.074C1.98003 232.875 1.98003 232.677 1.98003 232.478C1.98003 232.28 1.98003 232.081 1.98003 231.882C1.98003 231.684 1.98003 231.485 1.98003 231.286C1.98003 231.087 1.98003 230.888 1.98003 230.688C1.98003 230.489 1.98003 230.29 1.98003 230.09C1.98003 229.891 1.98003 229.691 1.98003 229.492C1.98003 229.292 1.98003 229.092 1.98003 228.892C1.98003 228.693 1.98003 228.493 1.98003 228.292C1.98003 228.092 1.98003 227.892 1.98003 227.692C1.98003 227.491 1.98003 227.291 1.98003 227.091C1.98003 226.89 1.98003 226.689 1.98003 226.489C1.98003 226.288 1.98003 226.087 1.98003 225.886C1.98003 225.685 1.98003 225.484 1.98003 225.283C1.98003 225.082 1.98003 224.881 1.98003 224.679C1.98003 224.478 1.98003 224.276 1.98003 224.075C1.98003 223.873 1.98003 223.672 1.98003 223.47C1.98003 223.268 1.98003 223.066 1.98003 222.865C1.98003 222.663 1.98003 222.461 1.98003 222.259C1.98003 222.056 1.98003 221.854 1.98003 221.652C1.98003 221.45 1.98003 221.247 1.98003 221.045C1.98003 220.842 1.98003 220.64 1.98003 220.437C1.98003 220.235 1.98003 220.032 1.98003 219.829C1.98003 219.626 1.98003 219.423 1.98003 219.22C1.98003 219.017 1.98003 218.814 1.98003 218.611C1.98003 218.408 1.98003 218.205 1.98003 218.001C1.98003 217.798 1.98003 217.595 1.98003 217.391C1.98003 217.188 1.98003 216.984 1.98003 216.781C1.98003 216.577 1.98003 216.373 1.98003 216.169C1.98003 215.966 1.98003 215.762 1.98003 215.558C1.98003 215.354 1.98003 215.15 1.98003 214.946C1.98003 214.742 1.98003 214.538 1.98003 214.333C1.98003 214.129 1.98003 213.925 1.98003 213.721C1.98003 213.516 1.98003 213.312 1.98003 213.107C1.98003 212.903 1.98003 212.698 1.98003 212.493C1.98003 212.289 1.98003 212.084 1.98003 211.879C1.98003 211.675 1.98003 211.47 1.98003 211.265C1.98003 211.06 1.98003 210.855 1.98003 210.65C1.98003 210.445 1.98003 210.24 1.98003 210.035C1.98003 209.829 1.98003 209.624 1.98003 209.419C1.98003 209.214 1.98003 209.008 1.98003 208.803C1.98003 208.598 1.98003 208.392 1.98003 208.187C1.98003 207.981 1.98003 207.776 1.98003 207.57C1.98003 207.364 1.98003 207.159 1.98003 206.953C1.98003 206.747 1.98003 206.541 1.98003 206.336C1.98003 206.13 1.98003 205.924 1.98003 205.718C1.98003 205.512 1.98003 205.306 1.98003 205.1C1.98003 204.894 1.98003 204.688 1.98003 204.482C1.98003 204.276 1.98003 204.07 1.98003 203.863C1.98003 203.657 1.98003 203.451 1.98003 203.245C1.98003 203.038 1.98003 202.832 1.98003 202.626C1.98003 202.419 1.98003 202.213 1.98003 202.006C1.98003 201.8 1.98003 201.593 1.98003 201.387C1.98003 201.18 1.98003 200.974 1.98003 200.767C1.98003 200.56 1.98003 200.354 1.98003 200.147C1.98003 199.94 1.98003 199.734 1.98003 199.527C1.98003 199.32 1.98003 199.113 1.98003 198.906C1.98003 198.7 1.98003 198.493 1.98003 198.286C1.98003 198.079 1.98003 197.872 1.98003 197.665C1.98003 197.458 1.98003 197.251 1.98003 197.044C1.98003 196.837 1.98003 196.63 1.98003 196.423C1.98003 196.216 1.98003 196.009 1.98003 195.802C1.98003 195.595 1.98003 195.387 1.98003 195.18C1.98003 194.973 1.98003 194.766 1.98003 194.559C1.98003 194.352 1.98003 194.144 1.98003 193.937C1.98003 193.73 1.98003 193.522 1.98003 193.315C1.98003 193.108 1.98003 192.901 1.98003 192.693C1.98003 192.486 1.98003 192.279 1.98003 192.071C1.98003 191.864 1.98003 191.656 1.98003 191.449C1.98003 191.242 1.98003 191.034 1.98003 190.827C1.98003 190.619 1.98003 190.412 1.98003 190.205C1.98003 189.997 1.98003 189.79 1.98003 189.582C1.98003 189.375 1.98003 189.167 1.98003 188.96C1.98003 188.752 1.98003 188.545 1.98003 188.337C1.98003 188.13 1.98003 187.922 1.98003 187.715C1.98003 187.507 1.98003 187.3 1.98003 187.092C1.98003 186.885 1.98003 186.677 1.98003 186.47C1.98003 186.262 1.98003 186.055 1.98003 185.847C1.98003 185.64 1.98003 185.432 1.98003 185.225C1.98003 185.017 1.98003 184.81 1.98003 184.602C1.98003 184.395 1.98003 184.187 1.98003 183.98C1.98003 183.772 1.98003 183.565 1.98003 183.357C1.98003 183.15 1.98003 182.942 1.98003 182.735C1.98003 182.527 1.98003 182.32 1.98003 182.112C1.98003 181.905 1.98003 181.698 1.98003 181.49C1.98003 181.283 1.98003 181.075 1.98003 180.868C1.98003 180.66 1.98003 180.453 1.98003 180.246C1.98003 180.038 1.98003 179.831 1.98003 179.624C1.98003 179.416 1.98003 179.209 1.98003 179.002C1.98003 178.794 1.98003 178.587 1.98003 178.38C1.98003 178.172 1.98003 177.965 1.98003 177.758C1.98003 177.551 1.98003 177.343 1.98003 177.136C1.98003 176.929 1.98003 176.722 1.98003 176.515C1.98003 176.307 1.98003 176.1 1.98003 175.893C1.98003 175.686 1.98003 175.479 1.98003 175.272C1.98003 175.065 1.98003 174.858 1.98003 174.651C1.98003 174.444 1.98003 174.237 1.98003 174.03C1.98003 173.823 1.98003 173.616 1.98003 173.409C1.98003 173.202 1.98003 172.996 1.98003 172.789C1.98003 172.582 1.98003 172.375 1.98003 172.168C1.98003 171.962 1.98003 171.755 1.98003 171.548C1.98003 171.342 1.98003 171.135 1.98003 170.928C1.98003 170.722 1.98003 170.515 1.98003 170.309C1.98003 170.102 1.98003 169.896 1.98003 169.689C1.98003 169.483 1.98003 169.276 1.98003 169.07C1.98003 168.864 1.98003 168.657 1.98003 168.451C1.98003 168.245 1.98003 168.038 1.98003 167.832C1.98003 167.626 1.98003 167.42 1.98003 167.214C1.98003 167.008 1.98003 166.802 1.98003 166.596C1.98003 166.39 1.98003 166.184 1.98003 165.978C1.98003 165.772 1.98003 165.566 1.98003 165.36C1.98003 165.154 1.98003 164.949 1.98003 164.743C1.98003 164.537 1.98003 164.332 1.98003 164.126C1.98003 163.92 1.98003 163.715 1.98003 163.509C1.98003 163.304 1.98003 163.099 1.98003 162.893C1.98003 162.688 1.98003 162.483 1.98003 162.277C1.98003 162.072 1.98003 161.867 1.98003 161.662C1.98003 161.457 1.98003 161.252 1.98003 161.047C1.98003 160.842 1.98003 160.637 1.98003 160.432C1.98003 160.227 1.98003 160.022 1.98003 159.817C1.98003 159.613 1.98003 159.408 1.98003 159.203C1.98003 158.999 1.98003 158.794 1.98003 158.59C1.98003 158.385 1.98003 158.181 1.98003 157.976C1.98003 157.772 1.98003 157.568 1.98003 157.364C1.98003 157.159 1.98003 156.955 1.98003 156.751C1.98003 156.547 1.98003 156.343 1.98003 156.139C1.98003 155.935 1.98003 155.732 1.98003 155.528C1.98003 155.324 1.98003 155.12 1.98003 154.917C1.98003 154.713 1.98003 154.51 1.98003 154.306C1.98003 154.103 1.98003 153.9 1.98003 153.696C1.98003 153.493 1.98003 153.29 1.98003 153.087C1.98003 152.884 1.98003 152.681 1.98003 152.478C1.98003 152.275 1.98003 152.072 1.98003 151.869C1.98003 151.666 1.98003 151.464 1.98003 151.261C1.98003 151.058 1.98003 150.856 1.98003 150.653C1.98003 150.451 1.98003 150.249 1.98003 150.046C1.98003 149.844 1.98003 149.642 1.98003 149.44C1.98003 149.238 1.98003 149.036 1.98003 148.834C1.98003 148.632 1.98003 148.431 1.98003 148.229C1.98003 148.027 1.98003 147.826 1.98003 147.624C1.98003 147.423 1.98003 147.221 1.98003 147.02C1.98003 146.819 1.98003 146.617 1.98003 146.416C1.98003 146.215 1.98003 146.014 1.98003 145.813C1.98003 145.612 1.98003 145.412 1.98003 145.211C1.98003 145.01 1.98003 144.81 1.98003 144.609C1.98003 144.409 1.98003 144.208 1.98003 144.008C1.98003 143.808 1.98003 143.608 1.98003 143.408C1.98003 143.208 1.98003 143.008 1.98003 142.808C1.98003 142.608 1.98003 142.408 1.98003 142.209C1.98003 142.009 1.98003 141.809 1.98003 141.61C1.98003 141.411 1.98003 141.211 1.98003 141.012C1.98003 140.813 1.98003 140.614 1.98003 140.415C1.98003 140.216 1.98003 140.017 1.98003 139.819C1.98003 139.62 1.98003 139.421 1.98003 139.223C1.98003 139.024 1.98003 138.826 1.98003 138.628C1.98003 138.43 1.98003 138.231 1.98003 138.033C1.98003 137.835 1.98003 137.638 1.98003 137.44C1.98003 137.242 1.98003 137.044 1.98003 136.847C1.98003 136.649 1.98003 136.452 1.98003 136.255C1.98003 136.058 1.98003 135.861 1.98003 135.664C1.98003 135.467 1.98003 135.27 1.98003 135.073C1.98003 134.876 1.98003 134.68 1.98003 134.483C1.98003 134.287 1.98003 134.09 1.98003 133.894C1.98003 133.698 1.98003 133.502 1.98003 133.306C1.98003 133.11 1.98003 132.914 1.98003 132.719C1.98003 132.523 1.98003 132.327 1.98003 132.132C1.98003 131.937 1.98003 131.741 1.98003 131.546C1.98003 131.351 1.98003 131.156 1.98003 130.961C1.98003 130.766 1.98003 130.572 1.98003 130.377C1.98003 130.183 1.98003 129.988 1.98003 129.794C1.98003 129.6 1.98003 129.406 1.98003 129.212C1.98003 129.018 1.98003 128.824 1.98003 128.63C1.98003 128.436 1.98003 128.243 1.98003 128.049C1.98003 127.856 1.98003 127.663 1.98003 127.47C1.98003 127.277 1.98003 127.084 1.98003 126.891C1.98003 126.698 1.98003 126.506 1.98003 126.313C1.98003 126.121 1.98003 125.928 1.98003 125.736C1.98003 125.544 1.98003 125.352 1.98003 125.16C1.98003 124.968 1.98003 124.776 1.98003 124.585C1.98003 124.393 1.98003 124.202 1.98003 124.011C1.98003 123.819 1.98003 123.628 1.98003 123.437C1.98003 123.247 1.98003 123.056 1.98003 122.865C1.98003 122.675 1.98003 122.484 1.98003 122.294C1.98003 122.104 1.98003 121.914 1.98003 121.724C1.98003 121.534 1.98003 121.344 1.98003 121.154C1.98003 120.965 1.98003 120.775 1.98003 120.586C1.98003 120.397 1.98003 120.208 1.98003 120.019C1.98003 119.83 1.98003 119.641 1.98003 119.452C1.98003 119.264 1.98003 119.075 1.98003 118.887C1.98003 118.699 1.98003 118.511 1.98003 118.323C1.98003 118.135 1.98003 117.947 1.98003 117.76C1.98003 117.572 1.98003 117.385 1.98003 117.198C1.98003 117.011 1.98003 116.824 1.98003 116.637C1.98003 116.45 1.98003 116.263 1.98003 116.077C1.98003 115.89 1.98003 115.704 1.98003 115.518C1.98003 115.332 1.98003 115.146 1.98003 114.96C1.98003 114.775 1.98003 114.589 1.98003 114.404C1.98003 114.218 1.98003 114.033 1.98003 113.848C1.98003 113.663 1.98003 113.478 1.98003 113.294C1.98003 113.109 1.98003 112.925 1.98003 112.74C1.98003 112.556 1.98003 112.372 1.98003 112.188C1.98003 112.004 1.98003 111.821 1.98003 111.637C1.98003 111.454 1.98003 111.271 1.98003 111.087C1.98003 110.904 1.98003 110.722 1.98003 110.539C1.98003 110.356 1.98003 110.174 1.98003 109.991C1.98003 109.809 1.98003 109.627 1.98003 109.445C1.98003 109.263 1.98003 109.082 1.98003 108.9C1.98003 108.719 1.98003 108.537 1.98003 108.356C1.98003 108.175 1.98003 107.994 1.98003 107.814C1.98003 107.633 1.98003 107.452 1.98003 107.272C1.98003 107.092 1.98003 106.912 1.98003 106.732C1.98003 106.552 1.98003 106.372 1.98003 106.193C1.98003 106.014 1.98003 105.834 1.98003 105.655C1.98003 105.476 1.98003 105.298 1.98003 105.119C1.98003 104.94 1.98003 104.762 1.98003 104.584C1.98003 104.406 1.98003 104.228 1.98003 104.05C1.98003 103.872 1.98003 103.695 1.98003 103.517C1.98003 103.34 1.98003 103.163 1.98003 102.986C1.98003 102.809 1.98003 102.633 1.98003 102.456C1.98003 102.28 1.98003 102.104 1.98003 101.928C1.98003 101.752 1.98003 101.576 1.98003 101.4C1.98003 101.225 1.98003 101.05 1.98003 100.874C1.98003 100.699 1.98003 100.524 1.98003 100.35C1.98003 100.175 1.98003 100.001 1.98003 99.8266C1.98003 99.6524 1.98003 99.4785 1.98003 99.3047C1.98003 99.131 1.98003 98.9575 1.98003 98.7842C1.98003 98.611 1.98003 98.4379 1.98003 98.2651C1.98003 98.0923 1.98003 97.9198 1.98003 97.7474C1.98003 97.5751 1.98003 97.403 1.98003 97.2311C1.98003 97.0593 1.98003 96.8876 1.98003 96.7163C1.98003 96.5449 1.98003 96.3737 1.98003 96.2028C1.98003 96.0319 1.98003 95.8612 1.98003 95.6908C1.98003 95.5203 1.98003 95.3501 1.98003 95.1802C1.98003 95.0102 1.98003 94.8405 1.98003 94.6711C1.98003 94.5016 1.98003 94.3324 1.98003 94.1634C1.98003 93.9944 1.98003 93.8257 1.98003 93.6572C1.98003 93.4887 1.98003 93.3205 1.98003 93.1525C1.98003 92.9845 1.98003 92.8168 1.98003 92.6493C1.98003 92.4818 1.98003 92.3145 1.98003 92.1475C1.98003 91.9806 1.98003 91.8138 1.98003 91.6473C1.98003 91.4808 1.98003 91.3146 1.98003 91.1486C1.98003 90.9827 1.98003 90.8169 1.98003 90.6515C1.98003 90.486 1.98003 90.3208 1.98003 90.1558C1.98003 89.9909 1.98003 89.8262 1.98003 89.6618C1.98003 89.4973 1.98003 89.3331 1.98003 89.1692C1.98003 89.0053 1.98003 88.8417 1.98003 88.6783C1.98003 88.5149 1.98003 88.3517 1.98003 88.1889C1.98003 88.026 1.98003 87.8634 1.98003 87.7011C1.98003 87.5387 1.98003 87.3767 1.98003 87.2149C1.98003 87.0531 1.98003 86.8915 1.98003 86.7303C1.98003 86.569 1.98003 86.408 1.98003 86.2473C1.98003 86.0865 1.98003 85.9261 1.98003 85.7659C1.98003 85.6057 1.98003 85.4458 1.98003 85.2861C1.98003 85.1265 1.98003 84.9671 1.98003 84.808C1.98003 84.6489 1.98003 84.4901 1.98003 84.3316C1.98003 84.173 1.98003 84.0148 1.98003 83.8568C1.98003 83.6988 1.98003 83.5411 1.98003 83.3837C1.98003 83.2262 1.98003 83.0691 1.98003 82.9122C1.98003 82.7553 1.98003 82.5988 1.98003 82.4425C1.98003 82.2861 1.98003 82.1301 1.98003 81.9744C1.98003 81.8186 1.98003 81.6632 1.98003 81.508C1.98003 81.3529 1.98003 81.198 1.98003 81.0434C1.98003 80.8888 1.98003 80.7345 1.98003 80.5805C1.98003 80.4264 1.98003 80.2727 1.98003 80.1193C1.98003 79.9658 1.98003 79.8127 1.98003 79.6598C1.98003 79.507 1.98003 79.3544 1.98003 79.2021C1.98003 79.0499 1.98003 78.8979 1.98003 78.7462C1.98003 78.5945 1.98003 78.4431 1.98003 78.2921C1.98003 78.141 1.98003 77.9902 1.98003 77.8397C1.98003 77.6892 1.98003 77.539 1.98003 77.3891C1.98003 77.2392 1.98003 77.0896 1.98003 76.9403C1.98003 76.791 1.98003 76.642 1.98003 76.4933C1.98003 76.3446 1.98003 76.1963 1.98003 76.0482C1.98003 75.9001 1.98003 75.7523 1.98003 75.6048C1.98003 75.4574 1.98003 75.3102 1.98003 75.1633C1.98003 75.0165 1.98003 74.8699 1.98003 74.7237C1.98003 74.5775 1.98003 74.4315 1.98003 74.2859C1.98003 74.1403 1.98003 73.995 1.98003 73.85C1.98003 73.705 1.98003 73.5603 1.98003 73.4159C1.98003 73.2715 1.98003 73.1275 1.98003 72.9837C1.98003 72.84 1.98003 72.6966 1.98003 72.5535C1.98003 72.4104 1.98003 72.2676 1.98003 72.1251C1.98003 71.9826 1.98003 71.8405 1.98003 71.6986C1.98003 71.5568 1.98003 71.4153 1.98003 71.2741C1.98003 71.1329 1.98003 70.992 1.98003 70.8515C1.98003 70.7109 1.98003 70.5707 1.98003 70.4308C1.98003 70.2909 1.98003 70.1513 1.98003 70.0121C1.98003 69.8728 1.98003 69.7339 1.98003 69.5953C1.98003 69.4567 1.98003 69.3185 1.98003 69.1805C1.98003 69.0426 1.98003 68.905 1.98003 68.7677C1.98003 68.6304 1.98003 68.4935 1.98003 68.3569C1.98003 68.2203 1.98003 68.084 1.98003 67.948C1.98003 67.8121 1.98003 67.6765 1.98003 67.5412C1.98003 67.4059 1.98003 67.271 1.98003 67.1364C1.98003 67.0018 1.98003 66.8675 1.98003 66.7336C1.98003 66.5997 1.98003 66.4661 1.98003 66.3328C1.98003 66.1996 1.98003 66.0667 1.98003 65.9341C1.98003 65.8016 1.98003 65.6693 1.98003 65.5375C1.98003 65.4056 1.98003 65.2741 1.98003 65.1429C1.98003 65.0117 1.98003 64.8808 1.98003 64.7503C1.98003 64.6198 1.98003 64.4897 1.98003 64.3599C1.98003 64.2301 1.98003 64.1006 1.98003 63.9715C1.98003 63.8424 1.98003 63.7137 1.98003 63.5853C1.98003 63.4569 1.98003 63.3288 1.98003 63.2011C1.98003 63.0734 1.98003 62.9461 1.98003 62.8191C1.98003 62.6921 1.98003 62.5655 1.98003 62.4392C1.98003 62.3129 1.98003 62.187 1.98003 62.0614C1.98003 61.9358 1.98003 61.8106 1.98003 61.6858C1.98003 61.5609 1.98003 61.4364 1.98003 61.3123C1.98003 61.1882 1.98003 61.0644 1.98003 60.941C1.98003 60.8176 1.98003 60.6946 1.98003 60.5719C1.98003 60.4492 1.98003 60.3269 1.98003 60.2049C1.98003 60.083 1.98003 59.9614 1.98003 59.8402C1.98003 59.719 1.98003 59.5981 1.98003 59.4776C1.98003 59.3571 1.98003 59.237 1.98003 59.1173C1.98003 58.9975 1.98003 58.8782 1.98003 58.7592C1.98003 58.6402 1.98003 58.5215 1.98003 58.4033C1.98003 58.285 1.98003 58.1671 1.98003 58.0496C1.98003 57.9321 1.98003 57.815 1.98003 57.6982C1.98003 57.5815 1.98003 57.4651 1.98003 57.3491C1.98003 57.2331 1.98003 57.1175 1.98003 57.0022C1.98003 56.887 1.98003 56.7721 1.98003 56.6576C1.98003 56.5431 1.98003 56.429 1.98003 56.3153C1.98003 56.2016 1.98003 56.0882 1.98003 55.9753C1.98003 55.8623 1.98003 55.7498 1.98003 55.6376C1.98003 55.5254 1.98003 55.4136 1.98003 55.3022C1.98003 55.1908 1.98003 55.0797 1.98003 54.9691C1.98003 54.8585 1.98003 54.7482 1.98003 54.6384C1.98003 54.5285 1.98003 54.419 1.98003 54.31C1.98003 54.2009 1.98003 54.0922 1.98003 53.9839C1.98003 53.8756 1.98003 53.7677 1.98003 53.6603C1.98003 53.5527 1.98003 53.4456 1.98003 53.3389C1.98003 53.2322 1.98003 53.1259 1.98003 53.02C1.98003 52.9141 1.98003 52.8086 1.98003 52.7035C1.98003 52.5984 1.98003 52.4936 1.98003 52.3893C1.98003 52.285 1.98003 52.1811 1.98003 52.0776C1.98003 51.9741 1.98003 51.871 1.98003 51.7683C1.98003 51.6656 1.98003 51.5633 1.98003 51.4614C1.98003 51.3595 1.98003 51.258 1.98003 51.1569C1.98003 51.0559 1.98003 50.9552 1.98003 50.8549C1.98003 50.7547 1.98003 50.6548 1.98003 50.5554C1.98003 50.4559 1.98003 50.3569 1.98003 50.2583C1.98003 50.1597 1.98003 50.0615 1.98003 49.9637C1.98003 49.8659 1.98003 49.7685 1.98003 49.6715C1.98003 49.5746 1.98003 49.478 1.98003 49.3819C1.98003 49.2858 1.98003 49.1901 1.98003 49.0948C1.98003 48.9995 1.98003 48.9046 1.98003 48.8101C1.98003 48.7157 1.98003 48.6216 1.98003 48.528C1.98003 48.4344 1.98003 48.3412 1.98003 48.2485C1.98003 48.1557 1.98003 48.0633 1.98003 47.9714C1.98003 47.8795 1.98003 47.788 1.98003 47.6969C1.98003 47.6059 1.98003 47.5152 1.98003 47.425C1.98003 47.3348 1.98003 47.245 1.98003 47.1556C1.98003 47.0663 1.98003 46.9773 1.98003 46.8889C1.98003 46.8004 1.98003 46.7123 1.98003 46.6246C1.98003 46.537 1.98003 46.4498 1.98003 46.363C1.98003 46.2763 1.98003 46.1899 1.98003 46.104C1.98003 46.0182 1.98003 45.9327 1.98003 45.8477C1.98003 45.7626 1.98003 45.6781 1.98003 45.5939C1.98003 45.5098 1.98003 45.426 1.98003 45.3428C1.98003 45.2595 1.98003 45.1767 1.98003 45.0943C1.98003 45.0119 1.98003 44.93 1.98003 44.8485C1.98003 44.767 1.98003 44.6859 1.98003 44.6053C1.98003 44.5247 1.98003 44.4445 1.98003 44.3648C1.98003 44.2851 1.98003 44.2058 1.98003 44.127C1.98003 44.0481 1.98003 43.9698 1.98003 43.8918C1.98003 43.8139 1.98003 43.7364 1.98003 43.6594C1.98003 43.5824 1.98003 43.5058 1.98003 43.4297C1.98003 43.3535 1.98003 43.2779 1.98003 43.2027C1.98003 43.1274 1.98003 43.0527 1.98003 42.9784C1.98003 42.9041 1.98003 42.8302 1.98003 42.7568C1.98003 42.6834 1.98003 42.6105 1.98003 42.538C1.98003 42.4656 1.98003 42.3935 1.98003 42.322C1.98003 42.2504 1.98003 42.1793 1.98003 42.1087C1.98003 42.0381 1.98003 41.9679 1.98003 41.8982C1.98003 41.8285 1.98003 41.7592 1.98003 41.6905C1.98003 41.6217 1.98003 41.5534 1.98003 41.4855C1.98003 41.4177 1.98003 41.3503 1.98003 41.2834C1.98003 41.2165 1.98003 41.1501 1.98003 41.0841C1.98003 41.0181 1.98003 40.9526 1.98003 40.8876C1.98003 40.8225 1.98003 40.758 1.98003 40.6939C1.98003 40.6298 1.98003 40.5662 1.98003 40.5031C1.98003 40.4399 1.98003 40.3773 1.98003 40.3151C1.98003 40.2529 1.98003 40.1912 1.98003 40.13C1.98003 40.0687 1.98003 40.008 1.98003 39.9477C1.98003 39.8874 1.98003 39.8276 1.98003 39.7683C1.98003 39.709 1.98003 39.6502 1.98003 39.5918C1.98003 39.5335 1.98003 39.4756 1.98003 39.4182C1.98003 39.3608 1.98003 39.3039 1.98003 39.2475C1.98003 39.1911 1.98003 39.1352 1.98003 39.0798C1.98003 39.0243 1.98003 38.9694 1.98003 38.9149C1.98003 38.8604 1.98003 38.8064 1.98003 38.753C1.98003 38.6995 1.98003 38.6465 1.98003 38.594C1.98003 38.5415 1.98003 38.4895 1.98003 38.4379C1.98003 38.3864 1.98003 38.3354 1.98003 38.2849H0.0200958C0.0200958 38.3354 0.0200958 38.3864 0.0200958 38.4379C0.0200958 38.4895 0.0200958 38.5415 0.0200958 38.594C0.0200958 38.6465 0.0200958 38.6995 0.0200958 38.753C0.0200958 38.8064 0.0200958 38.8604 0.0200958 38.9149C0.0200958 38.9694 0.0200958 39.0243 0.0200958 39.0798C0.0200958 39.1352 0.0200958 39.1911 0.0200958 39.2475C0.0200958 39.3039 0.0200958 39.3608 0.0200958 39.4182C0.0200958 39.4756 0.0200958 39.5335 0.0200958 39.5918C0.0200958 39.6502 0.0200958 39.709 0.0200958 39.7683C0.0200958 39.8276 0.0200958 39.8874 0.0200958 39.9477C0.0200958 40.008 0.0200958 40.0687 0.0200958 40.13C0.0200958 40.1912 0.0200958 40.2529 0.0200958 40.3151C0.0200958 40.3773 0.0200958 40.4399 0.0200958 40.5031C0.0200958 40.5662 0.0200958 40.6298 0.0200958 40.6939C0.0200958 40.758 0.0200958 40.8225 0.0200958 40.8876C0.0200958 40.9526 0.0200958 41.0181 0.0200958 41.0841C0.0200958 41.1501 0.0200958 41.2165 0.0200958 41.2834C0.0200958 41.3503 0.0200958 41.4177 0.0200958 41.4855C0.0200958 41.5534 0.0200958 41.6217 0.0200958 41.6905C0.0200958 41.7592 0.0200958 41.8285 0.0200958 41.8982C0.0200958 41.9679 0.0200958 42.0381 0.0200958 42.1087C0.0200958 42.1793 0.0200958 42.2504 0.0200958 42.322C0.0200958 42.3935 0.0200958 42.4656 0.0200958 42.538C0.0200958 42.6105 0.0200958 42.6834 0.0200958 42.7568C0.0200958 42.8302 0.0200958 42.9041 0.0200958 42.9784C0.0200958 43.0527 0.0200958 43.1274 0.0200958 43.2027C0.0200958 43.2779 0.0200958 43.3535 0.0200958 43.4297C0.0200958 43.5058 0.0200958 43.5824 0.0200958 43.6594C0.0200958 43.7364 0.0200958 43.8139 0.0200958 43.8918C0.0200958 43.9698 0.0200958 44.0481 0.0200958 44.127C0.0200958 44.2058 0.0200958 44.2851 0.0200958 44.3648C0.0200958 44.4445 0.0200958 44.5247 0.0200958 44.6053C0.0200958 44.6859 0.0200958 44.767 0.0200958 44.8485C0.0200958 44.93 0.0200958 45.0119 0.0200958 45.0943C0.0200958 45.1767 0.0200958 45.2595 0.0200958 45.3428C0.0200958 45.426 0.0200958 45.5098 0.0200958 45.5939C0.0200958 45.6781 0.0200958 45.7626 0.0200958 45.8477C0.0200958 45.9327 0.0200958 46.0182 0.0200958 46.104C0.0200958 46.1899 0.0200958 46.2763 0.0200958 46.363C0.0200958 46.4498 0.0200958 46.537 0.0200958 46.6246C0.0200958 46.7123 0.0200958 46.8004 0.0200958 46.8889C0.0200958 46.9773 0.0200958 47.0663 0.0200958 47.1556C0.0200958 47.245 0.0200958 47.3348 0.0200958 47.425C0.0200958 47.5152 0.0200958 47.6059 0.0200958 47.6969C0.0200958 47.788 0.0200958 47.8795 0.0200958 47.9714C0.0200958 48.0633 0.0200958 48.1557 0.0200958 48.2485C0.0200958 48.3412 0.0200958 48.4344 0.0200958 48.528C0.0200958 48.6216 0.0200958 48.7157 0.0200958 48.8101C0.0200958 48.9046 0.0200958 48.9995 0.0200958 49.0948C0.0200958 49.1901 0.0200958 49.2858 0.0200958 49.3819C0.0200958 49.478 0.0200958 49.5746 0.0200958 49.6715C0.0200958 49.7685 0.0200958 49.8659 0.0200958 49.9637C0.0200958 50.0615 0.0200958 50.1597 0.0200958 50.2583C0.0200958 50.3569 0.0200958 50.4559 0.0200958 50.5554C0.0200958 50.6548 0.0200958 50.7547 0.0200958 50.8549C0.0200958 50.9552 0.0200958 51.0559 0.0200958 51.1569C0.0200958 51.258 0.0200958 51.3595 0.0200958 51.4614C0.0200958 51.5633 0.0200958 51.6656 0.0200958 51.7683C0.0200958 51.871 0.0200958 51.9741 0.0200958 52.0776C0.0200958 52.1811 0.0200958 52.285 0.0200958 52.3893C0.0200958 52.4936 0.0200958 52.5984 0.0200958 52.7035C0.0200958 52.8086 0.0200958 52.9141 0.0200958 53.02C0.0200958 53.1259 0.0200958 53.2322 0.0200958 53.3389C0.0200958 53.4456 0.0200958 53.5527 0.0200958 53.6603C0.0200958 53.7677 0.0200958 53.8756 0.0200958 53.9839C0.0200958 54.0922 0.0200958 54.2009 0.0200958 54.31C0.0200958 54.419 0.0200958 54.5285 0.0200958 54.6384C0.0200958 54.7482 0.0200958 54.8585 0.0200958 54.9691C0.0200958 55.0797 0.0200958 55.1908 0.0200958 55.3022C0.0200958 55.4136 0.0200958 55.5254 0.0200958 55.6376C0.0200958 55.7498 0.0200958 55.8623 0.0200958 55.9753C0.0200958 56.0882 0.0200958 56.2016 0.0200958 56.3153C0.0200958 56.429 0.0200958 56.5431 0.0200958 56.6576C0.0200958 56.7721 0.0200958 56.887 0.0200958 57.0022C0.0200958 57.1175 0.0200958 57.2331 0.0200958 57.3491C0.0200958 57.4651 0.0200958 57.5815 0.0200958 57.6982C0.0200958 57.815 0.0200958 57.9321 0.0200958 58.0496C0.0200958 58.1671 0.0200958 58.285 0.0200958 58.4033C0.0200958 58.5215 0.0200958 58.6402 0.0200958 58.7592C0.0200958 58.8782 0.0200958 58.9975 0.0200958 59.1173C0.0200958 59.237 0.0200958 59.3571 0.0200958 59.4776C0.0200958 59.5981 0.0200958 59.719 0.0200958 59.8402C0.0200958 59.9614 0.0200958 60.083 0.0200958 60.2049C0.0200958 60.3269 0.0200958 60.4492 0.0200958 60.5719C0.0200958 60.6946 0.0200958 60.8176 0.0200958 60.941C0.0200958 61.0644 0.0200958 61.1882 0.0200958 61.3123C0.0200958 61.4364 0.0200958 61.5609 0.0200958 61.6858C0.0200958 61.8106 0.0200958 61.9358 0.0200958 62.0614C0.0200958 62.187 0.0200958 62.3129 0.0200958 62.4392C0.0200958 62.5655 0.0200958 62.6921 0.0200958 62.8191C0.0200958 62.9461 0.0200958 63.0734 0.0200958 63.2011C0.0200958 63.3288 0.0200958 63.4569 0.0200958 63.5853C0.0200958 63.7137 0.0200958 63.8424 0.0200958 63.9715C0.0200958 64.1006 0.0200958 64.2301 0.0200958 64.3599C0.0200958 64.4897 0.0200958 64.6198 0.0200958 64.7503C0.0200958 64.8808 0.0200958 65.0117 0.0200958 65.1429C0.0200958 65.2741 0.0200958 65.4056 0.0200958 65.5375C0.0200958 65.6693 0.0200958 65.8016 0.0200958 65.9341C0.0200958 66.0667 0.0200958 66.1996 0.0200958 66.3328C0.0200958 66.4661 0.0200958 66.5997 0.0200958 66.7336C0.0200958 66.8675 0.0200958 67.0018 0.0200958 67.1364C0.0200958 67.271 0.0200958 67.4059 0.0200958 67.5412C0.0200958 67.6765 0.0200958 67.8121 0.0200958 67.948C0.0200958 68.084 0.0200958 68.2203 0.0200958 68.3569C0.0200958 68.4935 0.0200958 68.6304 0.0200958 68.7677C0.0200958 68.905 0.0200958 69.0426 0.0200958 69.1805C0.0200958 69.3185 0.0200958 69.4567 0.0200958 69.5953C0.0200958 69.7339 0.0200958 69.8728 0.0200958 70.0121C0.0200958 70.1513 0.0200958 70.2909 0.0200958 70.4308C0.0200958 70.5707 0.0200958 70.7109 0.0200958 70.8515C0.0200958 70.992 0.0200958 71.1329 0.0200958 71.2741C0.0200958 71.4153 0.0200958 71.5568 0.0200958 71.6986C0.0200958 71.8405 0.0200958 71.9826 0.0200958 72.1251C0.0200958 72.2676 0.0200958 72.4104 0.0200958 72.5535C0.0200958 72.6966 0.0200958 72.84 0.0200958 72.9837C0.0200958 73.1275 0.0200958 73.2715 0.0200958 73.4159C0.0200958 73.5603 0.0200958 73.705 0.0200958 73.85C0.0200958 73.995 0.0200958 74.1403 0.0200958 74.2859C0.0200958 74.4315 0.0200958 74.5775 0.0200958 74.7237C0.0200958 74.8699 0.0200958 75.0165 0.0200958 75.1633C0.0200958 75.3102 0.0200958 75.4574 0.0200958 75.6048C0.0200958 75.7523 0.0200958 75.9001 0.0200958 76.0482C0.0200958 76.1963 0.0200958 76.3446 0.0200958 76.4933C0.0200958 76.642 0.0200958 76.791 0.0200958 76.9403C0.0200958 77.0896 0.0200958 77.2392 0.0200958 77.3891C0.0200958 77.539 0.0200958 77.6892 0.0200958 77.8397C0.0200958 77.9902 0.0200958 78.141 0.0200958 78.2921C0.0200958 78.4431 0.0200958 78.5945 0.0200958 78.7462C0.0200958 78.8979 0.0200958 79.0499 0.0200958 79.2021C0.0200958 79.3544 0.0200958 79.507 0.0200958 79.6598C0.0200958 79.8127 0.0200958 79.9658 0.0200958 80.1193C0.0200958 80.2727 0.0200958 80.4264 0.0200958 80.5805C0.0200958 80.7345 0.0200958 80.8888 0.0200958 81.0434C0.0200958 81.198 0.0200958 81.3529 0.0200958 81.508C0.0200958 81.6632 0.0200958 81.8186 0.0200958 81.9744C0.0200958 82.1301 0.0200958 82.2861 0.0200958 82.4425C0.0200958 82.5988 0.0200958 82.7553 0.0200958 82.9122C0.0200958 83.0691 0.0200958 83.2262 0.0200958 83.3837C0.0200958 83.5411 0.0200958 83.6988 0.0200958 83.8568C0.0200958 84.0148 0.0200958 84.173 0.0200958 84.3316C0.0200958 84.4901 0.0200958 84.6489 0.0200958 84.808C0.0200958 84.9671 0.0200958 85.1265 0.0200958 85.2861C0.0200958 85.4458 0.0200958 85.6057 0.0200958 85.7659C0.0200958 85.9261 0.0200958 86.0865 0.0200958 86.2473C0.0200958 86.408 0.0200958 86.569 0.0200958 86.7303C0.0200958 86.8915 0.0200958 87.0531 0.0200958 87.2149C0.0200958 87.3767 0.0200958 87.5387 0.0200958 87.7011C0.0200958 87.8634 0.0200958 88.026 0.0200958 88.1889C0.0200958 88.3517 0.0200958 88.5149 0.0200958 88.6783C0.0200958 88.8417 0.0200958 89.0053 0.0200958 89.1692C0.0200958 89.3331 0.0200958 89.4973 0.0200958 89.6618C0.0200958 89.8262 0.0200958 89.9909 0.0200958 90.1558C0.0200958 90.3208 0.0200958 90.486 0.0200958 90.6515C0.0200958 90.8169 0.0200958 90.9827 0.0200958 91.1486C0.0200958 91.3146 0.0200958 91.4808 0.0200958 91.6473C0.0200958 91.8138 0.0200958 91.9806 0.0200958 92.1475C0.0200958 92.3145 0.0200958 92.4818 0.0200958 92.6493C0.0200958 92.8168 0.0200958 92.9845 0.0200958 93.1525C0.0200958 93.3205 0.0200958 93.4887 0.0200958 93.6572C0.0200958 93.8257 0.0200958 93.9944 0.0200958 94.1634C0.0200958 94.3324 0.0200958 94.5016 0.0200958 94.6711C0.0200958 94.8405 0.0200958 95.0102 0.0200958 95.1802C0.0200958 95.3501 0.0200958 95.5203 0.0200958 95.6908C0.0200958 95.8612 0.0200958 96.0319 0.0200958 96.2028C0.0200958 96.3737 0.0200958 96.5449 0.0200958 96.7163C0.0200958 96.8876 0.0200958 97.0593 0.0200958 97.2311C0.0200958 97.403 0.0200958 97.5751 0.0200958 97.7474C0.0200958 97.9198 0.0200958 98.0923 0.0200958 98.2651C0.0200958 98.4379 0.0200958 98.611 0.0200958 98.7842C0.0200958 98.9575 0.0200958 99.131 0.0200958 99.3047C0.0200958 99.4785 0.0200958 99.6524 0.0200958 99.8266C0.0200958 100.001 0.0200958 100.175 0.0200958 100.35C0.0200958 100.524 0.0200958 100.699 0.0200958 100.874C0.0200958 101.05 0.0200958 101.225 0.0200958 101.4C0.0200958 101.576 0.0200958 101.752 0.0200958 101.928C0.0200958 102.104 0.0200958 102.28 0.0200958 102.456C0.0200958 102.633 0.0200958 102.809 0.0200958 102.986C0.0200958 103.163 0.0200958 103.34 0.0200958 103.517C0.0200958 103.695 0.0200958 103.872 0.0200958 104.05C0.0200958 104.228 0.0200958 104.406 0.0200958 104.584C0.0200958 104.762 0.0200958 104.94 0.0200958 105.119C0.0200958 105.298 0.0200958 105.476 0.0200958 105.655C0.0200958 105.834 0.0200958 106.014 0.0200958 106.193C0.0200958 106.372 0.0200958 106.552 0.0200958 106.732C0.0200958 106.912 0.0200958 107.092 0.0200958 107.272C0.0200958 107.452 0.0200958 107.633 0.0200958 107.814C0.0200958 107.994 0.0200958 108.175 0.0200958 108.356C0.0200958 108.537 0.0200958 108.719 0.0200958 108.9C0.0200958 109.082 0.0200958 109.263 0.0200958 109.445C0.0200958 109.627 0.0200958 109.809 0.0200958 109.991C0.0200958 110.174 0.0200958 110.356 0.0200958 110.539C0.0200958 110.722 0.0200958 110.904 0.0200958 111.087C0.0200958 111.271 0.0200958 111.454 0.0200958 111.637C0.0200958 111.821 0.0200958 112.004 0.0200958 112.188C0.0200958 112.372 0.0200958 112.556 0.0200958 112.74C0.0200958 112.925 0.0200958 113.109 0.0200958 113.294C0.0200958 113.478 0.0200958 113.663 0.0200958 113.848C0.0200958 114.033 0.0200958 114.218 0.0200958 114.404C0.0200958 114.589 0.0200958 114.775 0.0200958 114.96C0.0200958 115.146 0.0200958 115.332 0.0200958 115.518C0.0200958 115.704 0.0200958 115.89 0.0200958 116.077C0.0200958 116.263 0.0200958 116.45 0.0200958 116.637C0.0200958 116.824 0.0200958 117.011 0.0200958 117.198C0.0200958 117.385 0.0200958 117.572 0.0200958 117.76C0.0200958 117.947 0.0200958 118.135 0.0200958 118.323C0.0200958 118.511 0.0200958 118.699 0.0200958 118.887C0.0200958 119.075 0.0200958 119.264 0.0200958 119.452C0.0200958 119.641 0.0200958 119.83 0.0200958 120.019C0.0200958 120.208 0.0200958 120.397 0.0200958 120.586C0.0200958 120.775 0.0200958 120.965 0.0200958 121.154C0.0200958 121.344 0.0200958 121.534 0.0200958 121.724C0.0200958 121.914 0.0200958 122.104 0.0200958 122.294C0.0200958 122.484 0.0200958 122.675 0.0200958 122.865C0.0200958 123.056 0.0200958 123.247 0.0200958 123.437C0.0200958 123.628 0.0200958 123.819 0.0200958 124.011C0.0200958 124.202 0.0200958 124.393 0.0200958 124.585C0.0200958 124.776 0.0200958 124.968 0.0200958 125.16C0.0200958 125.352 0.0200958 125.544 0.0200958 125.736C0.0200958 125.928 0.0200958 126.121 0.0200958 126.313C0.0200958 126.506 0.0200958 126.698 0.0200958 126.891C0.0200958 127.084 0.0200958 127.277 0.0200958 127.47C0.0200958 127.663 0.0200958 127.856 0.0200958 128.049C0.0200958 128.243 0.0200958 128.436 0.0200958 128.63C0.0200958 128.824 0.0200958 129.018 0.0200958 129.212C0.0200958 129.406 0.0200958 129.6 0.0200958 129.794C0.0200958 129.988 0.0200958 130.183 0.0200958 130.377C0.0200958 130.572 0.0200958 130.766 0.0200958 130.961C0.0200958 131.156 0.0200958 131.351 0.0200958 131.546C0.0200958 131.741 0.0200958 131.937 0.0200958 132.132C0.0200958 132.327 0.0200958 132.523 0.0200958 132.719C0.0200958 132.914 0.0200958 133.11 0.0200958 133.306C0.0200958 133.502 0.0200958 133.698 0.0200958 133.894C0.0200958 134.09 0.0200958 134.287 0.0200958 134.483C0.0200958 134.68 0.0200958 134.876 0.0200958 135.073C0.0200958 135.27 0.0200958 135.467 0.0200958 135.664C0.0200958 135.861 0.0200958 136.058 0.0200958 136.255C0.0200958 136.452 0.0200958 136.649 0.0200958 136.847C0.0200958 137.044 0.0200958 137.242 0.0200958 137.44C0.0200958 137.638 0.0200958 137.835 0.0200958 138.033C0.0200958 138.231 0.0200958 138.43 0.0200958 138.628C0.0200958 138.826 0.0200958 139.024 0.0200958 139.223C0.0200958 139.421 0.0200958 139.62 0.0200958 139.819C0.0200958 140.017 0.0200958 140.216 0.0200958 140.415C0.0200958 140.614 0.0200958 140.813 0.0200958 141.012C0.0200958 141.211 0.0200958 141.411 0.0200958 141.61C0.0200958 141.809 0.0200958 142.009 0.0200958 142.209C0.0200958 142.408 0.0200958 142.608 0.0200958 142.808C0.0200958 143.008 0.0200958 143.208 0.0200958 143.408C0.0200958 143.608 0.0200958 143.808 0.0200958 144.008C0.0200958 144.208 0.0200958 144.409 0.0200958 144.609C0.0200958 144.81 0.0200958 145.01 0.0200958 145.211C0.0200958 145.412 0.0200958 145.612 0.0200958 145.813C0.0200958 146.014 0.0200958 146.215 0.0200958 146.416C0.0200958 146.617 0.0200958 146.819 0.0200958 147.02C0.0200958 147.221 0.0200958 147.423 0.0200958 147.624C0.0200958 147.826 0.0200958 148.027 0.0200958 148.229C0.0200958 148.431 0.0200958 148.632 0.0200958 148.834C0.0200958 149.036 0.0200958 149.238 0.0200958 149.44C0.0200958 149.642 0.0200958 149.844 0.0200958 150.046C0.0200958 150.249 0.0200958 150.451 0.0200958 150.653C0.0200958 150.856 0.0200958 151.058 0.0200958 151.261C0.0200958 151.464 0.0200958 151.666 0.0200958 151.869C0.0200958 152.072 0.0200958 152.275 0.0200958 152.478C0.0200958 152.681 0.0200958 152.884 0.0200958 153.087C0.0200958 153.29 0.0200958 153.493 0.0200958 153.696C0.0200958 153.9 0.0200958 154.103 0.0200958 154.306C0.0200958 154.51 0.0200958 154.713 0.0200958 154.917C0.0200958 155.12 0.0200958 155.324 0.0200958 155.528C0.0200958 155.732 0.0200958 155.935 0.0200958 156.139C0.0200958 156.343 0.0200958 156.547 0.0200958 156.751C0.0200958 156.955 0.0200958 157.159 0.0200958 157.364C0.0200958 157.568 0.0200958 157.772 0.0200958 157.976C0.0200958 158.181 0.0200958 158.385 0.0200958 158.59C0.0200958 158.794 0.0200958 158.999 0.0200958 159.203C0.0200958 159.408 0.0200958 159.613 0.0200958 159.817C0.0200958 160.022 0.0200958 160.227 0.0200958 160.432C0.0200958 160.637 0.0200958 160.842 0.0200958 161.047C0.0200958 161.252 0.0200958 161.457 0.0200958 161.662C0.0200958 161.867 0.0200958 162.072 0.0200958 162.277C0.0200958 162.483 0.0200958 162.688 0.0200958 162.893C0.0200958 163.099 0.0200958 163.304 0.0200958 163.509C0.0200958 163.715 0.0200958 163.92 0.0200958 164.126C0.0200958 164.332 0.0200958 164.537 0.0200958 164.743C0.0200958 164.949 0.0200958 165.154 0.0200958 165.36C0.0200958 165.566 0.0200958 165.772 0.0200958 165.978C0.0200958 166.184 0.0200958 166.39 0.0200958 166.596C0.0200958 166.802 0.0200958 167.008 0.0200958 167.214C0.0200958 167.42 0.0200958 167.626 0.0200958 167.832C0.0200958 168.038 0.0200958 168.245 0.0200958 168.451C0.0200958 168.657 0.0200958 168.864 0.0200958 169.07C0.0200958 169.276 0.0200958 169.483 0.0200958 169.689C0.0200958 169.896 0.0200958 170.102 0.0200958 170.309C0.0200958 170.515 0.0200958 170.722 0.0200958 170.928C0.0200958 171.135 0.0200958 171.342 0.0200958 171.548C0.0200958 171.755 0.0200958 171.962 0.0200958 172.168C0.0200958 172.375 0.0200958 172.582 0.0200958 172.789C0.0200958 172.996 0.0200958 173.202 0.0200958 173.409C0.0200958 173.616 0.0200958 173.823 0.0200958 174.03C0.0200958 174.237 0.0200958 174.444 0.0200958 174.651C0.0200958 174.858 0.0200958 175.065 0.0200958 175.272C0.0200958 175.479 0.0200958 175.686 0.0200958 175.893C0.0200958 176.1 0.0200958 176.307 0.0200958 176.515C0.0200958 176.722 0.0200958 176.929 0.0200958 177.136C0.0200958 177.343 0.0200958 177.551 0.0200958 177.758C0.0200958 177.965 0.0200958 178.172 0.0200958 178.38C0.0200958 178.587 0.0200958 178.794 0.0200958 179.002C0.0200958 179.209 0.0200958 179.416 0.0200958 179.624C0.0200958 179.831 0.0200958 180.038 0.0200958 180.246C0.0200958 180.453 0.0200958 180.66 0.0200958 180.868C0.0200958 181.075 0.0200958 181.283 0.0200958 181.49C0.0200958 181.698 0.0200958 181.905 0.0200958 182.112C0.0200958 182.32 0.0200958 182.527 0.0200958 182.735C0.0200958 182.942 0.0200958 183.15 0.0200958 183.357C0.0200958 183.565 0.0200958 183.772 0.0200958 183.98C0.0200958 184.187 0.0200958 184.395 0.0200958 184.602C0.0200958 184.81 0.0200958 185.017 0.0200958 185.225C0.0200958 185.432 0.0200958 185.64 0.0200958 185.847C0.0200958 186.055 0.0200958 186.262 0.0200958 186.47C0.0200958 186.677 0.0200958 186.885 0.0200958 187.092C0.0200958 187.3 0.0200958 187.507 0.0200958 187.715C0.0200958 187.922 0.0200958 188.13 0.0200958 188.337C0.0200958 188.545 0.0200958 188.752 0.0200958 188.96C0.0200958 189.167 0.0200958 189.375 0.0200958 189.582C0.0200958 189.79 0.0200958 189.997 0.0200958 190.205C0.0200958 190.412 0.0200958 190.619 0.0200958 190.827C0.0200958 191.034 0.0200958 191.242 0.0200958 191.449C0.0200958 191.656 0.0200958 191.864 0.0200958 192.071C0.0200958 192.279 0.0200958 192.486 0.0200958 192.693C0.0200958 192.901 0.0200958 193.108 0.0200958 193.315C0.0200958 193.522 0.0200958 193.73 0.0200958 193.937C0.0200958 194.144 0.0200958 194.352 0.0200958 194.559C0.0200958 194.766 0.0200958 194.973 0.0200958 195.18C0.0200958 195.387 0.0200958 195.595 0.0200958 195.802C0.0200958 196.009 0.0200958 196.216 0.0200958 196.423C0.0200958 196.63 0.0200958 196.837 0.0200958 197.044C0.0200958 197.251 0.0200958 197.458 0.0200958 197.665C0.0200958 197.872 0.0200958 198.079 0.0200958 198.286C0.0200958 198.493 0.0200958 198.7 0.0200958 198.906C0.0200958 199.113 0.0200958 199.32 0.0200958 199.527C0.0200958 199.734 0.0200958 199.94 0.0200958 200.147C0.0200958 200.354 0.0200958 200.56 0.0200958 200.767C0.0200958 200.974 0.0200958 201.18 0.0200958 201.387C0.0200958 201.593 0.0200958 201.8 0.0200958 202.006C0.0200958 202.213 0.0200958 202.419 0.0200958 202.626C0.0200958 202.832 0.0200958 203.038 0.0200958 203.245C0.0200958 203.451 0.0200958 203.657 0.0200958 203.863C0.0200958 204.07 0.0200958 204.276 0.0200958 204.482C0.0200958 204.688 0.0200958 204.894 0.0200958 205.1C0.0200958 205.306 0.0200958 205.512 0.0200958 205.718C0.0200958 205.924 0.0200958 206.13 0.0200958 206.336C0.0200958 206.541 0.0200958 206.747 0.0200958 206.953C0.0200958 207.159 0.0200958 207.364 0.0200958 207.57C0.0200958 207.776 0.0200958 207.981 0.0200958 208.187C0.0200958 208.392 0.0200958 208.598 0.0200958 208.803C0.0200958 209.008 0.0200958 209.214 0.0200958 209.419C0.0200958 209.624 0.0200958 209.829 0.0200958 210.035C0.0200958 210.24 0.0200958 210.445 0.0200958 210.65C0.0200958 210.855 0.0200958 211.06 0.0200958 211.265C0.0200958 211.47 0.0200958 211.675 0.0200958 211.879C0.0200958 212.084 0.0200958 212.289 0.0200958 212.493C0.0200958 212.698 0.0200958 212.903 0.0200958 213.107C0.0200958 213.312 0.0200958 213.516 0.0200958 213.721C0.0200958 213.925 0.0200958 214.129 0.0200958 214.333C0.0200958 214.538 0.0200958 214.742 0.0200958 214.946C0.0200958 215.15 0.0200958 215.354 0.0200958 215.558C0.0200958 215.762 0.0200958 215.966 0.0200958 216.169C0.0200958 216.373 0.0200958 216.577 0.0200958 216.781C0.0200958 216.984 0.0200958 217.188 0.0200958 217.391C0.0200958 217.595 0.0200958 217.798 0.0200958 218.001C0.0200958 218.205 0.0200958 218.408 0.0200958 218.611C0.0200958 218.814 0.0200958 219.017 0.0200958 219.22C0.0200958 219.423 0.0200958 219.626 0.0200958 219.829C0.0200958 220.032 0.0200958 220.235 0.0200958 220.437C0.0200958 220.64 0.0200958 220.842 0.0200958 221.045C0.0200958 221.247 0.0200958 221.45 0.0200958 221.652C0.0200958 221.854 0.0200958 222.056 0.0200958 222.259C0.0200958 222.461 0.0200958 222.663 0.0200958 222.865C0.0200958 223.066 0.0200958 223.268 0.0200958 223.47C0.0200958 223.672 0.0200958 223.873 0.0200958 224.075C0.0200958 224.276 0.0200958 224.478 0.0200958 224.679C0.0200958 224.881 0.0200958 225.082 0.0200958 225.283C0.0200958 225.484 0.0200958 225.685 0.0200958 225.886C0.0200958 226.087 0.0200958 226.288 0.0200958 226.489C0.0200958 226.689 0.0200958 226.89 0.0200958 227.091C0.0200958 227.291 0.0200958 227.491 0.0200958 227.692C0.0200958 227.892 0.0200958 228.092 0.0200958 228.292C0.0200958 228.493 0.0200958 228.693 0.0200958 228.892C0.0200958 229.092 0.0200958 229.292 0.0200958 229.492C0.0200958 229.691 0.0200958 229.891 0.0200958 230.09C0.0200958 230.29 0.0200958 230.489 0.0200958 230.688C0.0200958 230.888 0.0200958 231.087 0.0200958 231.286C0.0200958 231.485 0.0200958 231.684 0.0200958 231.882C0.0200958 232.081 0.0200958 232.28 0.0200958 232.478C0.0200958 232.677 0.0200958 232.875 0.0200958 233.074C0.0200958 233.272 0.0200958 233.47 0.0200958 233.668C0.0200958 233.866 0.0200958 234.064 0.0200958 234.262C0.0200958 234.46 0.0200958 234.657 0.0200958 234.855C0.0200958 235.052 0.0200958 235.25 0.0200958 235.447C0.0200958 235.644 0.0200958 235.842 0.0200958 236.039C0.0200958 236.236 0.0200958 236.433 0.0200958 236.629C0.0200958 236.826 0.0200958 237.023 0.0200958 237.219C0.0200958 237.416 0.0200958 237.612 0.0200958 237.809C0.0200958 238.005 0.0200958 238.201 0.0200958 238.397C0.0200958 238.593 0.0200958 238.789 0.0200958 238.985C0.0200958 239.18 0.0200958 239.376 0.0200958 239.571C0.0200958 239.767 0.0200958 239.962 0.0200958 240.157C0.0200958 240.353 0.0200958 240.548 0.0200958 240.742C0.0200958 240.937 0.0200958 241.132 0.0200958 241.327C0.0200958 241.521 0.0200958 241.716 0.0200958 241.91C0.0200958 242.105 0.0200958 242.299 0.0200958 242.493C0.0200958 242.687 0.0200958 242.881 0.0200958 243.074C0.0200958 243.268 0.0200958 243.462 0.0200958 243.655C0.0200958 243.849 0.0200958 244.042 0.0200958 244.235C0.0200958 244.428 0.0200958 244.621 0.0200958 244.814C0.0200958 245.007 0.0200958 245.2 0.0200958 245.392C0.0200958 245.585 0.0200958 245.777 0.0200958 245.97C0.0200958 246.162 0.0200958 246.354 0.0200958 246.546C0.0200958 246.738 0.0200958 246.93 0.0200958 247.121C0.0200958 247.313 0.0200958 247.504 0.0200958 247.696C0.0200958 247.887 0.0200958 248.078 0.0200958 248.269C0.0200958 248.46 0.0200958 248.651 0.0200958 248.842C0.0200958 249.032 0.0200958 249.223 0.0200958 249.413C0.0200958 249.603 0.0200958 249.794 0.0200958 249.984C0.0200958 250.174 0.0200958 250.363 0.0200958 250.553C0.0200958 250.743 0.0200958 250.932 0.0200958 251.122C0.0200958 251.311 0.0200958 251.5 0.0200958 251.689C0.0200958 251.878 0.0200958 252.067 0.0200958 252.256C0.0200958 252.444 0.0200958 252.633 0.0200958 252.821C0.0200958 253.01 0.0200958 253.198 0.0200958 253.386C0.0200958 253.574 0.0200958 253.761 0.0200958 253.949C0.0200958 254.137 0.0200958 254.324 0.0200958 254.511C0.0200958 254.699 0.0200958 254.886 0.0200958 255.073C0.0200958 255.26 0.0200958 255.446 0.0200958 255.633C0.0200958 255.819 0.0200958 256.006 0.0200958 256.192C0.0200958 256.378 0.0200958 256.564 0.0200958 256.75C0.0200958 256.936 0.0200958 257.121 0.0200958 257.307C0.0200958 257.492 0.0200958 257.678 0.0200958 257.863C0.0200958 258.048 0.0200958 258.233 0.0200958 258.417C0.0200958 258.602 0.0200958 258.787 0.0200958 258.971C0.0200958 259.155 0.0200958 259.339 0.0200958 259.523C0.0200958 259.707 0.0200958 259.891 0.0200958 260.075C0.0200958 260.258 0.0200958 260.442 0.0200958 260.625C0.0200958 260.808 0.0200958 260.991 0.0200958 261.174C0.0200958 261.356 0.0200958 261.539 0.0200958 261.721C0.0200958 261.904 0.0200958 262.086 0.0200958 262.268C0.0200958 262.45 0.0200958 262.632 0.0200958 262.813C0.0200958 262.995 0.0200958 263.176 0.0200958 263.357C0.0200958 263.539 0.0200958 263.72 0.0200958 263.9C0.0200958 264.081 0.0200958 264.262 0.0200958 264.442C0.0200958 264.622 0.0200958 264.803 0.0200958 264.983C0.0200958 265.162 0.0200958 265.342 0.0200958 265.522C0.0200958 265.701 0.0200958 265.881 0.0200958 266.06C0.0200958 266.239 0.0200958 266.418 0.0200958 266.596C0.0200958 266.775 0.0200958 266.954 0.0200958 267.132C0.0200958 267.31 0.0200958 267.488 0.0200958 267.666C0.0200958 267.844 0.0200958 268.021 0.0200958 268.199C0.0200958 268.376 0.0200958 268.553 0.0200958 268.73C0.0200958 268.907 0.0200958 269.084 0.0200958 269.261C0.0200958 269.437 0.0200958 269.614 0.0200958 269.79C0.0200958 269.966 0.0200958 270.142 0.0200958 270.317C0.0200958 270.493 0.0200958 270.668 0.0200958 270.843C0.0200958 271.019 0.0200958 271.194 0.0200958 271.368C0.0200958 271.543 0.0200958 271.718 0.0200958 271.892C0.0200958 272.066 0.0200958 272.24 0.0200958 272.414C0.0200958 272.588 0.0200958 272.762 0.0200958 272.935C0.0200958 273.108 0.0200958 273.281 0.0200958 273.454C0.0200958 273.627 0.0200958 273.8 0.0200958 273.972C0.0200958 274.145 0.0200958 274.317 0.0200958 274.489C0.0200958 274.661 0.0200958 274.833 0.0200958 275.004C0.0200958 275.176 0.0200958 275.347 0.0200958 275.518C0.0200958 275.689 0.0200958 275.86 0.0200958 276.03C0.0200958 276.201 0.0200958 276.371 0.0200958 276.541C0.0200958 276.711 0.0200958 276.881 0.0200958 277.051C0.0200958 277.22 0.0200958 277.39 0.0200958 277.559C0.0200958 277.728 0.0200958 277.897 0.0200958 278.065C0.0200958 278.234 0.0200958 278.402 0.0200958 278.57C0.0200958 278.739 0.0200958 278.906 0.0200958 279.074C0.0200958 279.242 0.0200958 279.409 0.0200958 279.576C0.0200958 279.743 0.0200958 279.91 0.0200958 280.077C0.0200958 280.243 0.0200958 280.41 0.0200958 280.576C0.0200958 280.742 0.0200958 280.908 0.0200958 281.073C0.0200958 281.239 0.0200958 281.404 0.0200958 281.569C0.0200958 281.734 0.0200958 281.899 0.0200958 282.064C0.0200958 282.228 0.0200958 282.393 0.0200958 282.557C0.0200958 282.721 0.0200958 282.885 0.0200958 283.048C0.0200958 283.212 0.0200958 283.375 0.0200958 283.538C0.0200958 283.701 0.0200958 283.864 0.0200958 284.026C0.0200958 284.188 0.0200958 284.351 0.0200958 284.513C0.0200958 284.674 0.0200958 284.836 0.0200958 284.998C0.0200958 285.159 0.0200958 285.32 0.0200958 285.481C0.0200958 285.642 0.0200958 285.802 0.0200958 285.963C0.0200958 286.123 0.0200958 286.283 0.0200958 286.443C0.0200958 286.603 0.0200958 286.762 0.0200958 286.921C0.0200958 287.081 0.0200958 287.24 0.0200958 287.398C0.0200958 287.557 0.0200958 287.715 0.0200958 287.873C0.0200958 288.031 0.0200958 288.189 0.0200958 288.347C0.0200958 288.504 0.0200958 288.662 0.0200958 288.819C0.0200958 288.976 0.0200958 289.132 0.0200958 289.289C0.0200958 289.445 0.0200958 289.602 0.0200958 289.757C0.0200958 289.913 0.0200958 290.069 0.0200958 290.224C0.0200958 290.379 0.0200958 290.534 0.0200958 290.689C0.0200958 290.844 0.0200958 290.998 0.0200958 291.153C0.0200958 291.307 0.0200958 291.461 0.0200958 291.614C0.0200958 291.768 0.0200958 291.921 0.0200958 292.074C0.0200958 292.227 0.0200958 292.38 0.0200958 292.532C0.0200958 292.685 0.0200958 292.837 0.0200958 292.988C0.0200958 293.14 0.0200958 293.292 0.0200958 293.443C0.0200958 293.594 0.0200958 293.745 0.0200958 293.896C0.0200958 294.047 0.0200958 294.197 0.0200958 294.347C0.0200958 294.497 0.0200958 294.647 0.0200958 294.796C0.0200958 294.946 0.0200958 295.095 0.0200958 295.243C0.0200958 295.392 0.0200958 295.541 0.0200958 295.689H1.98003ZM1.98003 38.2849C1.98003 25.6951 7.43409 18.2471 14.3821 13.8978C21.3952 9.50762 30.0094 8.23265 36.2788 8.23265V6.27272C29.8087 6.27272 20.7835 7.5783 13.3421 12.2365C5.83563 16.9355 0.0200958 25.0036 0.0200958 38.2849H1.98003Z" fill="#E2AD5D"/>
</svg>
