<svg width="67" height="157" viewBox="0 0 67 157" fill="none" xmlns="http://www.w3.org/2000/svg">
<path id="Vector 19" d="M64.6805 92.9922H63.3811L63.3811 92.9869L64.6805 92.9922ZM0.874184 148.009C0.366753 147.502 0.366753 146.679 0.874184 146.171L9.14318 137.902C9.6506 137.395 10.4733 137.395 10.9807 137.902C11.4882 138.41 11.4882 139.233 10.9807 139.74L3.63051 147.09L10.9807 154.44C11.4882 154.948 11.4882 155.771 10.9807 156.278C10.4733 156.785 9.6506 156.785 9.14318 156.278L0.874184 148.009ZM66.3565 0.303131L65.9798 92.9975L63.3811 92.9869L63.7578 0.292572L66.3565 0.303131ZM65.9798 92.9922C65.9798 103.481 63.084 117.337 53.5462 128.593C43.9709 139.892 27.8551 148.39 1.79296 148.39V145.791C27.2459 145.791 42.5739 137.521 51.5636 126.913C60.5907 116.26 63.3811 103.067 63.3811 92.9922H65.9798Z" fill="url(#paint0_linear_865_1933)"/>
<defs>
<linearGradient id="paint0_linear_865_1933" x1="65.0655" y1="0.297852" x2="1.79289" y2="147.09" gradientUnits="userSpaceOnUse">
<stop stop-color="#E0615A"/>
<stop offset="1" stop-color="#DD475E"/>
</linearGradient>
</defs>
</svg>
