<svg width="346" height="326" viewBox="0 0 346 326" fill="none" xmlns="http://www.w3.org/2000/svg">
<path d="M120.234 247.402L85.3818 183.486L158.455 185.525L193.307 249.44L120.234 247.402Z" fill="#E48655"/>
<path d="M125.652 238.521L90.9463 174.605L164.019 176.644L198.725 240.414L125.652 238.521Z" fill="#E48655"/>
<g opacity="0.9">
<path opacity="0.9" d="M159.626 183.486L132.828 134.276L189.207 135.732L216.005 185.088L159.626 183.486Z" fill="#E48655"/>
<path opacity="0.9" d="M216.005 185.088L186.425 232.988L130.046 231.387L159.626 183.486L216.005 185.088Z" fill="#E48655"/>
<path opacity="0.9" d="M132.828 134.276L103.248 182.176L130.046 231.387L159.626 183.486L132.828 134.276Z" fill="#E48655"/>
</g>
<path opacity="0.7" d="M130.046 231.387L103.248 182.176L159.626 183.632L186.425 232.988L130.046 231.387Z" fill="#E48655"/>
<path d="M198.725 240.414L193.307 249.441L120.234 247.402L125.652 238.521L198.725 240.414Z" fill="#E48655"/>
<path d="M90.9465 174.605L85.3818 183.486L120.234 247.402L125.652 238.521L90.9465 174.605Z" fill="#E48655"/>
<path opacity="0.7" d="M90.9465 174.605L85.3818 183.486L120.234 247.402L125.652 238.521L90.9465 174.605Z" fill="#E48655"/>
<path d="M166.216 173.004L131.364 109.088L204.437 111.126L239.143 175.042L166.216 173.004Z" fill="#E48655"/>
<path d="M171.634 164.122L136.928 100.207L209.855 102.245L244.707 166.015L171.634 164.122Z" fill="#E48655"/>
<path opacity="0.7" d="M171.634 164.122L136.928 100.207L209.855 102.245L244.707 166.015L171.634 164.122Z" fill="#E48655"/>
<path d="M244.707 166.015L239.142 175.042L166.216 173.004L171.634 164.123L244.707 166.015Z" fill="#E48655"/>
<path d="M136.928 100.207L131.364 109.088L166.216 173.004L171.634 164.122L136.928 100.207Z" fill="#E48655"/>
<path opacity="0.7" d="M136.928 100.207L131.364 109.088L166.216 173.004L171.634 164.122L136.928 100.207Z" fill="#E48655"/>
<path opacity="0.3" d="M166.216 173.004L125.652 238.521L90.9463 174.605L131.363 109.088L166.216 173.004Z" fill="#E48655"/>
<path opacity="0.3" d="M139.271 123.647L103.248 182.176L130.046 231.387L186.425 232.988L222.595 174.46L166.216 173.004L139.271 123.647Z" fill="#E48655"/>
<path opacity="0.3" d="M166.216 173.004L130.046 231.387L103.248 182.176L139.271 123.647L166.216 173.004Z" fill="#E48655"/>
<path opacity="0.5" d="M131.363 109.088L90.9463 174.605L125.652 238.521L198.725 240.414L239.142 175.042L166.216 173.004L131.363 109.088Z" fill="#E48655"/>
<path d="M138.246 100.935L210.294 102.973L209.855 102.245L136.928 100.207L171.634 164.122H172.513L138.246 100.935Z" fill="#E48655"/>
<path opacity="0.5" d="M131.363 109.088L90.9463 174.605L91.3856 175.479L131.949 109.961L131.363 109.088Z" fill="#E48655"/>
<path opacity="0.5" d="M239.142 175.042L198.725 240.414H197.7L238.264 174.896L239.142 175.042Z" fill="#E48655"/>
<path opacity="0.5" d="M166.216 173.004L165.337 171.548L124.92 237.065L125.652 238.521H127.409L167.973 173.004H166.216Z" fill="#E48655"/>
<path d="M160.798 323.548L125.945 259.778L199.018 261.67L233.87 325.586L160.798 323.548Z" fill="#E48655"/>
<path d="M166.362 314.666L131.51 250.751L204.583 252.789L239.289 316.705L166.362 314.666Z" fill="#E48655"/>
<g opacity="0.9">
<path opacity="0.9" d="M200.19 259.778L173.392 210.421L229.77 211.877L256.569 261.234L200.19 259.778Z" fill="#E48655"/>
<path opacity="0.9" d="M256.568 261.234L226.988 309.134L170.609 307.678L200.189 259.778L256.568 261.234Z" fill="#E48655"/>
<path opacity="0.9" d="M173.392 210.421L143.811 258.322L170.609 307.678L200.19 259.778L173.392 210.421Z" fill="#E48655"/>
</g>
<path opacity="0.7" d="M170.609 307.678L143.811 258.322L200.19 259.923L226.988 309.134L170.609 307.678Z" fill="#E48655"/>
<path d="M239.288 316.705L233.87 325.586L160.797 323.548L166.362 314.667L239.288 316.705Z" fill="#E48655"/>
<path d="M131.51 250.751L125.945 259.778L160.798 323.548L166.362 314.666L131.51 250.751Z" fill="#E48655"/>
<path opacity="0.7" d="M131.51 250.751L125.945 259.778L160.798 323.548L166.362 314.666L131.51 250.751Z" fill="#E48655"/>
<path d="M206.78 249.149L171.927 185.379L245 187.272L279.852 251.188L206.78 249.149Z" fill="#E48655"/>
<path d="M212.198 240.268L177.492 176.352L250.565 178.391L285.271 242.306L212.198 240.268Z" fill="#E48655"/>
<path opacity="0.7" d="M212.198 240.268L177.492 176.352L250.565 178.391L285.271 242.306L212.198 240.268Z" fill="#E48655"/>
<path d="M285.27 242.306L279.852 251.188L206.779 249.149L212.198 240.268L285.27 242.306Z" fill="#E48655"/>
<path d="M177.492 176.352L171.927 185.379L206.78 249.149L212.198 240.268L177.492 176.352Z" fill="#E48655"/>
<path opacity="0.7" d="M177.492 176.352L171.927 185.379L206.78 249.149L212.198 240.268L177.492 176.352Z" fill="#E48655"/>
<path opacity="0.3" d="M206.779 249.149L166.362 314.667L131.51 250.751L171.927 185.379L206.779 249.149Z" fill="#E48655"/>
<path opacity="0.3" d="M179.981 199.938L143.811 258.322L170.609 307.678L226.988 309.134L263.158 250.751L206.78 249.149L179.981 199.938Z" fill="#E48655"/>
<path opacity="0.3" d="M206.78 249.149L170.609 307.678L143.811 258.322L179.981 199.938L206.78 249.149Z" fill="#E48655"/>
<path opacity="0.5" d="M171.927 185.379L131.51 250.751L166.362 314.667L239.289 316.705L279.852 251.188L206.779 249.149L171.927 185.379Z" fill="#E48655"/>
<path d="M178.81 177.226L250.857 179.119L250.565 178.391L177.492 176.352L212.198 240.268H213.076L178.81 177.226Z" fill="#E48655"/>
<path opacity="0.5" d="M171.927 185.379L131.51 250.751L131.949 251.77L172.513 186.253L171.927 185.379Z" fill="#E48655"/>
<path opacity="0.5" d="M279.852 251.188L239.289 316.705H238.264L278.827 251.188H279.852Z" fill="#E48655"/>
<path opacity="0.5" d="M206.779 249.149L205.9 247.693L165.483 313.211L166.362 314.667L167.973 314.812L208.536 249.295L206.779 249.149Z" fill="#E48655"/>
<path d="M35.1536 245.218L0.30127 181.303L73.3741 183.341L108.08 247.111L35.1536 245.218Z" fill="#E48655"/>
<path d="M40.5716 236.192L5.86572 172.421L78.7921 174.314L113.644 238.23L40.5716 236.192Z" fill="#E48655"/>
<g opacity="0.9">
<path opacity="0.9" d="M74.5458 181.303L47.7476 131.946L104.126 133.548L130.925 182.759L74.5458 181.303Z" fill="#E48655"/>
<path opacity="0.9" d="M130.925 182.759L101.344 230.659L44.9653 229.203L74.5459 181.303L130.925 182.759Z" fill="#E48655"/>
<path opacity="0.9" d="M47.7476 131.946L18.167 179.847L44.9652 229.203L74.5458 181.303L47.7476 131.946Z" fill="#E48655"/>
</g>
<path opacity="0.7" d="M44.9652 229.203L18.167 179.847L74.5458 181.448L101.344 230.659L44.9652 229.203Z" fill="#E48655"/>
<path d="M113.645 238.23L108.08 247.111L35.1538 245.218L40.572 236.192L113.645 238.23Z" fill="#E48655"/>
<path d="M5.86593 172.421L0.30127 181.303L35.1536 245.218L40.5719 236.191L5.86593 172.421Z" fill="#E48655"/>
<path opacity="0.7" d="M5.86593 172.421L0.30127 181.303L35.1536 245.218L40.5719 236.191L5.86593 172.421Z" fill="#E48655"/>
<path d="M81.1356 170.82L46.2832 106.904L119.356 108.797L154.062 172.712L81.1356 170.82Z" fill="#E48655"/>
<path d="M86.5536 161.793L51.8477 98.0229L124.774 99.9157L159.626 163.831L86.5536 161.793Z" fill="#E48655"/>
<path opacity="0.7" d="M86.5536 161.793L51.8477 98.0229L124.774 99.9157L159.626 163.831L86.5536 161.793Z" fill="#E48655"/>
<path d="M159.626 163.832L154.062 172.713L81.1353 170.82L86.5535 161.793L159.626 163.832Z" fill="#E48655"/>
<path d="M51.8479 98.0229L46.2832 106.904L81.1356 170.82L86.5538 161.793L51.8479 98.0229Z" fill="#E48655"/>
<path opacity="0.7" d="M51.8479 98.0229L46.2832 106.904L81.1356 170.82L86.5538 161.793L51.8479 98.0229Z" fill="#E48655"/>
<path opacity="0.3" d="M81.1351 170.82L40.5717 236.191L5.86572 172.421L46.2827 106.904L81.1351 170.82Z" fill="#E48655"/>
<path opacity="0.3" d="M54.1909 121.464L18.167 179.847L44.9652 229.203L101.344 230.659L137.514 172.276L81.1356 170.82L54.1909 121.464Z" fill="#E48655"/>
<path opacity="0.3" d="M81.1356 170.82L44.9652 229.203L18.167 179.847L54.1909 121.464L81.1356 170.82Z" fill="#E48655"/>
<path opacity="0.5" d="M46.2827 106.904L5.86572 172.421L40.5717 236.191L113.644 238.23L154.062 172.712L81.1351 170.82L46.2827 106.904Z" fill="#E48655"/>
<path d="M53.0192 98.7509L125.213 100.789L124.774 99.9157L51.8477 98.0229L86.5536 161.793L87.4322 161.939L53.0192 98.7509Z" fill="#E48655"/>
<path opacity="0.5" d="M46.2828 106.904L5.86572 172.421L6.30504 173.295L46.7221 107.778L46.2828 106.904Z" fill="#E48655"/>
<path opacity="0.5" d="M154.062 172.713L113.645 238.23H112.62L153.037 172.713H154.062Z" fill="#E48655"/>
<path opacity="0.5" d="M81.1355 170.82L80.2569 169.218L39.8398 234.735L40.572 236.191L42.3293 236.337L82.7463 170.82H81.1355Z" fill="#E48655"/>
<path d="M75.7171 321.364L40.8647 257.448L113.938 259.487L148.643 323.257L75.7171 321.364Z" fill="#E48655"/>
<path d="M81.1351 312.483L46.4292 248.567L119.356 250.605L154.208 314.375L81.1351 312.483Z" fill="#E48655"/>
<g opacity="0.9">
<path opacity="0.9" d="M115.11 257.448L88.3115 208.237L144.69 209.693L171.489 259.05L115.11 257.448Z" fill="#E48655"/>
<path opacity="0.9" d="M171.488 259.05L141.908 306.95L85.5288 305.348L115.109 257.448L171.488 259.05Z" fill="#E48655"/>
<path opacity="0.9" d="M88.3111 208.237L58.7305 256.138L85.5287 305.348L115.109 257.448L88.3111 208.237Z" fill="#E48655"/>
</g>
<path opacity="0.7" d="M85.5287 305.348L58.7305 256.138L115.109 257.594L141.908 306.95L85.5287 305.348Z" fill="#E48655"/>
<path d="M154.208 314.375L148.643 323.257L75.7168 321.364L81.135 312.483L154.208 314.375Z" fill="#E48655"/>
<path d="M46.4294 248.567L40.8647 257.448L75.7171 321.364L81.1353 312.483L46.4294 248.567Z" fill="#E48655"/>
<path opacity="0.7" d="M46.4294 248.567L40.8647 257.448L75.7171 321.364L81.1353 312.483L46.4294 248.567Z" fill="#E48655"/>
<path d="M121.699 246.965L86.8467 183.05L159.919 185.088L194.625 248.858L121.699 246.965Z" fill="#E48655"/>
<path d="M127.117 238.084L92.4111 174.168L165.337 176.207L200.19 239.977L127.117 238.084Z" fill="#E48655"/>
<path opacity="0.7" d="M127.117 238.084L92.4111 174.168L165.337 176.207L200.19 239.977L127.117 238.084Z" fill="#E48655"/>
<path d="M200.19 239.977L194.625 248.858L121.699 246.965L127.117 238.084L200.19 239.977Z" fill="#E48655"/>
<path d="M92.4114 174.168L86.8467 183.05L121.699 246.965L127.117 238.084L92.4114 174.168Z" fill="#E48655"/>
<path opacity="0.7" d="M92.4114 174.168L86.8467 183.05L121.699 246.965L127.117 238.084L92.4114 174.168Z" fill="#E48655"/>
<path opacity="0.3" d="M121.699 246.965L81.1351 312.483L46.4292 248.567L86.8462 183.05L121.699 246.965Z" fill="#E48655"/>
<path opacity="0.3" d="M94.7544 197.609L58.7305 256.138L85.5287 305.349L141.908 306.95L178.078 248.421L121.699 246.965L94.7544 197.609Z" fill="#E48655"/>
<path opacity="0.3" d="M121.699 246.965L85.5287 305.349L58.7305 256.138L94.7543 197.609L121.699 246.965Z" fill="#E48655"/>
<path opacity="0.5" d="M86.8462 183.05L46.4292 248.567L81.1351 312.483L154.208 314.375L194.625 248.858L121.699 246.965L86.8462 183.05Z" fill="#E48655"/>
<path d="M93.5826 174.896L165.777 176.935L165.337 176.207L92.4111 174.168L127.117 238.084H127.996L93.5826 174.896Z" fill="#E48655"/>
<path opacity="0.5" d="M86.8462 183.05L46.4292 248.567L46.8685 249.44L87.432 183.923L86.8462 183.05Z" fill="#E48655"/>
<path opacity="0.5" d="M194.625 248.858L154.208 314.375H153.183L193.747 248.858H194.625Z" fill="#E48655"/>
<path opacity="0.5" d="M121.699 246.965L120.82 245.364L80.4033 310.881L81.1355 312.483H82.8928L123.456 246.965H121.699Z" fill="#E48655"/>
<path d="M180.567 149.709L145.861 85.793L218.788 87.8313L253.64 151.601L180.567 149.709Z" fill="#E48655"/>
<path d="M186.132 140.682L151.28 76.9119L224.353 78.8046L259.205 142.72L186.132 140.682Z" fill="#E48655"/>
<g opacity="0.9">
<path opacity="0.9" d="M220.105 85.7931L193.161 36.4368L249.539 38.0383L276.484 87.249L220.105 85.7931Z" fill="#E48655"/>
<path opacity="0.9" d="M276.484 87.2492L246.904 135.295L190.525 133.694L220.105 85.7932L276.484 87.2492Z" fill="#E48655"/>
<path opacity="0.9" d="M193.161 36.4368L163.58 84.3372L190.525 133.693L220.105 85.7931L193.161 36.4368Z" fill="#E48655"/>
</g>
<path opacity="0.7" d="M190.525 133.694L163.58 84.3372L219.959 85.9387L246.904 135.295L190.525 133.694Z" fill="#E48655"/>
<path d="M259.205 142.72L253.64 151.602L180.567 149.709L186.132 140.682L259.205 142.72Z" fill="#E48655"/>
<path d="M151.28 76.9119L145.861 85.7931L180.567 149.709L186.132 140.682L151.28 76.9119Z" fill="#E48655"/>
<path opacity="0.7" d="M151.28 76.9119L145.861 85.7931L180.567 149.709L186.132 140.682L151.28 76.9119Z" fill="#E48655"/>
<path d="M226.549 75.3102L191.843 11.3945L264.77 13.2872L299.622 77.2029L226.549 75.3102Z" fill="#E48655"/>
<path d="M232.114 66.2835L197.261 2.51343L270.334 4.40615L305.04 68.3219L232.114 66.2835Z" fill="#E48655"/>
<path opacity="0.7" d="M232.114 66.2835L197.261 2.51343L270.334 4.40615L305.04 68.3219L232.114 66.2835Z" fill="#E48655"/>
<path d="M305.04 68.322L299.622 77.2032L226.549 75.3105L232.113 66.2837L305.04 68.322Z" fill="#E48655"/>
<path d="M197.261 2.51343L191.843 11.3947L226.549 75.3104L232.114 66.2835L197.261 2.51343Z" fill="#E48655"/>
<path opacity="0.7" d="M197.261 2.51343L191.843 11.3947L226.549 75.3104L232.114 66.2835L197.261 2.51343Z" fill="#E48655"/>
<path opacity="0.3" d="M226.549 75.3102L186.132 140.682L151.28 76.9118L191.843 11.3945L226.549 75.3102Z" fill="#E48655"/>
<path opacity="0.3" d="M199.75 25.9541L163.58 84.3372L190.525 133.694L246.904 135.295L282.927 76.7664L226.549 75.3104L199.75 25.9541Z" fill="#E48655"/>
<path opacity="0.3" d="M226.549 75.3104L190.525 133.694L163.58 84.3372L199.75 25.9541L226.549 75.3104Z" fill="#E48655"/>
<path opacity="0.5" d="M191.843 11.3945L151.28 76.9118L186.132 140.682L259.205 142.72L299.622 77.203L226.549 75.3102L191.843 11.3945Z" fill="#E48655"/>
<path d="M198.579 3.2414L270.773 5.27971L270.334 4.40615L197.261 2.51343L232.114 66.2835L232.992 66.4291L198.579 3.2414Z" fill="#E48655"/>
<path opacity="0.5" d="M191.843 11.3945L151.28 76.9118L151.866 77.7853L192.283 12.2681L191.843 11.3945Z" fill="#E48655"/>
<path opacity="0.5" d="M299.622 77.2031L259.205 142.72H258.18L298.597 77.2031H299.622Z" fill="#E48655"/>
<path opacity="0.5" d="M226.549 75.3103L225.817 73.7087L185.253 139.226L186.132 140.682L187.889 140.828L228.306 75.3103H226.549Z" fill="#E48655"/>
<path d="M221.13 225.854L186.424 161.939L259.497 163.977L294.203 227.747L221.13 225.854Z" fill="#E48655"/>
<path d="M226.695 216.973L191.843 153.057L264.916 155.096L299.768 218.866L226.695 216.973Z" fill="#E48655"/>
<g opacity="0.9">
<path opacity="0.9" d="M260.668 161.939L233.87 112.728L290.103 114.184L317.047 163.54L260.668 161.939Z" fill="#E48655"/>
<path opacity="0.9" d="M317.047 163.54L287.467 211.441L231.088 209.839L260.668 161.939L317.047 163.54Z" fill="#E48655"/>
<path opacity="0.9" d="M233.87 112.728L204.143 160.628L231.088 209.839L260.668 161.939L233.87 112.728Z" fill="#E48655"/>
</g>
<path opacity="0.7" d="M231.088 209.839L204.143 160.628L260.522 162.084L287.467 211.441L231.088 209.839Z" fill="#E48655"/>
<path d="M299.768 218.866L294.203 227.747L221.13 225.854L226.695 216.973L299.768 218.866Z" fill="#E48655"/>
<path d="M191.843 153.057L186.424 161.939L221.13 225.854L226.695 216.973L191.843 153.057Z" fill="#E48655"/>
<path opacity="0.7" d="M191.843 153.057L186.424 161.939L221.13 225.854L226.695 216.973L191.843 153.057Z" fill="#E48655"/>
<path d="M267.112 151.456L232.406 87.5403L305.333 89.5786L340.185 153.349L267.112 151.456Z" fill="#E48655"/>
<path d="M272.676 142.575L237.824 78.6589L310.897 80.6973L345.749 144.467L272.676 142.575Z" fill="#E48655"/>
<path opacity="0.7" d="M272.676 142.575L237.824 78.6589L310.897 80.6973L345.749 144.467L272.676 142.575Z" fill="#E48655"/>
<path d="M345.749 144.467L340.185 153.349L267.112 151.456L272.676 142.575L345.749 144.467Z" fill="#E48655"/>
<path d="M237.825 78.6589L232.406 87.5402L267.112 151.456L272.677 142.575L237.825 78.6589Z" fill="#E48655"/>
<path opacity="0.7" d="M237.825 78.6589L232.406 87.5402L267.112 151.456L272.677 142.575L237.825 78.6589Z" fill="#E48655"/>
<path opacity="0.3" d="M267.112 151.456L226.695 216.973L191.843 153.058L232.406 87.5403L267.112 151.456Z" fill="#E48655"/>
<path opacity="0.3" d="M240.313 102.1L204.143 160.628L231.088 209.839L287.467 211.441L323.49 152.912L267.112 151.456L240.313 102.1Z" fill="#E48655"/>
<path opacity="0.3" d="M267.112 151.456L231.088 209.839L204.143 160.628L240.313 102.1L267.112 151.456Z" fill="#E48655"/>
<path opacity="0.5" d="M232.406 87.5403L191.843 153.058L226.695 216.973L299.768 218.866L340.185 153.349L267.112 151.456L232.406 87.5403Z" fill="#E48655"/>
<path d="M239.142 79.3869L311.336 81.4252L310.897 80.6973L237.824 78.6589L272.676 142.575H273.555L239.142 79.3869Z" fill="#E48655"/>
<path opacity="0.5" d="M232.406 87.5403L191.843 153.058L192.429 153.931L232.846 88.4138L232.406 87.5403Z" fill="#E48655"/>
<path opacity="0.5" d="M340.185 153.349L299.768 218.866H298.743L339.16 153.349H340.185Z" fill="#E48655"/>
<path opacity="0.5" d="M267.112 151.456L266.38 149.854L225.816 215.371L226.695 216.973H228.452L268.869 151.456H267.112Z" fill="#E48655"/>
<path d="M95.4862 147.379L60.7803 83.6091L133.707 85.5018L168.559 149.418L95.4862 147.379Z" fill="#E48655"/>
<path d="M101.051 138.498L66.1987 74.5823L139.272 76.6206L173.977 140.536L101.051 138.498Z" fill="#E48655"/>
<g opacity="0.9">
<path opacity="0.9" d="M135.024 83.6092L108.08 34.2529L164.458 35.7089L191.403 85.0652L135.024 83.6092Z" fill="#E48655"/>
<path opacity="0.9" d="M191.403 85.0653L161.676 132.966L105.444 131.51L135.024 83.6094L191.403 85.0653Z" fill="#E48655"/>
<path opacity="0.9" d="M108.08 34.2529L78.499 82.1533L105.444 131.51L135.024 83.6092L108.08 34.2529Z" fill="#E48655"/>
</g>
<path opacity="0.7" d="M105.444 131.51L78.499 82.1533L134.878 83.6093L161.676 132.966L105.444 131.51Z" fill="#E48655"/>
<path d="M173.977 140.536L168.559 149.418L95.4863 147.379L101.051 138.498L173.977 140.536Z" fill="#E48655"/>
<path d="M66.1985 74.5823L60.7803 83.6091L95.4862 147.379L101.051 138.498L66.1985 74.5823Z" fill="#E48655"/>
<path opacity="0.7" d="M66.1985 74.5823L60.7803 83.6091L95.4862 147.379L101.051 138.498L66.1985 74.5823Z" fill="#E48655"/>
<path d="M141.468 72.9806L106.762 9.06494L179.689 11.1033L214.541 75.019L141.468 72.9806Z" fill="#E48655"/>
<path d="M147.033 64.0995L112.18 0.183838L185.253 2.22215L219.959 66.1379L147.033 64.0995Z" fill="#E48655"/>
<path opacity="0.7" d="M147.033 64.0995L112.18 0.183838L185.253 2.22215L219.959 66.1379L147.033 64.0995Z" fill="#E48655"/>
<path d="M219.959 66.1379L214.541 75.0191L141.468 72.9808L147.032 64.0996L219.959 66.1379Z" fill="#E48655"/>
<path d="M112.18 0.183838L106.762 9.06506L141.468 72.9808L147.033 64.0995L112.18 0.183838Z" fill="#E48655"/>
<path opacity="0.7" d="M112.18 0.183838L106.762 9.06506L141.468 72.9808L147.033 64.0995L112.18 0.183838Z" fill="#E48655"/>
<path opacity="0.3" d="M141.468 72.9806L101.051 138.498L66.1987 74.5822L106.762 9.06494L141.468 72.9806Z" fill="#E48655"/>
<path opacity="0.3" d="M114.669 23.6245L78.499 82.1532L105.444 131.51L161.676 132.965L197.846 74.5824L141.468 72.9808L114.669 23.6245Z" fill="#E48655"/>
<path opacity="0.3" d="M141.468 72.9808L105.444 131.51L78.499 82.1532L114.669 23.6245L141.468 72.9808Z" fill="#E48655"/>
<path opacity="0.5" d="M106.762 9.06494L66.1987 74.5822L101.051 138.498L173.977 140.536L214.541 75.019L141.468 72.9806L106.762 9.06494Z" fill="#E48655"/>
<path d="M113.498 1.0574L185.692 2.95012L185.253 2.22215L112.18 0.183838L147.033 64.0995H147.911L113.498 1.0574Z" fill="#E48655"/>
<path opacity="0.5" d="M106.762 9.06494L66.1987 74.5822L66.638 75.4557L107.202 10.0841L106.762 9.06494Z" fill="#E48655"/>
<path opacity="0.5" d="M214.541 75.019L173.977 140.536L173.099 140.391L213.516 75.019H214.541Z" fill="#E48655"/>
<path opacity="0.5" d="M141.468 72.9808L140.736 71.5249L100.172 137.042L101.051 138.498H102.662L143.225 72.9808H141.468Z" fill="#E48655"/>
<path d="M136.05 223.525L101.344 159.755L174.27 161.647L209.122 225.563L136.05 223.525Z" fill="#E48655"/>
<path d="M141.615 214.644L106.762 150.874L179.835 152.766L214.541 216.682L141.615 214.644Z" fill="#E48655"/>
<g opacity="0.9">
<path opacity="0.9" d="M175.588 159.755L148.643 110.398L205.022 112L231.967 161.211L175.588 159.755Z" fill="#E48655"/>
<path opacity="0.9" d="M231.967 161.211L202.386 209.111L146.007 207.655L175.588 159.755L231.967 161.211Z" fill="#E48655"/>
<path opacity="0.9" d="M148.643 110.398L119.062 158.299L146.007 207.655L175.588 159.755L148.643 110.398Z" fill="#E48655"/>
</g>
<path opacity="0.7" d="M146.007 207.655L119.062 158.299L175.441 159.9L202.386 209.111L146.007 207.655Z" fill="#E48655"/>
<path d="M214.541 216.682L209.123 225.563L136.05 223.525L141.614 214.644L214.541 216.682Z" fill="#E48655"/>
<path d="M106.762 150.874L101.344 159.755L136.05 223.525L141.614 214.644L106.762 150.874Z" fill="#E48655"/>
<path opacity="0.7" d="M106.762 150.874L101.344 159.755L136.05 223.525L141.614 214.644L106.762 150.874Z" fill="#E48655"/>
<path d="M182.032 149.126L147.326 85.3562L220.252 87.2489L255.104 151.165L182.032 149.126Z" fill="#E48655"/>
<path d="M187.596 140.245L152.744 76.4751L225.816 78.3678L260.522 142.283L187.596 140.245Z" fill="#E48655"/>
<path opacity="0.7" d="M187.596 140.245L152.744 76.4751L225.816 78.3678L260.522 142.283L187.596 140.245Z" fill="#E48655"/>
<path d="M260.522 142.283L255.104 151.165L182.031 149.126L187.596 140.245L260.522 142.283Z" fill="#E48655"/>
<path d="M152.744 76.4751L147.326 85.3563L182.032 149.126L187.596 140.245L152.744 76.4751Z" fill="#E48655"/>
<path opacity="0.7" d="M152.744 76.4751L147.326 85.3563L182.032 149.126L187.596 140.245L152.744 76.4751Z" fill="#E48655"/>
<path opacity="0.3" d="M182.032 149.126L141.615 214.644L106.762 150.873L147.326 85.3562L182.032 149.126Z" fill="#E48655"/>
<path opacity="0.3" d="M155.233 99.9158L119.062 158.299L146.007 207.655L202.386 209.111L238.41 150.728L182.031 149.126L155.233 99.9158Z" fill="#E48655"/>
<path opacity="0.3" d="M182.031 149.126L146.007 207.655L119.062 158.299L155.233 99.9158L182.031 149.126Z" fill="#E48655"/>
<path opacity="0.5" d="M147.326 85.3562L106.762 150.873L141.615 214.644L214.541 216.682L255.104 151.165L182.032 149.126L147.326 85.3562Z" fill="#E48655"/>
<path d="M154.062 77.2031L226.256 79.0958L225.816 78.3678L152.744 76.4751L187.596 140.245H188.475L154.062 77.2031Z" fill="#E48655"/>
<path opacity="0.5" d="M147.326 85.3562L106.762 150.873L107.348 151.747L147.765 86.2298L147.326 85.3562Z" fill="#E48655"/>
<path opacity="0.5" d="M255.104 151.165L214.541 216.682H213.662L254.079 151.165H255.104Z" fill="#E48655"/>
<path opacity="0.5" d="M182.032 149.126L181.299 147.67L140.736 213.188L141.614 214.644L143.372 214.789L183.789 149.272L182.032 149.126Z" fill="#E48655"/>
</svg>
